<?xml version="1.0" encoding="UTF-8" standalone="no"?>
<!-- Created with Inkscape (http://www.inkscape.org/) -->

<svg
   xmlns:dc="http://purl.org/dc/elements/1.1/"
   xmlns:cc="http://creativecommons.org/ns#"
   xmlns:rdf="http://www.w3.org/1999/02/22-rdf-syntax-ns#"
   xmlns:svg="http://www.w3.org/2000/svg"
   xmlns="http://www.w3.org/2000/svg"
   version="1.1"
   width="918.75"
   height="1065"
   id="svg12796"
   xml:space="preserve"><metadata
     id="metadata12802"><rdf:RDF><cc:Work
         rdf:about=""><dc:format>image/svg+xml</dc:format><dc:type
           rdf:resource="http://purl.org/dc/dcmitype/StillImage" /><dc:title></dc:title></cc:Work></rdf:RDF></metadata><defs
     id="defs12800"><clipPath
       id="clipPath12812"><path
         d="M 0,852 735,852 735,0 0,0 0,852 z"
         id="path12814" /></clipPath><clipPath
       id="clipPath12818"><path
         d="m -434.259,844.604 358.699,-207.069 0,-422.156 -358.699,-208.405 -366.714,208.405 0,422.156 366.714,207.069 z"
         id="path12820" /></clipPath><clipPath
       id="clipPath12824"><path
         d="M 0,0 735,0 735,852 0,852 0,0 z"
         id="path12826" /></clipPath><clipPath
       id="clipPath12834"><path
         d="M 0,0 735,0 735,852 0,852 0,0 z"
         id="path12836" /></clipPath><clipPath
       id="clipPath12844"><path
         d="m 2.794,637.535 0,-422.156 366.714,-208.406 358.698,208.406 0,422.156 L 369.508,844.604 2.794,637.535 z"
         id="path12846" /></clipPath><clipPath
       id="clipPath12850"><path
         d="M 0,0 735,0 735,852 0,852 0,0 z"
         id="path12852" /></clipPath><clipPath
       id="clipPath12860"><path
         d="M 0,0 735,0 735,852 0,852 0,0 z"
         id="path12862" /></clipPath><clipPath
       id="clipPath12888"><path
         d="M 0,852 735,852 735,0 0,0 0,852 z"
         id="path12890" /></clipPath><clipPath
       id="clipPath12894"><path
         d="M 0,0 735,0 735,852 0,852 0,0 z"
         id="path12896" /></clipPath><clipPath
       id="clipPath12924"><path
         d="M 0,0 735,0 735,852 0,852 0,0 z"
         id="path12926" /></clipPath><clipPath
       id="clipPath12940"><path
         d="M 0,852 735,852 735,0 0,0 0,852 z"
         id="path12942" /></clipPath><clipPath
       id="clipPath12946"><path
         d="M 0,0 735,0 735,852 0,852 0,0 z"
         id="path12948" /></clipPath><clipPath
       id="clipPath12972"><path
         d="M 0,852 735,852 735,0 0,0 0,852 z"
         id="path12974" /></clipPath><clipPath
       id="clipPath12978"><path
         d="m 1172.363,868.607 358.698,-207.07 0,-422.155 -358.698,-208.406 -366.714,208.406 0,422.155 366.714,207.07 z"
         id="path12980" /></clipPath><clipPath
       id="clipPath12984"><path
         d="M 0,0 735,0 735,852 0,852 0,0 z"
         id="path12986" /></clipPath><clipPath
       id="clipPath12994"><path
         d="M 0,852 735,852 735,0 0,0 0,852 z"
         id="path12996" /></clipPath><clipPath
       id="clipPath13000"><path
         d="M 0,0 735,0 735,852 0,852 0,0 z"
         id="path13002" /></clipPath></defs><g
     transform="matrix(1.25,0,0,-1.25,0,1065)"
     id="g12804"><g
       id="g12806" /><g
       id="g12808"><g
         clip-path="url(#clipPath12812)"
         id="g12810"><g
           clip-path="url(#clipPath12818)"
           id="g12816"><g
             clip-path="url(#clipPath12824)"
             id="g12822"><path
               d="m 3.8627,414.5521 c 0,-244.182 -197.947,-442.132 -442.129,-442.132 -244.182,0 -442.129,197.95 -442.129,442.132 0,244.182 197.947,442.129 442.129,442.129 244.182,0 442.129,-197.947 442.129,-442.129"
               id="path12828"
               style="fill:#ef7c32;fill-opacity:1;fill-rule:nonzero;stroke:none" /></g></g></g></g><g
       id="g12830"><g
         clip-path="url(#clipPath12834)"
         id="g12832"><path
           d="m 369.5077,844.6042 358.698,-207.07 0,-422.155 -358.698,-208.406 -366.714,208.406 0,422.155 366.714,207.07 z"
           id="path12838"
           style="fill:#dcddde;fill-opacity:1;fill-rule:nonzero;stroke:none" /></g></g><g
       id="g12840"><g
         clip-path="url(#clipPath12844)"
         id="g12842"><g
           clip-path="url(#clipPath12850)"
           id="g12848"><path
             d="m 807.629,414.5519 c 0,-244.182 -197.947,-442.132 -442.129,-442.132 -244.182,0 -442.129,197.95 -442.129,442.132 0,244.182 197.947,442.129 442.129,442.129 244.182,0 442.129,-197.947 442.129,-442.129"
             id="path12854"
             style="fill:#f2f2f2;fill-opacity:1;fill-rule:nonzero;stroke:none" /></g></g></g><g
       id="g12856"><g
         clip-path="url(#clipPath12860)"
         id="g12858"><g
           transform="translate(680.4666,653.8888)"
           id="g12864"><path
             d="M 0,0 0,-458.327"
             id="path12866"
             style="fill:none;stroke:#ffffff;stroke-width:3.5;stroke-linecap:butt;stroke-linejoin:miter;stroke-miterlimit:10;stroke-opacity:1;stroke-dasharray:none" /></g><g
           transform="translate(524.9174,745.1138)"
           id="g12868"><path
             d="M 0,0 0,-638.291"
             id="path12870"
             style="fill:none;stroke:#ffffff;stroke-width:3.5;stroke-linecap:butt;stroke-linejoin:miter;stroke-miterlimit:10;stroke-opacity:1;stroke-dasharray:none" /></g><g
           transform="translate(367.4088,841.5869)"
           id="g12872"><path
             d="M 0,0 0,-825.025"
             id="path12874"
             style="fill:none;stroke:#ffffff;stroke-width:3.5;stroke-linecap:butt;stroke-linejoin:miter;stroke-miterlimit:10;stroke-opacity:1;stroke-dasharray:none" /></g><g
           transform="translate(209.5269,742.1061)"
           id="g12876"><path
             d="M 0,0 0,-636.028"
             id="path12878"
             style="fill:none;stroke:#ffffff;stroke-width:3.5;stroke-linecap:butt;stroke-linejoin:miter;stroke-miterlimit:10;stroke-opacity:1;stroke-dasharray:none" /></g><g
           transform="translate(52.9371,652.004)"
           id="g12880"><path
             d="M 0,0 0,-450.966"
             id="path12882"
             style="fill:none;stroke:#ffffff;stroke-width:3.5;stroke-linecap:butt;stroke-linejoin:miter;stroke-miterlimit:10;stroke-opacity:1;stroke-dasharray:none" /></g></g></g><g
       id="g12884"><g
         clip-path="url(#clipPath12888)"
         id="g12886"><g
           clip-path="url(#clipPath12894)"
           id="g12892"><g
             transform="translate(47.0148,647.0301)"
             id="g12898"><path
               d="M 0,0 C 210.76,-0.468 420.76,-0.468 632.116,0"
               id="path12900"
               style="fill:none;stroke:#ffffff;stroke-width:3.5;stroke-linecap:butt;stroke-linejoin:miter;stroke-miterlimit:10;stroke-opacity:1;stroke-dasharray:none" /></g><g
             transform="translate(11.1749,491.481)"
             id="g12902"><path
               d="M 0,0 C 233.6,0.081 467.6,0.081 702.082,0"
               id="path12904"
               style="fill:none;stroke:#ffffff;stroke-width:3.5;stroke-linecap:butt;stroke-linejoin:miter;stroke-miterlimit:10;stroke-opacity:1;stroke-dasharray:none" /></g><g
             transform="translate(10.505,333.9723)"
             id="g12906"><path
               d="M 0,0 C 235.27,-0.41 470.27,-0.41 705.724,0"
               id="path12908"
               style="fill:none;stroke:#ffffff;stroke-width:3.5;stroke-linecap:butt;stroke-linejoin:miter;stroke-miterlimit:10;stroke-opacity:1;stroke-dasharray:none" /></g><g
             transform="translate(105.9664,176.0904)"
             id="g12910"><path
               d="M 0,0 538.809,0"
               id="path12912"
               style="fill:none;stroke:#ffffff;stroke-width:3.5;stroke-linecap:butt;stroke-linejoin:miter;stroke-miterlimit:10;stroke-opacity:1;stroke-dasharray:none" /></g><path
             d="m 722.0057,454.3977 c 0.406,5.476 0.745,10.956 0.924,16.447 0.323,9.918 -0.35,19.721 -0.627,29.623 -0.071,2.557 -0.104,5.116 -0.115,7.675 l -0.182,0 0,-53.745 z"
             id="path12914"
             style="fill:#000643;fill-opacity:1;fill-rule:nonzero;stroke:none" /><path
             d="m 722.0057,320.0691 0,-27.386 c 0.284,1.72 0.551,3.442 0.766,5.173 0.941,7.581 0.153,14.817 -0.766,22.213"
             id="path12916"
             style="fill:#000643;fill-opacity:1;fill-rule:nonzero;stroke:none" /><path
             d="m 367.0335,218.1004 c 0.287,0.285 0.605,0.588 0.933,0.888 l -0.255,0 c -0.225,-0.3 -0.451,-0.599 -0.678,-0.888"
             id="path12918"
             style="fill:#e6b35a;fill-opacity:1;fill-rule:nonzero;stroke:none" /></g></g></g><g
       id="g12920"><g
         clip-path="url(#clipPath12924)"
         id="g12922"><text
           transform="matrix(0.94339623,0,0,-1,119.6572,257.125)"
           id="text12928"><tspan
             x="0"
             y="0"
             id="tspan12930"
             style="font-size:169.6000061px;font-variant:normal;font-weight:normal;writing-mode:lr-tb;fill:#424242;fill-opacity:1;fill-rule:nonzero;stroke:none;font-family:Myriad Pro;-inkscape-font-specification:MyriadPro-Regular">g</tspan></text>
<text
           transform="matrix(0.94339623,0,0,-1,203.9772,257.125)"
           id="text12932"><tspan
             x="0 88.361603 179.4368 214.0352 301.71841 352.4288"
             y="0"
             id="tspan12934"
             style="font-size:169.6000061px;font-variant:normal;font-weight:normal;writing-mode:lr-tb;fill:#424242;fill-opacity:1;fill-rule:nonzero;stroke:none;font-family:Myriad Pro;-inkscape-font-specification:MyriadPro-Regular">gplot2</tspan></text>
</g></g><g
       id="g12936"><g
         clip-path="url(#clipPath12940)"
         id="g12938"><g
           clip-path="url(#clipPath12946)"
           id="g12944"><g
             transform="translate(669.4432,646.6791)"
             id="g12950"><path
               d="m 0,0 -259.737,-165.602 -84.428,121.666 -303.242,-199.673"
               id="path12952"
               style="fill:none;stroke:#424242;stroke-width:12;stroke-linecap:butt;stroke-linejoin:miter;stroke-miterlimit:10;stroke-opacity:1;stroke-dasharray:none" /></g><path
             d="m 217.2813,513.4102 c 0,-21.357 -17.313,-38.67 -38.67,-38.67 -21.357,0 -38.671,17.313 -38.671,38.67 0,21.357 17.314,38.67 38.671,38.67 21.357,0 38.67,-17.313 38.67,-38.67"
             id="path12954"
             style="fill:#51a7f9;fill-opacity:1;fill-rule:nonzero;stroke:none" /><path
             d="m 78.3413,415.7274 c 0,-21.357 -17.313,-38.67 -38.67,-38.67 -21.357,0 -38.671,17.313 -38.671,38.67 0,21.357 17.314,38.67 38.671,38.67 21.357,0 38.67,-17.313 38.67,-38.67"
             id="path12956"
             style="fill:#a8d6ff;fill-opacity:1;fill-rule:nonzero;stroke:none" /><path
             d="m 363.948,602.7435 c 0,-21.357 -17.313,-38.67 -38.67,-38.67 -21.357,0 -38.671,17.313 -38.671,38.67 0,21.357 17.314,38.67 38.671,38.67 21.357,0 38.67,-17.313 38.67,-38.67"
             id="path12958"
             style="fill:#0365c0;fill-opacity:1;fill-rule:nonzero;stroke:none" /><path
             d="m 448.376,481.0769 c 0,-21.357 -17.313,-38.67 -38.67,-38.67 -21.357,0 -38.671,17.313 -38.671,38.67 0,21.357 17.314,38.67 38.671,38.67 21.357,0 38.67,-17.313 38.67,-38.67"
             id="path12960"
             style="fill:#164f86;fill-opacity:1;fill-rule:nonzero;stroke:none" /><path
             d="m 584.0427,567.9333 c 0,-21.357 -17.313,-38.67 -38.67,-38.67 -21.357,0 -38.671,17.313 -38.671,38.67 0,21.357 17.314,38.67 38.671,38.67 21.357,0 38.67,-17.313 38.67,-38.67"
             id="path12962"
             style="fill:#002452;fill-opacity:1;fill-rule:nonzero;stroke:none" /><path
             d="m 673.5877,669.7281 c -6.111,4.503 -13.414,7.867 -19.632,12.386 -13.645,-5.973 -23.183,-19.587 -23.183,-35.435 0,-21.357 17.314,-38.67 38.67,-38.67 21.357,0 38.671,17.313 38.671,38.67 0,0.295 -0.016,0.585 -0.023,0.878 -12.225,6.164 -23.49,14.056 -34.503,22.171"
             id="path12964"
             style="fill:#000643;fill-opacity:1;fill-rule:nonzero;stroke:none" /><path
             d="m 705.6139,230.5327 -338.124,-195.216 -338.121,195.216 0,390.431 338.121,195.215 0,0 338.124,-195.215 0,-390.431 z m 0,425.258 -277.803,160.388 -60.313,34.821 -60.312,-34.821 -277.817,-160.398 -29.283,-16.907 0,-424.254 29.283,-16.906 281.277,-162.397 56.852,-32.824 56.853,32.824 281.263,162.387 29.3,16.916 0,424.254 -29.3,16.917 z"
             id="path12966"
             style="fill:#424242;fill-opacity:1;fill-rule:nonzero;stroke:none" /></g></g></g><g
       id="g12968"><g
         clip-path="url(#clipPath12972)"
         id="g12970"><g
           clip-path="url(#clipPath12978)"
           id="g12976"><g
             clip-path="url(#clipPath12984)"
             id="g12982"><path
               d="m 1610.484,438.5544 c 0,-244.182 -197.947,-442.132 -442.129,-442.132 -244.1817,0 -442.1287,197.95 -442.1287,442.132 0,244.182 197.947,442.129 442.1287,442.129 244.182,0 442.129,-197.947 442.129,-442.129"
               id="path12988"
               style="fill:#36a85d;fill-opacity:1;fill-rule:nonzero;stroke:none" /></g></g></g></g><g
       id="g12990"><g
         clip-path="url(#clipPath12994)"
         id="g12992"><g
           clip-path="url(#clipPath13000)"
           id="g12998"><text
             transform="matrix(0.86418122,0.50318071,0.50318071,-0.86418122,380.6725,49.5969)"
             id="text13004"><tspan
               x="0 18.699974 37.397446 54.822422 59.997417 68.172401 78.072388 86.347382 100.12236 114.22234 120.07233 133.19731 138.3723 149.42229 163.14728"
               y="0"
               id="tspan13006"
               style="font-size:24.99996567px;font-variant:normal;font-weight:normal;writing-mode:lr-tb;fill:#424242;fill-opacity:1;fill-rule:nonzero;stroke:none;font-family:Myriad Pro;-inkscape-font-specification:MyriadPro-Regular">www.rstudio.com</tspan></text>
</g></g></g></g></svg>