<?xml version="1.0" encoding="UTF-8" standalone="no"?>
<!-- Created with Inkscape (http://www.inkscape.org/) -->

<svg
   xmlns:dc="http://purl.org/dc/elements/1.1/"
   xmlns:cc="http://creativecommons.org/ns#"
   xmlns:rdf="http://www.w3.org/1999/02/22-rdf-syntax-ns#"
   xmlns:svg="http://www.w3.org/2000/svg"
   xmlns="http://www.w3.org/2000/svg"
   version="1.1"
   width="918.75"
   height="1065"
   id="svg4345"
   xml:space="preserve"><metadata
     id="metadata4351"><rdf:RDF><cc:Work
         rdf:about=""><dc:format>image/svg+xml</dc:format><dc:type
           rdf:resource="http://purl.org/dc/dcmitype/StillImage" /><dc:title></dc:title></cc:Work></rdf:RDF></metadata><defs
     id="defs4349"><clipPath
       id="clipPath4361"><path
         d="m 2.794,635.738 0,-422.155 366.714,-208.406 358.698,208.406 0,422.155 L 369.508,842.808 2.794,635.738 z"
         id="path4363" /></clipPath><clipPath
       id="clipPath4367"><path
         d="M 0,0 735,0 735,852 0,852 0,0 z"
         id="path4369" /></clipPath><clipPath
       id="clipPath4377"><path
         d="m 2.794,635.738 0,-422.155 366.714,-208.406 358.698,208.406 0,422.155 L 369.508,842.808 2.794,635.738 z"
         id="path4379" /></clipPath><clipPath
       id="clipPath4383"><path
         d="M 0,0 735,0 735,852 0,852 0,0 z"
         id="path4385" /></clipPath><clipPath
       id="clipPath4389"><path
         d="m 51,509 632,0 0,334 -632,0 0,-334 z"
         id="path4391" /></clipPath><clipPath
       id="clipPath4393"><path
         d="m 682.134,744.402 c 0,-129.583 -141.137,-234.635 -315.241,-234.635 -174.104,0 -315.245,105.052 -315.245,234.635 0,129.579 141.141,234.631 315.245,234.631 174.104,0 315.241,-105.052 315.241,-234.631"
         id="path4395" /></clipPath><clipPath
       id="clipPath4397"><path
         d="m 51.6477,509.767 630.4863,0 0,333.233 -630.4863,0 0,-333.233 z"
         id="path4399" /></clipPath><clipPath
       id="clipPath4401"><path
         d="m -32768,-32768 65535,0 0,65535 -65535,0 0,-65535 z"
         id="path4403" /></clipPath><linearGradient
       x1="0"
       y1="0"
       x2="1"
       y2="0"
       id="linearGradient4405"
       gradientUnits="userSpaceOnUse"
       gradientTransform="matrix(1.298455,-463.5253,-463.5253,-1.298455,366.2518,972.5979)"
       spreadMethod="pad"><stop
         id="stop4407"
         style="stop-color:#ffffff;stop-opacity:0.83138782"
         offset="0" /><stop
         id="stop4409"
         style="stop-color:#ffffff;stop-opacity:0"
         offset="1" /></linearGradient><mask
       id="mask4411"><g
         id="g4413"><g
           clip-path="url(#clipPath4401)"
           id="g4415"><g
             id="g4417" /><g
             id="g4419"><g
               id="g4421"><path
                 d="m -32768,-32768 65535,0 0,65535 -65535,0 0,-65535 z"
                 id="path4423"
                 style="fill:url(#linearGradient4405);stroke:none" /></g></g></g></g></mask><linearGradient
       x1="0"
       y1="0"
       x2="1"
       y2="0"
       id="linearGradient4425"
       gradientUnits="userSpaceOnUse"
       gradientTransform="matrix(1.298455,-463.5253,-463.5253,-1.298455,366.2518,972.5979)"
       spreadMethod="pad"><stop
         id="stop4427"
         style="stop-color:#ffffff;stop-opacity:1"
         offset="0" /><stop
         id="stop4429"
         style="stop-color:#ffffff;stop-opacity:1"
         offset="1" /></linearGradient><clipPath
       id="clipPath4455"><path
         d="M 0,0 735,0 735,852 0,852 0,0 z"
         id="path4457" /></clipPath><clipPath
       id="clipPath4465"><path
         d="M 0,852 735,852 735,0 0,0 0,852 z"
         id="path4467" /></clipPath><clipPath
       id="clipPath4471"><path
         d="m 1173.274,844.604 358.698,-207.069 0,-422.156 L 1173.274,6.974 806.56,215.379 l 0,422.156 366.714,207.069 z"
         id="path4473" /></clipPath><clipPath
       id="clipPath4477"><path
         d="M 0,0 735,0 735,852 0,852 0,0 z"
         id="path4479" /></clipPath><clipPath
       id="clipPath4487"><path
         d="M 0,0 735,0 735,852 0,852 0,0 z"
         id="path4489" /></clipPath><clipPath
       id="clipPath4497"><path
         d="M 0,852 735,852 735,0 0,0 0,852 z"
         id="path4499" /></clipPath><clipPath
       id="clipPath4503"><path
         d="M 0,0 735,0 735,852 0,852 0,0 z"
         id="path4505" /></clipPath></defs><g
     transform="matrix(1.25,0,0,-1.25,0,1065)"
     id="g4353"><g
       id="g4355" /><g
       id="g4357"><g
         clip-path="url(#clipPath4361)"
         id="g4359"><g
           clip-path="url(#clipPath4367)"
           id="g4365"><path
             d="m 807.629,412.7555 c 0,-244.182 -197.947,-442.132 -442.129,-442.132 -244.182,0 -442.129,197.95 -442.129,442.132 0,244.182 197.947,442.129 442.129,442.129 244.182,0 442.129,-197.947 442.129,-442.129"
             id="path4371"
             style="fill:#f9ecc6;fill-opacity:1;fill-rule:nonzero;stroke:none" /></g></g></g><g
       id="g4373"><g
         clip-path="url(#clipPath4377)"
         id="g4375"><g
           clip-path="url(#clipPath4383)"
           id="g4381"><g
             id="g4387" /><g
             id="g4431"><g
               clip-path="url(#clipPath4389)"
               id="g4433"
               style="opacity:0.25"><g
                 id="g4435" /><g
                 id="g4437"><g
                   clip-path="url(#clipPath4393)"
                   id="g4439"><g
                     clip-path="url(#clipPath4397)"
                     id="g4441"><g
                       id="g4443" /><g
                       mask="url(#mask4411)"
                       id="g4445"><g
                         id="g4447"><path
                           d="m 51.6477,509.767 630.4863,0 0,333.233 -630.4863,0 0,-333.233 z"
                           id="path4449"
                           style="fill:url(#linearGradient4425);stroke:none" /></g></g></g></g></g></g></g></g></g></g><g
       id="g4451"><g
         clip-path="url(#clipPath4455)"
         id="g4453"><path
           d="m 307.1862,814.3821 -277.817,-160.398 -29.283,-16.907 0,-424.253 29.283,-16.907 281.277,-162.397 56.852,-32.823 56.853,32.823 281.262,162.387 29.301,16.916 0,424.254 -29.301,16.917 -277.802,160.388 -60.313,34.821 -60.312,-34.821 z m -277.817,-585.645 0,390.431 338.121,195.214 10e-4,0 338.122,-195.214 0,-390.432 -338.123,-195.216 -338.121,195.217 z"
           id="path4459"
           style="fill:#484546;fill-opacity:1;fill-rule:nonzero;stroke:none" /></g></g><g
       id="g4461"><g
         clip-path="url(#clipPath4465)"
         id="g4463"><g
           clip-path="url(#clipPath4471)"
           id="g4469"><g
             clip-path="url(#clipPath4477)"
             id="g4475"><path
               d="m 1611.395,414.5521 c 0,-244.182 -197.947,-442.132 -442.129,-442.132 -244.1816,0 -442.1286,197.95 -442.1286,442.132 0,244.182 197.947,442.129 442.1286,442.129 244.182,0 442.129,-197.947 442.129,-442.129"
               id="path4481"
               style="fill:#428bca;fill-opacity:1;fill-rule:nonzero;stroke:none" /></g></g></g></g><g
       id="g4483"><g
         clip-path="url(#clipPath4487)"
         id="g4485"><path
           d="m 307.1862,814.3821 -277.817,-160.398 -29.283,-16.907 0,-424.253 29.283,-16.907 281.277,-162.397 56.852,-32.823 56.853,32.823 281.262,162.387 29.301,16.916 0,424.254 -29.301,16.917 -277.802,160.388 -60.313,34.821 -60.312,-34.821 z m -277.817,-585.645 0,390.431 338.121,195.214 338.123,-195.214 0,-390.432 -338.123,-195.216 -338.121,195.217 z"
           id="path4491"
           style="fill:#3e3221;fill-opacity:1;fill-rule:nonzero;stroke:none" /></g></g><g
       id="g4493"><g
         clip-path="url(#clipPath4497)"
         id="g4495"><g
           clip-path="url(#clipPath4503)"
           id="g4501"><path
             d="m 570.0791,308.4336 c -0.577,1.864 1.864,5.259 3.782,5.259 1.466,0 0.799,-5.773 -0.753,-6.512 -2.176,-1.035 -2.343,-0.966 -3.029,1.253 m -392.607,-6.173 c 0,2.143 2.338,3.569 3.895,2.376 0.765,-0.587 0.745,-1.3 -0.073,-2.522 -1.513,-2.261 -3.822,-2.173 -3.822,0.144 l 0,0.002 z m 76.779,-15.899 c 1.189,1.569 2.032,3.574 1.874,4.456 -0.159,0.881 0.478,1.81 1.415,2.064 2.647,0.718 2.072,-3.051 -0.973,-6.375 -3.447,-3.763 -5.136,-3.869 -2.316,-0.144 l 0,-10e-4 z m 394.381,-19.998 c 0,2.844 1.833,5.05 3.526,4.244 1.832,-0.872 1.696,-4.782 -0.198,-5.684 -2.524,-1.201 -3.328,-0.854 -3.328,1.44 z m -156.876,0.424 c -2.466,3.059 -2.26,7.849 0.823,19.176 2.076,7.629 2.372,9.944 1.423,11.121 -0.949,1.177 -1.951,0.987 -4.813,-0.913 -3.356,-2.23 -3.856,-3.321 -7.02,-15.337 -3.495,-13.27 -5.121,-16.831 -6.747,-14.772 -0.561,0.71 0.177,5.284 1.935,12.013 3.324,12.718 3.187,16.125 -0.268,6.641 -1.33,-3.652 -4.246,-9.493 -6.479,-12.979 -3.669,-5.726 -4.434,-6.339 -7.906,-6.339 -3.492,0 -3.916,0.344 -4.636,3.794 -0.691,3.311 -0.975,3.574 -2.218,2.064 -5.298,-6.434 -9.767,-7.488 -12.203,-2.88 -1.691,3.202 -1.23,11.003 0.92,15.546 0.825,1.744 0.809,2.446 -0.069,2.841 -0.74,0.334 0.061,2.505 2.19,5.971 1.844,2.996 3.353,5.949 3.353,6.562 0,0.614 0.704,1.115 1.565,1.115 1.93,0 1.441,-2.899 -2.611,-15.485 -3.199,-9.933 -3.563,-14.1 -1.326,-15.165 2.185,-1.04 6.757,2.239 9.484,6.803 1.29,2.16 3.566,8.153 5.059,13.319 2.893,10.019 3.345,10.858 5.12,9.498 0.816,-0.625 0.055,-4.732 -2.704,-14.565 -2.111,-7.531 -3.603,-14.167 -3.315,-14.745 1.031,-2.068 3.983,-0.993 6.607,2.403 1.468,1.9 4.945,8.825 7.727,15.388 4.958,11.695 7.666,14.898 9.495,11.227 0.617,-1.236 1.306,-1.26 3.327,-0.118 3.26,1.842 6.614,1.839 8.103,0 1.751,-2.172 1.411,-9.829 -0.778,-17.555 -2.564,-9.046 -2.546,-12.387 0.067,-12.387 2.29,0 5.918,2.133 6.979,4.104 0.419,0.778 0.721,0.281 0.73,-1.201 0.033,-5.692 -8.407,-9.362 -11.814,-5.136 l 0,-0.009 z m -276.318,-3.002 c 0,1.106 1.558,6.081 3.462,11.056 3.451,9.018 5.15,15.911 3.922,15.911 -0.768,0 -7.167,-4.237 -9.528,-6.308 -3.009,-2.641 -3.271,0.428 -0.29,3.401 4.441,4.429 10.568,7.031 12.905,5.48 1.364,-0.906 2.76,-0.886 4.803,0.07 7.752,3.629 10.77,-2.908 7.104,-15.393 -1.158,-3.944 -2.322,-8.048 -2.586,-9.118 -0.575,-2.331 2.47,-4.128 3.929,-2.318 0.553,0.685 1.684,1.229 2.514,1.208 1.038,-0.037 0.637,-0.989 -1.285,-3.085 -3.624,-3.952 -7.525,-3.565 -8.775,0.871 -0.693,2.461 -0.312,4.993 1.686,11.181 4.107,12.724 3.249,17.339 -2.454,13.197 -2.358,-1.713 -3.852,-4.63 -6.693,-13.071 -2.012,-5.976 -3.906,-11.817 -4.209,-12.979 -0.71,-2.728 -4.505,-2.815 -4.505,-0.104 l 0,10e-4 z m 59.625,21.898 c 1.472,1.708 2.677,3.783 2.677,4.61 0,1.983 -3.465,3.292 -5.315,2.008 -2.24,-1.555 -6.367,-8.992 -6.367,-11.473 0,-2.096 0.165,-2.108 3.164,-0.23 1.74,1.089 4.368,3.377 5.841,5.086 l 0,-10e-4 z m -8.761,-22.713 c -1.74,1.315 -3.164,2.969 -3.164,3.675 0,0.705 -1.125,2.576 -2.501,4.157 -2.405,2.765 -2.428,2.921 -0.615,4.125 1.037,0.688 2.145,2.765 2.463,4.614 0.92,5.356 4.151,10.852 8.46,14.389 3.278,2.69 4.458,3.072 6.609,2.139 2.022,-0.876 2.691,-2.05 2.931,-5.144 0.264,-3.391 -0.313,-4.725 -3.737,-8.645 -2.226,-2.55 -5.523,-5.504 -7.327,-6.565 -4.093,-2.409 -4.699,-3.599 -3.385,-6.643 4.067,-9.426 13.369,-2.57 24.551,18.096 5.428,10.03 7.183,11.785 6.344,6.341 -0.33,-2.143 0.127,-4.276 1.321,-6.159 1.005,-1.584 2.106,-4.726 2.447,-6.983 0.341,-2.257 0.901,-4.065 1.243,-4.019 0.973,0.129 9.869,14.161 9.869,15.564 0,0.691 0.444,1.255 0.986,1.255 0.542,0 2.051,2.988 3.354,6.64 1.501,4.211 2.96,6.641 3.987,6.641 1.611,0 1.56,-2.2 -0.179,-7.821 -0.534,-1.728 -0.128,-1.894 2.917,-1.185 4.995,1.162 4.425,-0.932 -1.133,-4.161 -4.368,-2.537 -4.842,-3.275 -7.306,-11.374 -3.702,-12.172 -4.284,-16.509 -2.212,-16.509 0.896,0 2.922,0.829 4.502,1.842 3.49,2.238 3.728,0.784 0.489,-2.99 -2.646,-3.084 -7.114,-3.676 -8.421,-1.116 -1.414,2.769 -0.985,9.082 1.055,15.5 1.063,3.344 1.611,6.048 1.217,6.008 -0.799,-0.082 -5.671,-7.523 -10.003,-15.277 -5.241,-9.38 -9.334,-10.671 -12.182,-3.841 -1.332,3.194 -1.287,3.645 0.588,5.971 1.682,2.086 2.284,2.253 3.524,0.977 1.326,-1.365 1.264,-1.771 -0.552,-3.595 -2.386,-2.396 -2.596,-3.479 -0.673,-3.479 0.755,0 2.507,1.671 3.893,3.714 3.111,4.586 3.513,12.908 0.771,15.986 -1.647,1.848 -2.047,1.471 -6.807,-6.419 -6.034,-10 -13.907,-18.113 -17.571,-18.106 -1.424,0.002 -4.013,1.081 -5.753,2.397 z m -138.568,12.878 c 1.924,1.763 4.255,4.344 5.181,5.735 1.724,2.593 2.321,6.754 0.968,6.754 -1.584,0 -5.331,-4.065 -8.073,-8.761 -4.457,-7.63 -3.776,-8.951 1.924,-3.728 z m -28.487,-17.72 c -3.43,1.348 -6.228,4.402 -8.061,8.799 l -1.395,3.345 -3.877,-3.864 c -5.678,-5.66 -6.755,-3.02 -1.801,4.415 4.219,6.332 6.715,11.573 6.73,14.134 0.019,3.076 4.677,13.716 7.904,18.054 4.012,5.394 9.324,9.463 12.361,9.469 2.856,0.003 7.956,-6.201 7.956,-9.681 0,-2.54 -5.115,-9.632 -6.948,-9.632 -2.008,0 -1.948,3.892 0.103,6.599 1.435,1.895 1.955,3.663 1.546,5.26 -1.352,5.284 -6.179,4.174 -10.91,-2.508 -8.423,-11.899 -11.085,-31.553 -5.051,-37.308 4.741,-4.523 18.194,-1.02 20.197,5.259 0.487,1.527 1.413,4.531 2.058,6.676 1.467,4.881 6.412,11.469 10.648,14.186 2.593,1.662 3.707,1.801 5.651,0.702 2.193,-1.24 2.374,-1.889 1.917,-6.91 -0.577,-6.353 -3.139,-9.67 -10.693,-13.845 -4.707,-2.603 -5.543,-4.258 -3.456,-6.847 1.941,-2.406 5.994,-1.643 10.567,1.991 5.419,4.307 7.185,6.858 8.64,12.481 1.41,5.451 6.417,12.437 10.187,14.215 5.488,2.588 9.931,-5.095 5.865,-10.139 -1.849,-2.293 -3.676,-1.25 -3.046,1.738 0.248,1.18 0.099,2.853 -0.332,3.72 -1.513,3.036 -5.708,-0.847 -8.26,-7.645 -2.688,-7.162 -2.875,-9.154 -1.269,-13.527 1.457,-3.965 4.304,-3.976 10.855,-0.041 7.142,4.287 8.716,6.257 12.453,15.582 3.105,7.749 5.054,10.407 6.403,8.735 0.319,-0.396 -1.233,-5.279 -3.449,-10.852 -2.216,-5.572 -4.029,-11.893 -4.029,-14.045 0,-3.813 0.095,-3.9 3.651,-3.378 2.008,0.293 4.417,0.953 5.354,1.463 2.468,1.345 2.145,-1.367 -0.361,-3.03 -3.743,-2.485 -8.843,-1.688 -11.23,1.754 l -2.167,3.125 -4.823,-3.004 c -6.507,-4.054 -11.755,-3.988 -15.124,0.192 -2.465,3.058 -2.656,3.105 -4.449,1.093 -4.785,-5.371 -14.673,-7.032 -18.099,-3.039 l -2.107,2.456 -5.126,-3.193 c -5.741,-3.577 -10.839,-4.581 -14.983,-2.952 l 0,-0.003 z m 284.042,15.944 c 3.791,5.493 5.567,11.426 4.714,15.745 -1.884,9.538 -9.486,7.012 -14.265,-4.74 -1.876,-4.614 -2.104,-14.383 -0.355,-15.258 3.717,-1.859 6.518,-0.657 9.906,4.253 m -49.088,-21.62 c 0,0.848 0.601,2.614 1.336,3.924 0.734,1.31 2.896,7.543 4.803,13.851 1.908,6.308 4.154,13.49 4.992,15.959 1.92,5.653 1.918,5.675 -0.423,4.916 -2.922,-0.948 -2.364,0.193 1.742,3.564 2.955,2.426 4.755,2.981 9.055,2.794 2.952,-0.13 5.892,-0.636 6.533,-1.127 1.914,-1.467 1.341,-6.112 -1.753,-14.226 -3.524,-9.239 -3.782,-13.087 -0.877,-13.087 2.677,0 8.664,7.479 8.664,10.825 0,7.043 9.615,19.359 15.115,19.359 0.871,0 2.954,-1.701 4.63,-3.779 1.676,-2.078 3.191,-3.242 3.368,-2.586 0.176,0.656 0.932,2.22 1.68,3.477 1.036,1.74 1.633,1.95 2.508,0.88 0.882,-1.078 0.589,-2.923 -1.259,-7.928 -3.454,-9.357 -5.265,-18.732 -3.937,-20.379 2.923,-3.625 11.964,6.699 19.94,22.769 2.72,5.478 5.323,9.96 5.786,9.96 1.114,0 1.062,-0.856 -0.237,-3.865 -0.865,-2.005 -0.658,-3.427 1.047,-7.19 4.765,-10.515 4.327,-15.447 -1.956,-22.003 -3.456,-3.607 -6.283,-4.072 -7.178,-1.181 -1.53,4.942 2.171,8.79 4.19,4.357 0.831,-1.823 1.17,-1.499 2.482,2.376 0.836,2.469 1.52,5.512 1.52,6.762 0,3.023 -1.959,9.878 -2.821,9.878 -0.377,0 -1.618,-2.309 -2.758,-5.131 -6.972,-17.255 -18.181,-26.344 -22.335,-18.11 -0.921,1.826 -1.811,3.552 -1.979,3.835 -0.167,0.281 -1.546,-0.959 -3.063,-2.762 -1.517,-1.802 -4.25,-3.573 -6.074,-3.934 -2.791,-0.554 -3.763,-0.078 -6.133,3.008 l -2.816,3.667 -3.49,-3.568 c -4.095,-4.186 -6.218,-4.462 -8.886,-1.153 -2.715,3.367 -2.439,7.541 1.133,17.152 3.477,9.355 3.042,11.451 -1.896,9.14 -3.377,-1.582 -4.265,-3.474 -10.346,-22.066 -5.696,-17.411 -6.768,-19.892 -8.604,-19.907 -0.937,-0.004 -1.704,0.68 -1.704,1.529 l 10e-4,0 z m 285.325,26.415 c 1.82,0.767 4.975,3.009 7.012,4.982 3.084,2.988 3.654,4.217 3.407,7.357 -0.246,3.13 -0.762,3.838 -3.035,4.161 -3.775,0.537 -6.883,-2.318 -9.318,-8.556 -1.823,-4.67 -2.681,-9.34 -1.717,-9.34 0.188,0 1.831,0.628 3.651,1.396 z m -98.418,-30.01 c 0,0.863 0.39,2.085 0.868,2.716 0.756,0.997 3.695,9.693 10.912,32.278 l 1.846,5.777 -2.029,-1.347 c -2.955,-1.961 -3.622,-0.244 -0.831,2.14 1.307,1.116 3.47,3.458 4.809,5.205 2.121,2.768 3.179,3.163 8.235,3.075 5.16,-0.089 5.955,-0.441 7.195,-3.175 1.271,-2.805 1.118,-3.999 -1.748,-13.649 -3.619,-12.184 -3.488,-14.754 0.635,-12.515 6.23,3.385 7.863,5.794 12.082,17.823 3.067,8.743 4.687,12.019 5.944,12.019 2.372,0 2.269,-0.685 -2.215,-14.644 -4.135,-12.873 -4.072,-15.299 0.344,-13.216 3.155,1.488 14.468,15.763 18.018,22.736 1.694,3.327 3.111,4.905 4.021,4.475 0.773,-0.362 3.475,-0.003 6.005,0.799 9.038,2.874 12.256,-4.304 7.205,-16.072 -3.012,-7.017 -3.533,-12.837 -1.31,-14.628 2.746,-2.213 9.334,4.337 10.547,10.488 2.457,12.451 8.068,20.061 14.791,20.061 5.698,0 8.269,-7.04 5.231,-14.326 -1.647,-3.95 -7.367,-8.989 -12.479,-10.992 -4.163,-1.631 -4.417,-2.424 -1.743,-5.426 2.447,-2.747 7.027,-1.792 14.824,3.09 5.84,3.656 7.296,3.087 3.467,-1.355 -6.283,-7.292 -15.203,-10.384 -19.613,-6.8 -1.312,1.066 -2.67,3.049 -3.017,4.406 l -0.631,2.466 -2.793,-2.467 c -1.537,-1.357 -4.319,-3.258 -6.185,-4.224 -3.319,-1.72 -3.445,-1.679 -5.897,1.936 -3.344,4.929 -3.23,10.251 0.414,19.204 4.754,11.682 3.782,13.792 -4.199,9.109 -4.999,-2.933 -5.346,-3.448 -7.964,-11.823 -1.506,-4.816 -4.861,-14.325 -7.456,-21.131 -3.668,-9.618 -5.153,-12.376 -6.666,-12.376 -1.117,0 -1.946,0.805 -1.946,1.89 0,2.005 1.782,6.757 2.914,7.769 1.015,0.908 7.676,20.529 6.957,20.494 -0.342,0 -2.731,-2.698 -5.308,-5.958 -5.354,-6.772 -9.283,-8.48 -12.848,-5.584 -2.196,1.785 -2.592,1.75 -5.558,-0.492 -5.898,-4.461 -13.414,-2.371 -13.414,3.73 0,1.297 1.533,6.135 3.407,10.75 3.531,8.696 4.289,13.814 2.191,14.803 -1.812,0.855 -4.85,-0.892 -7.143,-4.107 -1.867,-2.615 -7.955,-19.239 -9.668,-26.392 -1.838,-7.683 -6.682,-18.11 -8.411,-18.11 -0.986,0 -1.792,0.706 -1.792,1.569 l 0.002,0.001 z"
             id="path4507"
             style="fill:#3e3221;fill-opacity:1;fill-rule:nonzero;stroke:none" /><path
             d="m 206.4304,392.911 c 0,8.331 -2.666,15.376 -7.998,21.135 -5.332,5.881 -11.72,8.821 -19.162,8.821 -7.443,0 -13.831,-2.94 -19.163,-8.821 -5.332,-5.759 -7.998,-12.804 -7.998,-21.135 0,-8.209 2.666,-15.254 7.998,-21.135 5.332,-5.758 11.72,-8.638 19.163,-8.638 7.442,0 13.83,2.88 19.162,8.638 5.332,5.881 7.998,12.926 7.998,21.135 m 21.162,0 c 0,-14.703 -4.722,-27.261 -14.164,-37.675 -9.442,-10.292 -20.828,-15.438 -34.158,-15.438 -13.331,0 -24.717,5.207 -34.159,15.622 -9.442,10.414 -14.163,22.911 -14.163,37.491 0,14.702 4.721,27.261 14.163,37.675 9.442,10.414 20.828,15.621 34.159,15.621 13.33,0 24.716,-5.207 34.158,-15.621 9.442,-10.292 14.164,-22.85 14.164,-37.675 m -3,79.21 -125.97,-45.027 c -3.111,-1.103 -5.388,-1.654 -6.832,-1.654 -2.555,0 -4.832,1.164 -6.832,3.492 -1.999,2.328 -2.999,5.268 -2.999,8.822 0,2.572 0.778,4.9 2.333,6.983 1.111,1.593 3.721,3.124 7.831,4.595 l 125.971,45.026 c 3.11,1.103 5.387,1.654 6.832,1.654 2.666,0 4.943,-1.225 6.831,-3.676 2,-2.328 3,-5.146 3,-8.453 0,-2.696 -0.778,-5.085 -2.333,-7.168 -1.111,-1.593 -3.722,-3.124 -7.832,-4.594 m -61.319,56.053 c 0,8.331 -2.666,15.376 -7.998,21.135 -5.332,5.88 -11.719,8.821 -19.162,8.821 -7.554,0 -13.997,-2.941 -19.329,-8.821 -5.221,-5.759 -7.831,-12.804 -7.831,-21.135 0,-8.209 2.666,-15.254 7.998,-21.135 5.332,-5.881 11.719,-8.822 19.162,-8.822 7.443,0 13.83,2.941 19.162,8.822 5.332,5.881 7.998,12.926 7.998,21.135 m 20.996,0 c -10e-4,-14.703 -4.722,-27.261 -14.164,-37.675 -9.331,-10.292 -20.662,-15.438 -33.992,-15.438 -13.33,0 -24.716,5.146 -34.159,15.438 -9.442,10.414 -14.163,22.972 -14.163,37.675 0,14.702 4.721,27.26 14.163,37.675 9.443,10.414 20.829,15.621 34.159,15.621 13.33,0 24.661,-5.207 33.992,-15.621 9.442,-10.292 14.163,-22.85 14.164,-37.675"
             id="path4509"
             style="fill:#3e3221;fill-opacity:1;fill-rule:nonzero;stroke:none" /><path
             d="m 398.7189,452.6398 -110.641,67.631 c -5.554,3.431 -9.276,6.494 -11.164,9.189 -1.777,2.696 -2.666,6.126 -2.666,10.292 0,5.268 1.722,9.802 5.165,13.6 3.444,3.798 7.499,5.697 12.164,5.697 2.888,0 7.332,-1.777 13.331,-5.329 l 164.794,-101.08 -164.794,-101.079 c -5.999,-3.676 -10.443,-5.514 -13.331,-5.514 -4.665,0 -8.72,1.899 -12.164,5.697 -3.443,3.798 -5.165,8.393 -5.165,13.784 0,4.166 0.889,7.596 2.666,10.292 1.888,2.695 5.61,5.758 11.164,9.189 l 110.641,67.631"
             id="path4511"
             style="fill:#3e3221;fill-opacity:1;fill-rule:nonzero;stroke:none" /><path
             d="m 615.6685,392.911 c 0,8.331 -2.666,15.376 -7.998,21.135 -5.332,5.881 -11.72,8.821 -19.162,8.821 -7.443,0 -13.831,-2.94 -19.163,-8.821 -5.332,-5.759 -7.998,-12.804 -7.998,-21.135 0,-8.209 2.666,-15.254 7.998,-21.135 5.332,-5.758 11.72,-8.638 19.163,-8.638 7.442,0 13.83,2.88 19.162,8.638 5.332,5.881 7.998,12.926 7.998,21.135 m 21.162,0 c -10e-4,-14.703 -4.722,-27.261 -14.164,-37.675 -9.442,-10.292 -20.828,-15.438 -34.158,-15.438 -13.331,0 -24.717,5.207 -34.159,15.622 -9.442,10.414 -14.163,22.911 -14.163,37.491 -10e-4,14.702 4.721,27.261 14.163,37.675 9.442,10.414 20.828,15.621 34.159,15.621 13.33,0 24.716,-5.207 34.158,-15.621 9.442,-10.292 14.163,-22.85 14.164,-37.675 m -3,79.21 -125.97,-45.027 c -3.111,-1.103 -5.388,-1.654 -6.832,-1.654 -2.555,0 -4.832,1.164 -6.832,3.492 -1.999,2.328 -2.999,5.268 -2.999,8.822 0,2.572 0.777,4.9 2.333,6.983 1.111,1.593 3.721,3.124 7.831,4.595 l 125.971,45.026 c 3.11,1.103 5.387,1.654 6.832,1.654 2.665,0 4.943,-1.225 6.831,-3.676 2,-2.328 3,-5.146 3,-8.453 0,-2.696 -0.778,-5.085 -2.333,-7.168 -1.111,-1.593 -3.722,-3.124 -7.832,-4.594 m -61.319,56.053 c 0,8.331 -2.666,15.376 -7.998,21.135 -5.332,5.88 -11.719,8.821 -19.162,8.821 -7.554,0 -13.997,-2.941 -19.329,-8.821 -5.221,-5.759 -7.831,-12.804 -7.831,-21.135 0,-8.209 2.666,-15.254 7.998,-21.135 5.332,-5.881 11.719,-8.822 19.162,-8.822 7.443,0 13.83,2.941 19.162,8.822 5.332,5.881 7.998,12.926 7.998,21.135 m 20.996,0 c -0.001,-14.703 -4.722,-27.261 -14.164,-37.675 -9.331,-10.292 -20.662,-15.438 -33.992,-15.438 -13.33,0 -24.717,5.146 -34.159,15.438 -9.442,10.414 -14.163,22.972 -14.163,37.675 0,14.702 4.721,27.26 14.163,37.675 9.442,10.414 20.829,15.621 34.159,15.621 13.33,0 24.661,-5.207 33.992,-15.621 9.442,-10.292 14.163,-22.85 14.164,-37.675"
             id="path4513"
             style="fill:#3e3221;fill-opacity:1;fill-rule:nonzero;stroke:none" /></g></g></g></g></svg>