<?xml version="1.0" encoding="UTF-8" standalone="no"?>
<!-- Created with Inkscape (http://www.inkscape.org/) -->

<svg
   xmlns:dc="http://purl.org/dc/elements/1.1/"
   xmlns:cc="http://creativecommons.org/ns#"
   xmlns:rdf="http://www.w3.org/1999/02/22-rdf-syntax-ns#"
   xmlns:svg="http://www.w3.org/2000/svg"
   xmlns="http://www.w3.org/2000/svg"
   version="1.1"
   width="918.75"
   height="1065"
   id="svg3940"
   xml:space="preserve"><metadata
     id="metadata3946"><rdf:RDF><cc:Work
         rdf:about=""><dc:format>image/svg+xml</dc:format><dc:type
           rdf:resource="http://purl.org/dc/dcmitype/StillImage" /><dc:title></dc:title></cc:Work></rdf:RDF></metadata><defs
     id="defs3944"><clipPath
       id="clipPath3956"><path
         d="M 0,852 735,852 735,0 0,0 0,852 z"
         id="path3958" /></clipPath><clipPath
       id="clipPath3962"><path
         d="M 0,0 735,0 735,852 0,852 0,0 z"
         id="path3964" /></clipPath><clipPath
       id="clipPath3972"><path
         d="m 2.794,637.895 0,-422.155 366.714,-208.406 358.698,208.406 0,422.155 L 369.508,844.965 2.794,637.895 z"
         id="path3974" /></clipPath><clipPath
       id="clipPath3978"><path
         d="M 0,0 735,0 735,852 0,852 0,0 z"
         id="path3980" /></clipPath><clipPath
       id="clipPath3988"><path
         d="m 2.794,637.895 0,-422.155 366.714,-208.406 358.698,208.406 0,422.155 L 369.508,844.965 2.794,637.895 z"
         id="path3990" /></clipPath><clipPath
       id="clipPath3994"><path
         d="M 0,0 735,0 735,852 0,852 0,0 z"
         id="path3996" /></clipPath><clipPath
       id="clipPath4000"><path
         d="m 51,511 632,0 0,334 -632,0 0,-334 z"
         id="path4002" /></clipPath><clipPath
       id="clipPath4004"><path
         d="m 682.134,746.559 c 0,-129.583 -141.137,-234.635 -315.241,-234.635 -174.104,0 -315.245,105.052 -315.245,234.635 0,129.579 141.141,234.63 315.245,234.63 174.104,0 315.241,-105.051 315.241,-234.63"
         id="path4006" /></clipPath><clipPath
       id="clipPath4008"><path
         d="m 51.6477,511.924 630.4863,0 0,333.076 -630.4863,0 0,-333.076 z"
         id="path4010" /></clipPath><clipPath
       id="clipPath4012"><path
         d="m -32768,-32768 65535,0 0,65535 -65535,0 0,-65535 z"
         id="path4014" /></clipPath><linearGradient
       x1="0"
       y1="0"
       x2="1"
       y2="0"
       id="linearGradient4016"
       gradientUnits="userSpaceOnUse"
       gradientTransform="matrix(1.298455,-463.5253,-463.5253,-1.298455,366.2517,974.7546)"
       spreadMethod="pad"><stop
         id="stop4018"
         style="stop-color:#ffffff;stop-opacity:0.83138782"
         offset="0" /><stop
         id="stop4020"
         style="stop-color:#ffffff;stop-opacity:0"
         offset="1" /></linearGradient><mask
       id="mask4022"><g
         id="g4024"><g
           clip-path="url(#clipPath4012)"
           id="g4026"><g
             id="g4028" /><g
             id="g4030"><g
               id="g4032"><path
                 d="m -32768,-32768 65535,0 0,65535 -65535,0 0,-65535 z"
                 id="path4034"
                 style="fill:url(#linearGradient4016);stroke:none" /></g></g></g></g></mask><linearGradient
       x1="0"
       y1="0"
       x2="1"
       y2="0"
       id="linearGradient4036"
       gradientUnits="userSpaceOnUse"
       gradientTransform="matrix(1.298455,-463.5253,-463.5253,-1.298455,366.2517,974.7546)"
       spreadMethod="pad"><stop
         id="stop4038"
         style="stop-color:#ffffff;stop-opacity:1"
         offset="0" /><stop
         id="stop4040"
         style="stop-color:#ffffff;stop-opacity:1"
         offset="1" /></linearGradient><clipPath
       id="clipPath4066"><path
         d="M 0,852 735,852 735,0 0,0 0,852 z"
         id="path4068" /></clipPath><clipPath
       id="clipPath4072"><path
         d="M 0,0 735,0 735,852 0,852 0,0 z"
         id="path4074" /></clipPath><clipPath
       id="clipPath4126"><path
         d="M 0,0 735,0 735,852 0,852 0,0 z"
         id="path4128" /></clipPath><clipPath
       id="clipPath4142"><path
         d="M 0,852 735,852 735,0 0,0 0,852 z"
         id="path4144" /></clipPath><clipPath
       id="clipPath4148"><path
         d="M 0,0 735,0 735,852 0,852 0,0 z"
         id="path4150" /></clipPath></defs><g
     transform="matrix(1.25,0,0,-1.25,0,1065)"
     id="g3948"><g
       id="g3950" /><g
       id="g3952"><g
         clip-path="url(#clipPath3956)"
         id="g3954"><g
           clip-path="url(#clipPath3962)"
           id="g3960"><path
             d="m 168.0764,179.3898 c 0.287,0.285 0.605,0.588 0.933,0.888 l -0.255,0 c -0.225,-0.3 -0.451,-0.599 -0.678,-0.888"
             id="path3966"
             style="fill:#e6b35a;fill-opacity:1;fill-rule:nonzero;stroke:none" /></g></g></g><g
       id="g3968"><g
         clip-path="url(#clipPath3972)"
         id="g3970"><g
           clip-path="url(#clipPath3978)"
           id="g3976"><path
             d="m 807.6289,414.9123 c 0,-244.182 -197.947,-442.132 -442.129,-442.132 -244.182,0 -442.129,197.95 -442.129,442.132 0,244.182 197.947,442.129 442.129,442.129 244.182,0 442.129,-197.947 442.129,-442.129"
             id="path3982"
             style="fill:#f39018;fill-opacity:1;fill-rule:nonzero;stroke:none" /></g></g></g><g
       id="g3984"><g
         clip-path="url(#clipPath3988)"
         id="g3986"><g
           clip-path="url(#clipPath3994)"
           id="g3992"><g
             id="g3998" /><g
             id="g4042"><g
               clip-path="url(#clipPath4000)"
               id="g4044"
               style="opacity:0.25"><g
                 id="g4046" /><g
                 id="g4048"><g
                   clip-path="url(#clipPath4004)"
                   id="g4050"><g
                     clip-path="url(#clipPath4008)"
                     id="g4052"><g
                       id="g4054" /><g
                       mask="url(#mask4022)"
                       id="g4056"><g
                         id="g4058"><path
                           d="m 51.6477,511.924 630.4863,0 0,333.076 -630.4863,0 0,-333.076 z"
                           id="path4060"
                           style="fill:url(#linearGradient4036);stroke:none" /></g></g></g></g></g></g></g></g></g></g><g
       id="g4062"><g
         clip-path="url(#clipPath4066)"
         id="g4064"><g
           clip-path="url(#clipPath4072)"
           id="g4070"><path
             d="m 705.6138,230.8931 -338.124,-195.216 -338.121,195.216 0,390.431 338.121,195.215 0,0 338.124,-195.215 0,-390.431 z m 0,425.258 -277.803,160.388 -60.313,34.821 -60.312,-34.821 -277.817,-160.398 -29.283,-16.907 0,-424.254 29.283,-16.906 281.277,-162.397 56.852,-32.824 56.853,32.824 281.263,162.387 29.3,16.916 0,424.254 -29.3,16.917 z"
             id="path4076"
             style="fill:#bc7115;fill-opacity:1;fill-rule:nonzero;stroke:none" /><path
             d="m 367.0334,248.1245 c 0.287,0.285 0.605,0.588 0.933,0.888 l -0.255,0 c -0.225,-0.3 -0.451,-0.599 -0.678,-0.888"
             id="path4078"
             style="fill:#e6b35a;fill-opacity:1;fill-rule:nonzero;stroke:none" /><path
             d="m 342.407,275.4007 c 15.799,0 31.599,-10e-4 47.398,-10e-4 0.32,-0.198 0.229,-0.52 0.23,-0.803 0.004,-5.339 0.004,-10.678 0.003,-16.018 0,-0.248 0.006,-0.495 -0.172,-0.698 l 0.023,0.022 c -0.348,-0.28 -0.76,-0.166 -1.145,-0.167 -15.09,-0.005 -30.18,-0.005 -45.27,0 -0.385,0 -0.797,-0.112 -1.146,0.165 l 0.022,-0.021 c -0.026,0.042 -0.071,0.084 -0.073,0.128 -0.205,5.725 -0.069,11.451 -0.065,17.177 0,0.073 0.126,0.144 0.195,0.216"
             id="path4080"
             style="fill:#b05d14;fill-opacity:1;fill-rule:nonzero;stroke:none" /><path
             d="m 440.4022,278.3986 c -4.548,0.009 -9.095,0.027 -13.643,0.026 -11.172,-0.003 -22.344,-0.013 -33.516,-0.021 -0.302,0.208 -0.219,0.527 -0.219,0.811 -0.004,5.335 -0.004,10.669 -0.003,16.003 0,0.248 -0.004,0.494 0.138,0.714 l 0.006,0.006 c 0.416,0.238 0.871,0.133 1.308,0.133 14.987,0.006 29.975,0.006 44.962,-0.001 0.433,0 0.894,0.129 1.296,-0.16 l -0.018,0.018 c 0.065,-0.13 0.158,-0.241 0.159,-0.404 0.014,-5.475 0.012,-10.949 0,-16.423 0,-0.16 -0.082,-0.279 -0.14,-0.413 l 0.002,0.003 c -0.102,-0.107 -0.212,-0.205 -0.332,-0.292"
             id="path4082"
             style="fill:#de7519;fill-opacity:1;fill-rule:nonzero;stroke:none" /><path
             d="m 338.9734,278.404 c -15.72,-0.002 -31.439,-0.004 -47.159,-0.006 -0.118,0.087 -0.227,0.186 -0.332,0.287 l -0.002,0.002 c -0.294,0.714 -0.13,1.461 -0.133,2.191 -0.018,4.536 -0.014,9.073 -0.002,13.609 0.002,0.481 -0.142,0.988 0.155,1.442 l -0.015,-0.015 c 0.405,0.281 0.865,0.156 1.298,0.156 14.988,0.007 29.976,0.007 44.964,0.001 0.436,-0.001 0.893,0.11 1.306,-0.14 l -0.001,0 c 0.274,-0.513 0.136,-1.067 0.138,-1.6 0.012,-4.841 0.014,-9.683 -0.004,-14.524 -0.002,-0.466 0.212,-0.991 -0.213,-1.403"
             id="path4084"
             style="fill:#de7519;fill-opacity:1;fill-rule:nonzero;stroke:none" /><path
             d="m 389.5754,278.3969 c -3.317,0.01 -6.634,0.027 -9.952,0.028 -11.685,0.003 -23.37,0.001 -35.055,0 -0.644,0 -1.287,-0.019 -1.931,-0.03 -0.426,0.21 -0.46,0.59 -0.46,1.003 0.009,5.374 -0.009,10.748 0.009,16.122 0,0.16 0.084,0.278 0.145,0.411 l -0.007,-0.007 c 0.41,0.263 0.868,0.146 1.303,0.146 14.988,0.007 29.976,0.007 44.964,0 0.435,0 0.893,0.12 1.301,-0.15 l -0.01,0.01 c 0.271,-0.406 0.149,-0.863 0.15,-1.296 0.009,-4.883 0.012,-9.765 -0.003,-14.647 -0.002,-0.555 0.239,-1.217 -0.454,-1.59"
             id="path4086"
             style="fill:#de7519;fill-opacity:1;fill-rule:nonzero;stroke:none" /><path
             d="m 393.2374,257.9083 c -0.173,1.127 -0.073,2.262 -0.077,3.393 -0.014,4.138 -0.009,8.276 -10e-4,12.414 10e-4,0.577 -0.148,1.197 0.342,1.679 0.445,0.45 1.02,0.312 1.547,0.312 14.598,0.009 29.195,0.009 43.792,0 0.527,0 1.104,0.141 1.541,-0.325 0.359,-0.413 0.305,-0.915 0.305,-1.408 -10e-4,-4.888 0,-9.776 0.001,-14.664 0,-0.493 0.039,-0.992 -0.268,-1.427 -0.454,-0.431 -1.026,-0.296 -1.555,-0.297 -14.693,-0.008 -29.387,-0.008 -44.08,-0.001 -0.531,0.001 -1.103,-0.121 -1.547,0.324"
             id="path4088"
             style="fill:#ffffff;fill-opacity:1;fill-rule:nonzero;stroke:none" /><path
             d="m 291.4854,274.5249 c 0.025,0.323 0.141,0.609 0.348,0.858 0.438,0.464 1.015,0.323 1.541,0.323 14.596,0.009 29.191,0.009 43.787,0 0.528,0 1.102,0.138 1.549,-0.309 0.292,-0.307 0.349,-0.678 0.348,-1.089 -0.015,-5.366 -0.021,-10.732 -0.031,-16.099 0,-0.097 -0.032,-0.194 -0.049,-0.291 -0.439,-0.458 -1.014,-0.333 -1.544,-0.333 -14.766,-0.008 -29.532,-0.01 -44.298,-10e-4 -1.71,10e-4 -1.938,0.217 -1.944,1.845 -0.016,4.558 -0.008,9.117 -0.003,13.675 0.001,0.491 -0.058,1.001 0.296,1.421"
             id="path4090"
             style="fill:#ffffff;fill-opacity:1;fill-rule:nonzero;stroke:none" /><path
             d="m 292.6759,213.5578 c 0.594,-0.012 1.188,-0.034 1.782,-0.034 13.873,-0.002 27.747,-0.002 41.62,0 0.594,0 1.188,0.023 1.782,0.035 0.101,0.12 0.203,0.114 0.305,0.001 0.193,0.001 0.386,0.002 0.578,0.002 l -0.003,0.004 c 0.359,-0.414 0.315,-0.915 0.315,-1.411 -0.002,-4.852 0.004,-9.705 -0.003,-14.557 -0.003,-1.46 -0.039,-1.498 -1.506,-1.498 -14.607,-0.005 -29.215,-0.002 -43.822,-0.006 -0.639,0 -1.28,0.154 -1.919,-0.01 -0.718,0.303 -0.61,0.952 -0.612,1.529 -0.012,4.806 -0.012,9.612 10e-4,14.417 0.002,0.571 -0.141,1.234 0.614,1.514 0.187,0.006 0.375,0.012 0.563,0.018 0.103,0.114 0.205,0.113 0.305,-0.004"
             id="path4092"
             style="fill:#ffffff;fill-opacity:1;fill-rule:nonzero;stroke:none" /><path
             d="m 393.4668,213.561 c 0.346,-0.013 0.692,-0.037 1.039,-0.037 14.955,-0.002 29.911,-0.002 44.867,-0.001 0.347,0 0.693,0.017 1.039,0.026 l -0.001,0 c 0.379,-0.529 0.272,-1.137 0.273,-1.723 0.011,-5.142 0.016,-10.284 0.023,-15.426 -0.051,-0.182 -0.15,-0.332 -0.297,-0.451 -0.183,-0.05 -0.366,-0.055 -0.552,-0.018 -6.523,-0.096 -13.047,-0.027 -19.57,-0.038 -8.006,-0.014 -16.013,0 -24.02,-0.008 -0.94,-0.001 -1.874,0.027 -2.803,0.173 l 0.017,-0.01 c -0.608,0.332 -0.72,0.905 -0.722,1.519 -0.02,4.893 -0.022,9.787 -10e-4,14.68 0.002,0.404 0.114,0.779 0.274,1.145 0.078,0.226 0.223,0.283 0.434,0.169"
             id="path4094"
             style="fill:#ffffff;fill-opacity:1;fill-rule:nonzero;stroke:none" /><path
             d="m 291.5238,254.5341 c 0.492,0.029 0.984,0.083 1.476,0.083 14.785,0.004 29.571,0.004 44.356,0.004 0.148,0 0.296,0.002 0.445,-0.001 1.225,-0.024 1.246,-0.025 1.249,-1.229 0.01,-4.203 0.007,-8.406 0.004,-12.609 -0.001,-1.137 -0.019,-2.274 -0.029,-3.411 -0.523,-0.508 -1.192,-0.425 -1.827,-0.425 -14.612,-0.008 -29.223,-0.01 -43.835,0 -2.042,0.001 -2.173,0.154 -2.175,2.224 -0.004,4.557 -0.008,9.114 0.006,13.671 10e-4,0.576 -0.157,1.203 0.33,1.693"
             id="path4096"
             style="fill:#ffffff;fill-opacity:1;fill-rule:nonzero;stroke:none" /><path
             d="m 393.171,254.5934 c 0.495,0.009 0.99,0.026 1.484,0.026 14.459,0.002 28.917,10e-4 43.375,0.002 0.396,0 0.792,0.002 1.188,-0.001 1.456,-0.01 1.465,-0.01 1.467,-1.467 0.004,-4.803 0.005,-9.606 -10e-4,-14.409 -0.002,-1.382 -0.015,-1.393 -1.389,-1.393 -14.903,-0.003 -29.807,-0.003 -44.711,0 -1.409,0 -1.426,0.011 -1.426,1.354 0,5.297 0.011,10.595 0.018,15.893 l -0.005,-0.005 z"
             id="path4098"
             style="fill:#ffffff;fill-opacity:1;fill-rule:nonzero;stroke:none" /><path
             d="m 339.0152,175.5523 c -15.371,-0.004 -30.742,-0.008 -46.113,-0.013 -0.492,-0.001 -0.997,-0.061 -1.4,0.322 -0.379,0.348 -0.309,0.815 -0.31,1.251 -0.01,4.749 -0.009,9.497 -0.001,14.245 0.001,0.485 -0.083,1.006 0.364,1.379 0.395,0.019 0.789,0.054 1.184,0.054 15.09,0.003 30.179,0.003 45.269,0.001 0.345,0 0.691,-0.028 1.036,-0.043 l -0.005,0.006 c -0.007,-5.733 -0.013,-11.465 -0.02,-17.198 l -0.004,-0.004 z"
             id="path4100"
             style="fill:#ffffff;fill-opacity:1;fill-rule:nonzero;stroke:none" /><path
             d="m 338.9824,234.0499 c 0.024,-1.874 0.067,-3.748 0.069,-5.622 0.002,-3.85 -0.018,-7.7 -0.028,-11.549 -0.076,-0.063 -0.152,-0.126 -0.227,-0.188 -0.475,-0.2 -0.976,-0.138 -1.467,-0.139 -14.702,-0.004 -29.403,-0.003 -44.104,0 -0.493,0 -0.991,-0.046 -1.475,0.102 -0.618,0.303 -0.557,0.881 -0.558,1.418 -0.01,4.848 -0.017,9.695 0.002,14.543 0.006,1.503 0.287,1.76 1.876,1.766 4.402,0.015 8.805,0.005 13.207,0.005 10.239,0.001 20.478,0.005 30.717,-0.009 0.669,-0.001 1.397,0.211 1.988,-0.327"
             id="path4102"
             style="fill:#ffffff;fill-opacity:1;fill-rule:nonzero;stroke:none" /><path
             d="m 440.6998,192.6731 c -0.004,-5.048 -0.009,-10.097 -0.013,-15.145 0,-0.347 -0.008,-0.693 -0.004,-1.04 0.007,-0.685 -0.325,-1 -1.01,-0.949 -0.148,0.011 -0.297,0 -0.446,0 -15.343,0.004 -30.686,0.007 -46.03,0.011 l -10e-4,0.001 c -0.008,5.736 -0.016,11.472 -0.024,17.208 0.077,0.061 0.154,0.123 0.231,0.184 0.48,0.164 0.978,0.113 1.47,0.114 14.672,0.003 29.345,0.005 44.018,-0.007 0.615,-10e-4 1.304,0.209 1.809,-0.377"
             id="path4104"
             style="fill:#ffffff;fill-opacity:1;fill-rule:nonzero;stroke:none" /><path
             d="m 339.0513,155.019 c -0.395,-0.015 -0.79,-0.043 -1.185,-0.043 -14.992,-0.003 -29.983,-0.003 -44.975,0 -0.444,0 -0.888,0.036 -1.332,0.055 -0.407,0.324 -0.367,0.787 -0.368,1.229 -0.008,4.85 -0.009,9.701 10e-4,14.551 0.001,0.392 -0.03,0.802 0.304,1.107 0.412,0.365 0.916,0.307 1.408,0.307 15.372,-0.004 30.745,-0.008 46.117,-0.011 l -0.004,-0.004 c 0.008,-5.731 0.016,-11.462 0.023,-17.193 l 0.011,0.002 z"
             id="path4106"
             style="fill:#ffffff;fill-opacity:1;fill-rule:nonzero;stroke:none" /><path
             d="m 393.1908,172.2156 c 15.351,0.003 30.702,0.008 46.052,0.007 1.394,-0.001 1.437,-0.038 1.44,-1.402 0.01,-4.852 0.009,-9.705 -10e-4,-14.558 -0.003,-1.273 -0.026,-1.287 -1.359,-1.287 -14.955,-0.004 -29.909,-0.004 -44.864,0.001 -1.266,0 -1.298,0.019 -1.298,1.196 0.001,5.347 0.022,10.695 0.036,16.042 l -0.006,0.001 z"
             id="path4108"
             style="fill:#ffffff;fill-opacity:1;fill-rule:nonzero;stroke:none" /><path
             d="m 393.1962,216.8617 c -0.046,5.733 -0.115,11.465 0.036,17.198 0.447,0.441 1.019,0.321 1.55,0.321 14.751,0.007 29.503,0.009 44.255,0.001 1.785,-0.001 1.986,-0.2 1.99,-1.947 0.011,-4.654 0.012,-9.307 0,-13.96 -0.005,-1.685 -0.223,-1.918 -1.868,-1.92 -14.851,-0.01 -29.702,-0.007 -44.553,-0.001 -0.487,0 -1.001,-0.072 -1.41,0.308"
             id="path4110"
             style="fill:#ffffff;fill-opacity:1;fill-rule:nonzero;stroke:none" /><path
             d="m 366.0382,175.3175 c -7.128,0 -14.256,0 -21.385,0 -0.346,0 -0.693,-0.007 -1.039,0.002 -1.272,0.031 -1.329,0.067 -1.332,1.365 -0.01,5 -0.01,9.999 0,14.999 0.002,1.216 0.071,1.277 1.241,1.302 0.99,0.022 1.98,0.006 2.97,0.006 13.712,0 27.424,0 41.136,-0.001 0.396,0 0.793,0.015 1.188,-0.005 0.998,-0.048 1.098,-0.122 1.106,-1.137 0.021,-2.425 0.006,-4.851 0.006,-7.276 0,-2.426 0.001,-4.851 0,-7.277 -10e-4,-1.975 -10e-4,-1.977 -1.912,-1.977 -7.327,-0.002 -14.653,-0.001 -21.979,-0.001"
             id="path4112"
             style="fill:#64350b;fill-opacity:1;fill-rule:nonzero;stroke:none" /><path
             d="m 389.8891,254.5997 c 0.002,-5.746 0.003,-11.492 0.005,-17.239 -0.544,-0.015 -1.088,-0.043 -1.631,-0.043 -14.698,-0.003 -29.396,-0.003 -44.094,-0.002 -2.018,0.001 -1.85,-0.142 -1.852,1.831 -0.003,4.552 -10e-4,9.105 -10e-4,13.658 0,0.347 0.013,0.693 0.002,1.039 -0.017,0.563 0.252,0.816 0.806,0.794 0.198,-0.008 0.396,0.001 0.594,0.001 15.143,0 30.287,0.001 45.43,-0.001 0.247,0 0.494,-0.025 0.741,-0.038"
             id="path4114"
             style="fill:#b05d14;fill-opacity:1;fill-rule:nonzero;stroke:none" /><path
             d="m 389.8398,154.7617 c -1.384,-0.01 -2.769,-0.028 -4.153,-0.028 -13.846,-0.002 -27.692,-0.002 -41.537,0 -0.594,0 -1.187,0.013 -1.78,0.02 -0.188,1.431 -0.079,2.869 -0.085,4.303 -0.017,3.962 -0.011,7.924 -0.003,11.887 0.003,1.326 0.018,1.346 1.308,1.347 15.006,0.004 30.012,0.004 45.019,0 1.26,-10e-4 1.311,-0.026 1.314,-1.042 0.011,-5.3 -10e-4,-10.599 -0.009,-15.898 0,-0.196 -0.048,-0.393 -0.074,-0.589"
             id="path4116"
             style="fill:#64350b;fill-opacity:1;fill-rule:nonzero;stroke:none" /><path
             d="m 342.4031,216.6301 c -0.038,0.391 -0.109,0.782 -0.109,1.173 -0.009,5.175 -0.008,10.35 -0.005,15.525 0,0.245 0.039,0.491 0.06,0.736 0.297,0.011 0.593,0.033 0.89,0.033 15.245,0.002 30.489,0.003 45.734,0.002 0.297,0 0.593,-0.027 0.889,-0.041 0.016,-5.448 0.041,-10.897 0.041,-16.345 0,-0.991 -0.113,-1.055 -1.135,-1.1 -0.197,-0.008 -0.396,-0.001 -0.594,-0.001 -15.059,-0.002 -30.118,-0.003 -45.177,-0.003 -0.198,0 -0.396,0.014 -0.594,0.021"
             id="path4118"
             style="fill:#82450f;fill-opacity:1;fill-rule:nonzero;stroke:none" /><path
             d="m 389.8531,213.5337 c 0.02,-3.552 0.051,-7.103 0.055,-10.655 0.003,-2.269 -0.034,-4.538 -0.053,-6.807 -0.445,-0.018 -0.889,-0.052 -1.334,-0.052 -14.944,-0.003 -29.889,-0.002 -44.833,0 -0.445,0 -0.89,0.028 -1.335,0.044 -0.021,4.443 -0.05,8.887 -0.061,13.331 -0.003,1.381 0.044,2.762 0.068,4.143 1.88,0.01 3.76,0.029 5.639,0.029 13.457,0.002 26.914,0.002 40.371,0 0.494,0 0.989,-0.022 1.483,-0.033"
             id="path4120"
             style="fill:#82450f;fill-opacity:1;fill-rule:nonzero;stroke:none" /></g></g></g><g
       id="g4122"><g
         clip-path="url(#clipPath4126)"
         id="g4124"><text
           transform="matrix(0.94339618,0,0,-1,216.9336,375.3545)"
           id="text4130"><tspan
             x="0"
             y="0"
             id="tspan4132"
             style="font-size:177.76539612px;font-variant:normal;font-weight:normal;writing-mode:lr-tb;fill:#ffffff;fill-opacity:1;fill-rule:nonzero;stroke:none;font-family:Myriad Pro;-inkscape-font-specification:MyriadPro-Regular">t</tspan></text>
<text
           transform="matrix(0.94339618,0,0,-1,267.0769,375.3545)"
           id="text4134"><tspan
             x="0 35.908611 130.4798 208.51881"
             y="0"
             id="tspan4136"
             style="font-size:177.76539612px;font-variant:normal;font-weight:normal;writing-mode:lr-tb;fill:#ffffff;fill-opacity:1;fill-rule:nonzero;stroke:none;font-family:Myriad Pro;-inkscape-font-specification:MyriadPro-Regular">idyr</tspan></text>
</g></g><g
       id="g4138"><g
         clip-path="url(#clipPath4142)"
         id="g4140"><g
           clip-path="url(#clipPath4148)"
           id="g4146"><path
             d="m 314.1241,618.7512 -0.522,-0.037 c -0.422,-0.211 -0.875,-0.118 -1.314,-0.118 -14.684,-0.005 -29.368,-0.005 -44.052,0.001 -0.435,0 -0.893,-0.116 -1.302,0.147 l 0.007,-0.006 c -0.112,0.101 -0.211,0.213 -0.295,0.337 0,5.621 0,11.242 0,16.863 0.083,0.128 0.19,0.234 0.302,0.336 15.725,-0.004 31.45,-0.008 47.175,-0.012 0.31,-0.204 0.224,-0.525 0.224,-0.809 0.005,-5.297 0.005,-10.595 0,-15.892 0,-0.284 0.085,-0.605 -0.223,-0.81"
             id="path4152"
             style="fill:#de7519;fill-opacity:1;fill-rule:nonzero;stroke:none" /><path
             d="m 317.505,636.2686 c 15.641,0 31.282,10e-4 46.923,10e-4 0.112,-0.092 0.223,-0.186 0.319,-0.296 l -0.004,0.005 c 0.276,-0.459 0.143,-0.965 0.145,-1.447 0.011,-4.683 0.01,-9.366 0,-14.049 -10e-4,-0.483 0.127,-0.988 -0.141,-1.449 l 0.002,0.003 c -0.1,-0.1 -0.199,-0.2 -0.301,-0.299 l 0.004,0.003 c -0.411,-0.257 -0.869,-0.143 -1.304,-0.143 -14.789,-0.007 -29.578,-0.007 -44.367,0 -0.435,0 -0.893,-0.116 -1.303,0.146 l 0.006,-0.005 c -0.104,0.098 -0.207,0.198 -0.3,0.307 l 0.008,-0.009 c -0.18,0.191 -0.185,0.388 -0.017,0.59 0.003,0.099 0.006,0.198 0.01,0.297 -0.317,1.111 -0.13,2.247 -0.139,3.369 -0.029,3.45 -0.016,6.9 -0.004,10.351 0.002,0.482 -0.129,0.987 0.142,1.447 -0.004,0.099 -0.008,0.198 -0.012,0.298 -0.164,0.202 -0.161,0.398 0.024,0.586 l -0.01,-0.009 c 0.09,0.118 0.203,0.212 0.319,0.303"
             id="path4154"
             style="fill:#b05d14;fill-opacity:1;fill-rule:nonzero;stroke:none" /><path
             d="m 313.8803,615.685 c 0.088,-0.081 0.176,-0.161 0.264,-0.242 0.429,-0.378 0.353,-0.893 0.354,-1.376 0.008,-4.716 0.008,-9.433 0,-14.15 -10e-4,-0.483 0.075,-0.997 -0.354,-1.375 l -0.264,-0.243 c -0.213,-0.271 -0.505,-0.246 -0.808,-0.244 -14.728,0.098 -29.458,0.018 -44.186,0.048 -0.537,0.001 -1.091,-0.106 -1.605,0.154 -0.433,0.37 -0.375,0.873 -0.375,1.364 0.002,4.914 0.002,9.828 0,14.742 0,0.49 -0.059,0.994 0.376,1.363 0.514,0.261 1.068,0.154 1.604,0.155 14.729,0.031 29.458,-0.05 44.187,0.048 0.303,0.002 0.595,0.027 0.807,-0.244"
             id="path4156"
             style="fill:#ffffff;fill-opacity:1;fill-rule:nonzero;stroke:none" /><path
             d="m 367.7697,615.3937 c 0.094,0.096 0.187,0.192 0.281,0.288 0.21,0.274 0.502,0.249 0.805,0.247 14.778,-0.098 29.557,-0.017 44.336,-0.047 0.487,-10e-4 0.992,0.091 1.456,-0.155 0.438,-0.367 0.38,-0.87 0.38,-1.361 -10e-4,-4.916 -10e-4,-9.831 0,-14.747 0.001,-0.491 0.057,-0.994 -0.379,-1.362 -0.464,-0.246 -0.968,-0.153 -1.456,-0.154 -14.778,-0.029 -29.557,0.05 -44.336,-0.048 -0.303,-0.002 -0.595,-0.026 -0.807,0.246 -0.093,0.096 -0.187,0.193 -0.28,0.289 -0.445,0.378 -0.335,0.902 -0.336,1.38 -0.011,4.682 -0.011,9.363 0,14.044 0.001,0.479 -0.109,1.002 0.336,1.38"
             id="path4158"
             style="fill:#ffffff;fill-opacity:1;fill-rule:nonzero;stroke:none" /><path
             d="m 465.1886,615.7244 c 0.432,-0.377 0.368,-0.885 0.368,-1.378 -10e-4,-4.903 -10e-4,-9.806 0,-14.708 0,-0.494 0.064,-1.002 -0.366,-1.379 -0.616,-0.284 -1.27,-0.153 -1.905,-0.154 -14.607,-0.027 -29.214,0.035 -43.82,-0.04 -0.3,-10e-4 -0.597,-0.04 -0.831,0.203 -0.387,0.4 -0.327,0.904 -0.327,1.395 0.001,4.886 0.001,9.771 0,14.657 0,0.491 -0.061,0.995 0.328,1.395 0.234,0.244 0.53,0.205 0.83,0.203 14.656,-0.074 29.311,-0.013 43.967,-0.038 0.587,-10e-4 1.191,0.117 1.756,-0.156"
             id="path4160"
             style="fill:#ffffff;fill-opacity:1;fill-rule:nonzero;stroke:none" /><path
             d="m 314.1447,578.0267 c -0.088,-0.081 -0.176,-0.162 -0.264,-0.243 -0.213,-0.27 -0.505,-0.245 -0.808,-0.243 -14.729,0.098 -29.458,0.017 -44.187,0.048 -0.536,10e-4 -1.09,-0.107 -1.604,0.153 -0.434,0.37 -0.375,0.874 -0.375,1.364 10e-4,4.914 10e-4,9.828 0,14.743 0,0.49 -0.059,0.993 0.376,1.363 0.514,0.26 1.068,0.153 1.604,0.154 14.729,0.031 29.458,-0.05 44.186,0.049 0.303,0.002 0.595,0.026 0.808,-0.244 0.088,-0.081 0.176,-0.162 0.264,-0.243 0.429,-0.378 0.353,-0.892 0.353,-1.375 0.008,-4.717 0.008,-9.434 10e-4,-14.15 -10e-4,-0.483 0.074,-0.998 -0.354,-1.376"
             id="path4162"
             style="fill:#ffffff;fill-opacity:1;fill-rule:nonzero;stroke:none" /><path
             d="m 367.7697,594.8789 c 0.094,0.096 0.187,0.192 0.281,0.288 0.21,0.274 0.502,0.249 0.805,0.247 14.778,-0.098 29.557,-0.017 44.336,-0.047 0.487,-10e-4 0.992,0.091 1.456,-0.155 0.438,-0.367 0.38,-0.87 0.38,-1.361 -10e-4,-4.916 -10e-4,-9.831 0,-14.747 0.001,-0.491 0.057,-0.994 -0.379,-1.362 -0.464,-0.246 -0.968,-0.153 -1.456,-0.154 -14.778,-0.03 -29.557,0.05 -44.336,-0.048 -0.303,-0.002 -0.595,-0.026 -0.807,0.246 l -0.28,0.289 c -0.445,0.378 -0.335,0.902 -0.336,1.38 -0.011,4.681 -0.011,9.363 0,14.044 0.001,0.479 -0.109,1.002 0.336,1.38"
             id="path4164"
             style="fill:#ffffff;fill-opacity:1;fill-rule:nonzero;stroke:none" /><path
             d="m 418.6345,577.7531 c -0.387,0.4 -0.326,0.905 -0.326,1.396 0,4.885 0,9.771 0,14.656 0,0.491 -0.061,0.996 0.327,1.395 0.234,0.244 0.53,0.205 0.83,0.204 14.656,-0.075 29.312,-0.013 43.967,-0.039 0.587,-10e-4 1.191,0.117 1.756,-0.156 0.433,-0.376 0.368,-0.884 0.368,-1.378 -0.001,-4.902 -0.001,-9.805 0,-14.708 0,-0.493 0.064,-1.001 -0.366,-1.379 -0.616,-0.284 -1.269,-0.152 -1.905,-0.154 -14.607,-0.027 -29.213,0.035 -43.82,-0.039 -0.3,-0.002 -0.596,-0.041 -0.831,0.202"
             id="path4166"
             style="fill:#ffffff;fill-opacity:1;fill-rule:nonzero;stroke:none" /><path
             d="m 317.5108,577.798 c -0.17,1.083 -0.072,2.173 -0.076,3.26 -0.014,4.156 -0.008,8.313 -10e-4,12.469 10e-4,0.543 0.05,1.085 0.078,1.627 0.245,0.35 0.604,0.25 0.946,0.249 15.004,-0.053 30.008,-0.053 45.012,0 0.342,10e-4 0.7,0.1 0.951,-0.243 0.028,-0.74 0.079,-1.481 0.081,-2.221 0.007,-4.556 0.006,-9.111 0,-13.667 -10e-4,-0.493 -0.053,-0.986 -0.081,-1.478 -0.251,-0.342 -0.609,-0.243 -0.951,-0.242 -15.004,0.053 -30.007,0.053 -45.011,0 -0.342,-10e-4 -0.7,-0.101 -0.948,0.246"
             id="path4168"
             style="fill:#ffffff;fill-opacity:1;fill-rule:nonzero;stroke:none" /><path
             d="m 317.5108,598.3127 c -0.167,0.984 -0.073,1.975 -0.076,2.963 -0.012,4.255 -0.008,8.511 -10e-4,12.766 0,0.543 0.05,1.085 0.078,1.627 0.245,0.35 0.604,0.25 0.946,0.249 15.004,-0.053 30.008,-0.053 45.012,0 0.342,10e-4 0.7,0.1 0.95,-0.243 0.029,-0.74 0.08,-1.481 0.082,-2.221 0.007,-4.556 0.006,-9.111 -10e-4,-13.667 0,-0.493 -0.052,-0.986 -0.08,-1.478 -0.252,-0.342 -0.609,-0.243 -0.952,-0.242 -15.003,0.053 -30.006,0.053 -45.01,0 -0.342,-10e-4 -0.7,-0.101 -0.948,0.246"
             id="path4170"
             style="fill:#ffffff;fill-opacity:1;fill-rule:nonzero;stroke:none" /><path
             d="m 414.9717,636.2457 c 0.093,-0.099 0.187,-0.199 0.28,-0.298 0.003,-5.63 0.005,-11.26 0.008,-16.889 -0.366,-0.327 -0.813,-0.309 -1.262,-0.309 -15.204,0.003 -30.407,0.003 -45.611,0.006 -0.197,0 -0.394,0.035 -0.591,0.054 -0.018,5.495 -0.035,10.99 -0.059,16.485 -0.002,0.361 0.068,0.685 0.292,0.97 2.476,-0.01 4.952,-0.029 7.427,-0.029 13.172,0.001 26.344,0.006 39.516,0.01"
             id="path4172"
             style="fill:#82450f;fill-opacity:1;fill-rule:nonzero;stroke:none" /><path
             d="m 419.159,619.6281 c 0,4.351 0,8.511 0,12.671 0,0.644 -0.014,1.288 0.004,1.932 0.03,1.113 0.043,1.118 1.208,1.153 0.248,0.007 0.496,0.002 0.744,0.002 13.97,0 27.94,0 41.91,0 0.149,0 0.297,10e-4 0.446,-0.001 1.459,-0.015 1.47,-0.015 1.472,-1.487 0.006,-4.26 0.002,-8.521 0.001,-12.781 0,-0.297 0,-0.595 -0.021,-0.891 -0.024,-0.34 -0.214,-0.549 -0.56,-0.574 -0.296,-0.022 -0.594,-0.023 -0.891,-0.023 -14.465,-10e-4 -28.931,-10e-4 -43.397,-10e-4 l -0.916,0 z"
             id="path4174"
             style="fill:#64350b;fill-opacity:1;fill-rule:nonzero;stroke:none" /><path
             d="m 572.0302,313.1311 c 23.183,41.938 41.603,132.582 -7.925,192.332 l -12.924,-11.555 -10.94,49.406 47.879,-16.37 -12.942,-11.572 c 57.728,-88.184 11.111,-190.426 -3.148,-202.241"
             id="path4176"
             style="fill:#b05d14;fill-opacity:1;fill-rule:nonzero;stroke:none" /><path
             d="m 165.466,523.2982 c -23.183,-41.938 -41.603,-132.582 7.925,-192.332 l 12.924,11.555 10.94,-49.406 -47.879,16.37 12.942,11.572 c -57.728,88.184 -11.111,190.426 3.148,202.241"
             id="path4178"
             style="fill:#b05d14;fill-opacity:1;fill-rule:nonzero;stroke:none" /><text
             transform="matrix(0.86418122,0.50318071,0.50318071,-0.86418122,369.2838,43.261)"
             id="text4180"><tspan
               x="0 18.699974 37.397446 54.822422 59.997417 68.172401 78.072388 86.347382 100.12236 114.22234 120.07233 133.19731 138.3723 149.42229 163.14728"
               y="0"
               id="tspan4182"
               style="font-size:24.99996567px;font-variant:normal;font-weight:normal;writing-mode:lr-tb;fill:#ffffff;fill-opacity:1;fill-rule:nonzero;stroke:none;font-family:Myriad Pro;-inkscape-font-specification:MyriadPro-Regular">www.rstudio.com</tspan></text>
</g></g></g></g></svg>