<?xml version="1.0" encoding="UTF-8" standalone="no"?>
<!-- Created with Inkscape (http://www.inkscape.org/) -->

<svg
   xmlns:dc="http://purl.org/dc/elements/1.1/"
   xmlns:cc="http://creativecommons.org/ns#"
   xmlns:rdf="http://www.w3.org/1999/02/22-rdf-syntax-ns#"
   xmlns:svg="http://www.w3.org/2000/svg"
   xmlns="http://www.w3.org/2000/svg"
   version="1.1"
   width="918.75"
   height="1065"
   id="svg11320"
   xml:space="preserve"><metadata
     id="metadata11326"><rdf:RDF><cc:Work
         rdf:about=""><dc:format>image/svg+xml</dc:format><dc:type
           rdf:resource="http://purl.org/dc/dcmitype/StillImage" /><dc:title></dc:title></cc:Work></rdf:RDF></metadata><defs
     id="defs11324"><clipPath
       id="clipPath11336"><path
         d="M 0,852 735,852 735,0 0,0 0,852 z"
         id="path11338" /></clipPath><clipPath
       id="clipPath11342"><path
         d="m -433.348,844.604 358.699,-207.069 0,-422.156 -358.699,-208.405 -366.714,208.405 0,422.156 366.714,207.069 z"
         id="path11344" /></clipPath><clipPath
       id="clipPath11348"><path
         d="M 0,0 735,0 735,852 0,852 0,0 z"
         id="path11350" /></clipPath><clipPath
       id="clipPath11358"><path
         d="M 0,0 735,0 735,852 0,852 0,0 z"
         id="path11360" /></clipPath><clipPath
       id="clipPath11374"><path
         d="M 0,852 735,852 735,0 0,0 0,852 z"
         id="path11376" /></clipPath><clipPath
       id="clipPath11380"><path
         d="M 0,0 735,0 735,852 0,852 0,0 z"
         id="path11382" /></clipPath><clipPath
       id="clipPath11386"><path
         d="m 63,320 604,0 0,194 -604,0 0,-194 z"
         id="path11388" /></clipPath><clipPath
       id="clipPath11390"><path
         d="m 63.4736,320.02 603.3904,0 0,193.233 -603.3904,0 0,-193.233 z"
         id="path11392" /></clipPath><clipPath
       id="clipPath11436"><path
         d="M 0,852 735,852 735,0 0,0 0,852 z"
         id="path11438" /></clipPath><clipPath
       id="clipPath11442"><path
         d="M 0,0 735,0 735,852 0,852 0,0 z"
         id="path11444" /></clipPath><clipPath
       id="clipPath11448"><path
         d="m 390,46 154,0 0,99 -154,0 0,-99 z"
         id="path11450" /></clipPath><clipPath
       id="clipPath11452"><path
         d="m 390.234,44.58 -0.049,17.461 153.283,88.498 0.049,-17.461 L 390.234,44.58 z"
         id="path11454" /></clipPath><clipPath
       id="clipPath11456"><path
         d="m 390.185,44.58 153.332,0 0,105.959 -153.332,0 0,-105.959 z"
         id="path11458" /></clipPath></defs><g
     transform="matrix(1.25,0,0,-1.25,0,1065)"
     id="g11328"><g
       id="g11330" /><g
       id="g11332"><g
         clip-path="url(#clipPath11336)"
         id="g11334"><g
           clip-path="url(#clipPath11342)"
           id="g11340"><g
             clip-path="url(#clipPath11348)"
             id="g11346"><path
               d="m 4.7737,414.5521 c 0,-244.182 -197.947,-442.132 -442.129,-442.132 -244.182,0 -442.129,197.95 -442.129,442.132 0,244.182 197.947,442.129 442.129,442.129 244.182,0 442.129,-197.947 442.129,-442.129"
               id="path11352"
               style="fill:#428bca;fill-opacity:1;fill-rule:nonzero;stroke:none" /></g></g></g></g><g
       id="g11354"><g
         clip-path="url(#clipPath11358)"
         id="g11356"><path
           d="m 367.4997,426.6711 0,-423.761 367.414,212.186 0,423.156 -367.414,-211.581 z"
           id="path11362"
           style="fill:#009bd7;fill-opacity:1;fill-rule:nonzero;stroke:none" /><path
           d="m 0.0864,215.0964 367.413,-212.187 0,423.762 -367.413,211.581 0,-423.156 z"
           id="path11364"
           style="fill:#005373;fill-opacity:1;fill-rule:nonzero;stroke:none" /><path
           d="m 0.0864,638.2521 367.413,-211.581 367.415,211.581 -367.415,211.648 -367.413,-211.648 z"
           id="path11366"
           style="fill:#007eb4;fill-opacity:1;fill-rule:nonzero;stroke:none" /><path
           d="m 557.2504,316.8416 -190.292,-109.833 -190.319,109.278 0,220.665 190.859,109.338 189.779,-109.254 -0.027,-220.194 z m -0.689,424.151 0,-72.126 -189.063,109.107 -303.639,-176 0,-350.967 303.537,-175.689 304.561,176.088 0,423.151 -115.396,66.436 z"
           id="path11368"
           style="fill:#000000;fill-opacity:1;fill-rule:nonzero;stroke:none" /></g></g><g
       id="g11370"><g
         clip-path="url(#clipPath11374)"
         id="g11372"><g
           clip-path="url(#clipPath11380)"
           id="g11378"><g
             id="g11384" /><g
             id="g11394"><g
               clip-path="url(#clipPath11386)"
               id="g11396"
               style="opacity:0.93999999"><g
                 id="g11398" /><g
                 id="g11400"><g
                   clip-path="url(#clipPath11390)"
                   id="g11402"><text
                     transform="matrix(0.94339618,0,0,-1,63.4736,364.4619)"
                     id="text11404"><tspan
                       x="0"
                       y="0"
                       id="tspan11406"
                       style="font-size:177.76539612px;font-variant:normal;font-weight:600;writing-mode:lr-tb;fill:#ffffff;fill-opacity:1;fill-rule:nonzero;stroke:none;font-family:Myriad Pro;-inkscape-font-specification:MyriadPro-Semibold">d</tspan></text>
<text
                     transform="matrix(0.94339618,0,0,-1,163.0893,364.4619)"
                     id="text11408"><tspan
                       x="0"
                       y="0"
                       id="tspan11410"
                       style="font-size:177.76539612px;font-variant:normal;font-weight:600;writing-mode:lr-tb;fill:#ffffff;fill-opacity:1;fill-rule:nonzero;stroke:none;font-family:Myriad Pro;-inkscape-font-specification:MyriadPro-Semibold">e</tspan></text>
<text
                     transform="matrix(0.94339618,0,0,-1,251.3012,364.4619)"
                     id="text11412"><tspan
                       x="0"
                       y="0"
                       id="tspan11414"
                       style="font-size:177.76539612px;font-variant:normal;font-weight:600;writing-mode:lr-tb;fill:#ffffff;fill-opacity:1;fill-rule:nonzero;stroke:none;font-family:Myriad Pro;-inkscape-font-specification:MyriadPro-Semibold">v</tspan></text>
<text
                     transform="matrix(0.94339618,0,0,-1,347.0597,364.4619)"
                     id="text11416"><tspan
                       x="0"
                       y="0"
                       id="tspan11418"
                       style="font-size:177.76539612px;font-variant:normal;font-weight:normal;writing-mode:lr-tb;fill:#ffffff;fill-opacity:1;fill-rule:nonzero;stroke:none;font-family:Myriad Pro;-inkscape-font-specification:MyriadPro-Regular">t</tspan></text>
<text
                     transform="matrix(0.94339618,0,0,-1,398.2092,364.4619)"
                     id="text11420"><tspan
                       x="0 91.904709"
                       y="0"
                       id="tspan11422"
                       style="font-size:177.76539612px;font-variant:normal;font-weight:normal;writing-mode:lr-tb;fill:#ffffff;fill-opacity:1;fill-rule:nonzero;stroke:none;font-family:Myriad Pro;-inkscape-font-specification:MyriadPro-Regular">oo</tspan></text>
<text
                     transform="matrix(0.94339618,0,0,-1,571.6143,364.4619)"
                     id="text11424"><tspan
                       x="0"
                       y="0"
                       id="tspan11426"
                       style="font-size:177.76539612px;font-variant:normal;font-weight:normal;writing-mode:lr-tb;fill:#ffffff;fill-opacity:1;fill-rule:nonzero;stroke:none;font-family:Myriad Pro;-inkscape-font-specification:MyriadPro-Regular">l</tspan></text>
<text
                     transform="matrix(0.94339618,0,0,-1,605.8257,364.4619)"
                     id="text11428"><tspan
                       x="0"
                       y="0"
                       id="tspan11430"
                       style="font-size:177.76539612px;font-variant:normal;font-weight:normal;writing-mode:lr-tb;fill:#ffffff;fill-opacity:1;fill-rule:nonzero;stroke:none;font-family:Myriad Pro;-inkscape-font-specification:MyriadPro-Regular">s</tspan></text>
</g></g></g></g></g></g></g><g
       id="g11432"><g
         clip-path="url(#clipPath11436)"
         id="g11434"><g
           clip-path="url(#clipPath11442)"
           id="g11440"><g
             id="g11446" /><g
             id="g11460"><g
               clip-path="url(#clipPath11448)"
               id="g11462"><g
                 id="g11464" /><g
                 id="g11466"><g
                   clip-path="url(#clipPath11452)"
                   id="g11468"><g
                     clip-path="url(#clipPath11456)"
                     id="g11470"><path
                       d="m 405.0126,65.1198 -1.832,-1.058 -1.439,-6.724 c -0.335,-1.575 -0.606,-2.966 -0.769,-4.25 l -0.063,-0.037 c -0.234,1.056 -0.531,2.119 -0.918,3.299 l -1.593,4.951 -1.565,-0.903 -1.649,-6.919 c -0.329,-1.476 -0.663,-2.926 -0.89,-4.247 l -0.064,-0.037 c -0.195,1.1 -0.473,2.152 -0.77,3.288 l -1.364,5.18 -1.896,-1.095 3.104,-9.943 1.692,0.977 1.625,6.515 c 0.354,1.461 0.67,2.856 0.915,4.409 l 0.044,0.025 c 0.253,-1.235 0.557,-2.229 0.918,-3.328 l 1.574,-4.691 1.685,0.973 3.255,13.615"
                       id="path11472"
                       style="fill:#ffffff;fill-opacity:1;fill-rule:nonzero;stroke:none" /><path
                       d="m 420.7827,74.2246 -1.839,-1.062 -1.432,-6.72 c -0.335,-1.575 -0.606,-2.966 -0.768,-4.25 l -0.064,-0.037 c -0.24,1.052 -0.537,2.115 -0.918,3.299 l -1.6,4.947 -1.558,-0.899 -1.649,-6.919 c -0.335,-1.48 -0.663,-2.926 -0.896,-4.251 l -0.064,-0.036 c -0.189,1.103 -0.467,2.155 -0.77,3.288 l -1.364,5.179 -1.897,-1.095 3.111,-9.939 1.686,0.973 1.631,6.519 c 0.354,1.461 0.663,2.852 0.915,4.409 l 0.038,0.022 c 0.259,-1.232 0.556,-2.229 0.918,-3.329 l 1.58,-4.687 1.685,0.973 3.255,13.615"
                       id="path11474"
                       style="fill:#ffffff;fill-opacity:1;fill-rule:nonzero;stroke:none" /><path
                       d="m 436.5466,83.3259 -1.832,-1.058 -1.439,-6.724 c -0.335,-1.575 -0.606,-2.966 -0.769,-4.25 l -0.063,-0.037 c -0.234,1.056 -0.531,2.119 -0.918,3.299 l -1.594,4.951 -1.564,-0.903 -1.643,-6.916 c -0.335,-1.479 -0.669,-2.929 -0.896,-4.25 l -0.064,-0.037 c -0.195,1.1 -0.473,2.152 -0.77,3.288 l -1.364,5.18 -1.897,-1.095 3.111,-9.94 1.686,0.974 1.625,6.515 c 0.354,1.461 0.669,2.856 0.915,4.408 l 0.044,0.026 c 0.26,-1.232 0.556,-2.229 0.918,-3.328 l 1.573,-4.691 1.686,0.973 3.255,13.615"
                       id="path11476"
                       style="fill:#ffffff;fill-opacity:1;fill-rule:nonzero;stroke:none" /><path
                       d="m 438.4297,75.4627 c -0.734,-0.424 -1.262,-1.361 -1.26,-2.256 0.003,-0.873 0.509,-1.235 1.224,-0.822 l 0.025,0.015 c 0.779,0.45 1.263,1.383 1.26,2.256 -0.002,0.895 -0.508,1.235 -1.249,0.807"
                       id="path11478"
                       style="fill:#ffffff;fill-opacity:1;fill-rule:nonzero;stroke:none" /><path
                       d="m 446.4546,89.3182 c -1.245,-0.719 -2.359,-2.362 -2.815,-4.197 l -0.083,-0.048 -0.07,2.26 -1.622,-0.937 c 0.061,-1.052 0.09,-2.226 0.094,-3.606 l 0.022,-8.062 1.833,1.058 -0.018,6.243 c -10e-4,0.367 0.037,0.726 0.08,1.046 0.251,1.739 1.174,3.418 2.483,4.174 0.249,0.144 0.44,0.225 0.632,0.291 l -0.006,2.011 c -0.172,-0.056 -0.319,-0.111 -0.53,-0.233"
                       id="path11480"
                       style="fill:#ffffff;fill-opacity:1;fill-rule:nonzero;stroke:none" /><path
                       d="m 451.9392,92.4847 c -2.196,-1.268 -3.52,-3.59 -3.515,-5.476 0.004,-1.408 0.876,-2.066 2.71,-1.757 1.368,0.202 1.9,-0.049 1.903,-1.062 0.003,-0.968 -0.627,-2.111 -1.974,-2.888 -0.933,-0.539 -1.898,-0.655 -2.448,-0.561 l -0.462,-1.891 c 0.717,-0.078 1.752,0.181 2.869,0.826 2.427,1.401 3.814,3.687 3.808,5.741 -0.004,1.746 -0.914,2.242 -2.691,1.988 -1.33,-0.187 -1.938,-0.097 -1.94,0.871 -0.003,0.873 0.602,1.95 1.7,2.584 0.951,0.549 1.686,0.584 2.089,0.523 l 0.456,1.821 c -0.57,0.053 -1.477,-0.126 -2.505,-0.719"
                       id="path11482"
                       style="fill:#ffffff;fill-opacity:1;fill-rule:nonzero;stroke:none" /><path
                       d="m 459.4147,99.3432 -1.811,-1.7 0.006,-2.157 -1.584,-0.914 0.005,-1.621 1.583,0.914 0.018,-6.39 c 0.004,-1.387 0.199,-2.318 0.724,-2.639 0.442,-0.333 1.139,-0.269 2.008,0.233 0.715,0.413 1.283,0.888 1.64,1.263 l -0.088,1.551 c -0.274,-0.254 -0.568,-0.475 -1.072,-0.766 -1.034,-0.597 -1.394,0.018 -1.399,1.478 l -0.017,6.317 2.656,1.533 -0.005,1.622 -2.656,-1.534 -0.008,2.81"
                       id="path11484"
                       style="fill:#ffffff;fill-opacity:1;fill-rule:nonzero;stroke:none" /><path
                       d="m 472.7027,104.2007 -1.858,-1.073 0.021,-7.189 c 10e-4,-0.389 -0.062,-0.815 -0.163,-1.189 -0.336,-1.135 -1.195,-2.63 -2.44,-3.349 -1.686,-0.973 -2.284,0.188 -2.29,2.418 l -0.019,6.486 -1.851,-1.069 0.019,-6.852 c 0.012,-4.116 1.93,-4.03 3.533,-3.105 1.813,1.047 2.882,2.906 3.365,4.125 l 0.045,0.026 0.107,-1.848 1.647,0.951 c -0.066,0.88 -0.088,1.933 -0.092,3.143 l -0.024,8.525"
                       id="path11486"
                       style="fill:#ffffff;fill-opacity:1;fill-rule:nonzero;stroke:none" /><path
                       d="m 484.5755,116.5374 -1.858,-1.073 0.02,-6.999 -0.045,-0.025 c -0.462,0.68 -1.518,0.923 -3.076,0.024 -2.49,-1.438 -4.59,-5.053 -4.56,-8.945 0.01,-3.558 1.913,-4.863 4.384,-3.436 1.66,0.958 2.902,2.675 3.467,4.309 l 0.045,0.026 0.088,-1.985 1.667,0.963 c -0.066,0.762 -0.089,1.933 -0.092,2.974 l -0.04,14.167 m -4.616,-18.428 c -1.999,-1.153 -3.019,0.219 -3.026,2.596 -0.007,2.59 1.124,5.183 3.045,6.293 1.392,0.803 2.404,0.27 2.682,-0.928 0.065,-0.228 0.085,-0.583 0.086,-0.847 l 0.006,-2.033 c 10e-4,-0.344 -0.018,-0.642 -0.081,-0.972 -0.333,-1.795 -1.467,-3.39 -2.712,-4.109"
                       id="path11488"
                       style="fill:#ffffff;fill-opacity:1;fill-rule:nonzero;stroke:none" /><path
                       d="m 488.5811,118.0049 c -0.67,-0.387 -1.154,-1.247 -1.152,-2.003 0.002,-0.726 0.464,-1.04 1.121,-0.66 0.734,0.424 1.199,1.272 1.171,1.984 -0.002,0.756 -0.444,1.081 -1.14,0.679 m 0.939,-4.095 -1.852,-1.069 0.034,-11.716 1.851,1.069 -0.033,11.716"
                       id="path11490"
                       style="fill:#ffffff;fill-opacity:1;fill-rule:nonzero;stroke:none" /><path
                       d="m 496.9189,118.4538 c -2.822,-1.629 -5.05,-5.223 -5.039,-9.148 0.011,-3.705 2.143,-4.803 4.908,-3.207 2.464,1.423 5.07,4.823 5.058,9.159 -0.01,3.58 -1.996,4.888 -4.927,3.196 m -0.053,-10.708 c -1.813,-1.047 -3.102,0.149 -3.109,2.717 -0.006,2.23 0.932,5.102 3.128,6.37 2.19,1.264 3.059,-0.762 3.065,-2.743 0.007,-2.641 -1.315,-5.323 -3.084,-6.344"
                       id="path11492"
                       style="fill:#ffffff;fill-opacity:1;fill-rule:nonzero;stroke:none" /><path
                       d="m 504.5173,113.6183 c -0.741,-0.428 -1.262,-1.361 -1.26,-2.256 0.003,-0.873 0.509,-1.235 1.224,-0.822 l 0.019,0.011 c 0.779,0.45 1.262,1.383 1.26,2.256 -0.003,0.895 -0.509,1.235 -1.243,0.811"
                       id="path11494"
                       style="fill:#ffffff;fill-opacity:1;fill-rule:nonzero;stroke:none" /><path
                       d="m 512.7723,127.5773 c -3.333,-1.924 -5.471,-5.775 -5.461,-9.384 0.011,-3.588 2.016,-4.855 5.093,-3.078 1.373,0.792 2.444,1.822 2.929,2.396 l -0.317,1.419 c -0.53,-0.57 -1.225,-1.288 -2.278,-1.896 -2.024,-1.168 -3.542,-0.376 -3.55,2.338 -0.006,2.443 1.252,5.161 3.589,6.51 1.008,0.583 1.705,0.72 2.153,0.685 l 0.417,1.894 c -0.512,-0.009 -1.477,-0.25 -2.575,-0.884"
                       id="path11496"
                       style="fill:#ffffff;fill-opacity:1;fill-rule:nonzero;stroke:none" /><path
                       d="m 521.6659,132.7415 c -2.822,-1.629 -5.05,-5.223 -5.039,-9.148 0.011,-3.705 2.143,-4.803 4.908,-3.207 2.464,1.423 5.07,4.823 5.058,9.159 -0.01,3.58 -1.996,4.888 -4.927,3.196 m -0.053,-10.708 c -1.813,-1.047 -3.102,0.149 -3.109,2.717 -0.006,2.23 0.932,5.102 3.128,6.37 2.19,1.264 3.059,-0.762 3.065,-2.743 0.007,-2.641 -1.315,-5.323 -3.084,-6.344"
                       id="path11498"
                       style="fill:#ffffff;fill-opacity:1;fill-rule:nonzero;stroke:none" /><path
                       d="m 540.1304,143.4019 c -0.97,-0.56 -1.64,-1.241 -2.251,-2.13 -0.421,-0.603 -0.822,-1.349 -1.133,-2.182 l -0.044,-0.026 c -0.445,1.132 -1.501,1.492 -2.893,0.689 -1.685,-0.973 -2.634,-2.565 -3.199,-4.008 l -0.064,-0.037 -0.088,1.838 -1.622,-0.936 c 0.067,-0.932 0.089,-1.911 0.092,-3.122 l 0.025,-8.547 1.813,1.047 -0.02,7.065 c -10e-4,0.367 0.042,0.76 0.144,1.127 0.29,1.24 1.13,2.791 2.292,3.462 1.411,0.814 2.13,-0.13 2.135,-1.994 l 0.02,-7.021 1.813,1.047 -0.02,7.241 c -10e-4,0.382 0.062,0.808 0.144,1.149 0.316,1.226 1.137,2.597 2.191,3.205 1.494,0.862 2.212,-0.082 2.219,-2.334 l 0.019,-6.632 1.813,1.046 -0.02,6.897 c -0.011,4.071 -2.012,3.937 -3.366,3.156"
                       id="path11500"
                       style="fill:#ffffff;fill-opacity:1;fill-rule:nonzero;stroke:none" /></g></g></g></g></g></g></g></g></g></svg>