<?xml version="1.0" encoding="UTF-8" standalone="no"?>
<!-- Created with Inkscape (http://www.inkscape.org/) -->

<svg
   xmlns:dc="http://purl.org/dc/elements/1.1/"
   xmlns:cc="http://creativecommons.org/ns#"
   xmlns:rdf="http://www.w3.org/1999/02/22-rdf-syntax-ns#"
   xmlns:svg="http://www.w3.org/2000/svg"
   xmlns="http://www.w3.org/2000/svg"
   version="1.1"
   width="918.75"
   height="1065"
   id="svg13153"
   xml:space="preserve"><metadata
     id="metadata13159"><rdf:RDF><cc:Work
         rdf:about=""><dc:format>image/svg+xml</dc:format><dc:type
           rdf:resource="http://purl.org/dc/dcmitype/StillImage" /><dc:title></dc:title></cc:Work></rdf:RDF></metadata><defs
     id="defs13157"><clipPath
       id="clipPath13169"><path
         d="M 0,0 735,0 735,852 0,852 0,0 z"
         id="path13171" /></clipPath><clipPath
       id="clipPath13179"><path
         d="m 2.794,637.535 0,-422.156 366.714,-208.406 358.698,208.406 0,422.156 L 369.508,844.604 2.794,637.535 z"
         id="path13181" /></clipPath><clipPath
       id="clipPath13185"><path
         d="M 0,0 735,0 735,852 0,852 0,0 z"
         id="path13187" /></clipPath><clipPath
       id="clipPath13195"><path
         d="m 2.794,637.535 0,-422.156 366.714,-208.406 358.698,208.406 0,422.156 L 369.508,844.604 2.794,637.535 z"
         id="path13197" /></clipPath><clipPath
       id="clipPath13201"><path
         d="M 0,0 735,0 735,852 0,852 0,0 z"
         id="path13203" /></clipPath><clipPath
       id="clipPath13207"><path
         d="m 51,511 632,0 0,334 -632,0 0,-334 z"
         id="path13209" /></clipPath><clipPath
       id="clipPath13211"><path
         d="m 51.6476,511.564 630.4864,0 0,333.436 -630.4864,0 0,-333.436 z"
         id="path13213" /></clipPath><clipPath
       id="clipPath13231"><path
         d="M 0,852 735,852 735,0 0,0 0,852 z"
         id="path13233" /></clipPath><clipPath
       id="clipPath13237"><path
         d="M 0,0 735,0 735,852 0,852 0,0 z"
         id="path13239" /></clipPath><clipPath
       id="clipPath13313"><path
         d="M 0,0 735,0 735,852 0,852 0,0 z"
         id="path13315" /></clipPath><clipPath
       id="clipPath13325"><path
         d="M 0,852 735,852 735,0 0,0 0,852 z"
         id="path13327" /></clipPath><clipPath
       id="clipPath13331"><path
         d="M 0,0 735,0 735,852 0,852 0,0 z"
         id="path13333" /></clipPath><clipPath
       id="clipPath13341"><path
         d="M 0,852 735,852 735,0 0,0 0,852 z"
         id="path13343" /></clipPath><clipPath
       id="clipPath13347"><path
         d="m 1181.821,868.607 358.698,-207.07 0,-422.155 -358.698,-208.406 -366.714,208.406 0,422.155 366.714,207.07 z"
         id="path13349" /></clipPath><clipPath
       id="clipPath13353"><path
         d="M 0,0 735,0 735,852 0,852 0,0 z"
         id="path13355" /></clipPath><clipPath
       id="clipPath13363"><path
         d="M 0,852 735,852 735,0 0,0 0,852 z"
         id="path13365" /></clipPath><clipPath
       id="clipPath13369"><path
         d="M 0,0 735,0 735,852 0,852 0,0 z"
         id="path13371" /></clipPath></defs><g
     transform="matrix(1.25,0,0,-1.25,0,1065)"
     id="g13161"><g
       id="g13163" /><g
       id="g13165"><g
         clip-path="url(#clipPath13169)"
         id="g13167"><path
           d="m 369.5075,844.6044 358.698,-207.07 0,-422.155 -358.698,-208.406 -366.714,208.406 0,422.155 366.714,207.07 z"
           id="path13173"
           style="fill:#77aab6;fill-opacity:1;fill-rule:nonzero;stroke:none" /></g></g><g
       id="g13175"><g
         clip-path="url(#clipPath13179)"
         id="g13177"><g
           clip-path="url(#clipPath13185)"
           id="g13183"><path
             d="m 807.6288,414.552 c 0,-244.182 -197.947,-442.132 -442.129,-442.132 -244.182,0 -442.129,197.95 -442.129,442.132 0,244.182 197.947,442.129 442.129,442.129 244.182,0 442.129,-197.947 442.129,-442.129"
             id="path13189"
             style="fill:#ffffff;fill-opacity:1;fill-rule:nonzero;stroke:none" /></g></g></g><g
       id="g13191"><g
         clip-path="url(#clipPath13195)"
         id="g13193"><g
           clip-path="url(#clipPath13201)"
           id="g13199"><g
             id="g13205" /><g
             id="g13215"><g
               clip-path="url(#clipPath13207)"
               id="g13217"
               style="opacity:0.25"><g
                 id="g13219" /><g
                 id="g13221"><g
                   clip-path="url(#clipPath13211)"
                   id="g13223"><path
                     d="m 682.1342,746.1983 c 0,-129.583 -141.138,-234.634 -315.241,-234.634 -174.104,0 -315.246,105.051 -315.246,234.634 0,129.58 141.142,234.631 315.246,234.631 174.103,0 315.241,-105.051 315.241,-234.631"
                     id="path13225"
                     style="fill:#ffffff;fill-opacity:1;fill-rule:nonzero;stroke:none" /></g></g></g></g></g></g></g><g
       id="g13227"><g
         clip-path="url(#clipPath13231)"
         id="g13229"><g
           clip-path="url(#clipPath13237)"
           id="g13235"><path
             d="m 250.3892,611.9485 c 0.041,0.05 0.082,0.1 0.122,0.15 -0.193,0.21 -0.387,0.421 -0.58,0.632 -0.036,-0.034 -0.072,-0.069 -0.109,-0.103 0.189,-0.226 0.378,-0.453 0.567,-0.679 m 3.125,-3.503 c 0.068,0.065 0.137,0.131 0.205,0.197 l -1.36,1.47 c -0.06,-0.056 -0.119,-0.113 -0.179,-0.169 0.445,-0.499 0.889,-0.999 1.334,-1.498 m 129.929,-176.758 c -2.196,0.211 -4.747,0.06 -5.679,-0.344 1.913,-0.243 3.683,-0.319 5.679,0.344 m -69.23,269.146 c 0.019,-0.106 0.039,-0.213 0.058,-0.32 -2.718,0.816 -4.319,-0.83 -5.913,-2.485 -0.287,-0.297 -0.561,-0.611 -0.811,-0.94 -0.193,-0.255 -0.367,-0.532 -0.499,-0.823 -0.403,-0.893 -0.203,-1.45 0.723,-1.692 0.655,-0.17 1.371,-0.253 2.043,-0.189 2.913,0.277 5.69,1.071 8.284,2.441 0.564,0.297 1.116,0.663 1.579,1.098 0.874,0.821 0.746,1.491 -0.345,2.017 -0.41,0.197 -0.857,0.361 -1.304,0.427 -1.267,0.187 -2.543,0.315 -3.815,0.466 m -17.853,-142.81 c -7.868,8.764 -15.737,17.527 -23.734,26.433 -0.032,-0.369 -0.072,-0.47 -0.042,-0.542 0.14,-0.34 0.29,-0.676 0.453,-1.006 1.538,-3.107 3.436,-5.98 5.623,-8.667 5.092,-6.256 11.323,-11.288 17.7,-16.218 m -85.947,114.294 c -1.427,-0.137 -2.793,-0.243 -4.151,-0.415 -0.391,-0.05 -0.836,-0.205 -1.123,-0.461 -1.574,-1.397 -3.143,-2.804 -4.631,-4.291 -0.461,-0.461 -0.759,-1.152 -0.958,-1.792 -0.263,-0.847 0.117,-1.429 0.957,-1.689 0.347,-0.108 0.725,-0.191 1.083,-0.172 3.374,0.181 6.246,1.421 8.304,4.179 0.986,1.323 1.222,2.831 0.519,4.641 m 120.183,-272.286 0.224,0.01 c 0,0.527 0.006,1.053 -10e-4,1.58 -0.091,6.67 -0.175,13.34 -0.276,20.01 -0.158,10.349 -0.333,20.698 -0.489,31.047 -0.091,5.98 -0.158,11.96 -0.242,17.94 -0.004,0.299 -0.077,0.597 -0.118,0.895 -0.327,-0.962 -0.456,-1.912 -0.484,-2.866 -0.066,-2.207 -0.123,-4.416 -0.114,-6.624 0.042,-10.168 0.134,-20.336 0.149,-30.504 0.004,-2.894 -0.353,-5.794 -0.265,-8.683 0.163,-5.33 0.489,-10.657 0.834,-15.98 0.148,-2.282 0.514,-4.55 0.782,-6.825 m 36.709,52.239 c 0.45,0.849 0.078,1.551 -0.255,2.162 -0.902,1.653 -1.781,3.34 -2.881,4.86 -2.807,3.876 -5.69,7.7 -8.614,11.489 -5.314,6.888 -10.915,13.556 -15.773,20.79 -0.107,0.16 -0.303,0.261 -0.601,0.509 -0.286,-1.583 -0.606,-2.974 -0.779,-4.382 -0.687,-5.586 0.299,-10.809 3.472,-15.544 2.179,-3.252 4.965,-5.916 8.017,-8.319 5.4,-4.251 11.338,-7.708 17.052,-11.496 0.068,-0.045 0.172,-0.035 0.362,-0.069 m -159.528,209.658 c 0.449,-0.445 0.903,-0.865 1.323,-1.316 9.434,-10.148 18.849,-20.314 28.299,-30.448 17.517,-18.785 35.056,-37.551 52.582,-56.329 1.884,-2.019 3.775,-4.034 5.596,-6.11 2.184,-2.488 4.299,-5.037 6.436,-7.566 1.514,-1.792 3.065,-3.557 4.504,-5.407 1.165,-1.498 2.031,-3.176 2.383,-5.078 0.181,-0.98 0.748,-1.485 1.723,-1.587 0.72,-0.075 1.12,0.189 1.366,0.874 0.306,0.854 -0.063,1.484 -0.596,2.122 -6.954,8.345 -13.729,16.846 -20.876,25.021 -11.786,13.482 -23.799,26.764 -35.734,40.114 -14.208,15.894 -28.197,31.969 -41.078,48.975 -0.187,0.248 -0.42,0.461 -0.614,0.671 -1.829,-1.355 -3.599,-2.666 -5.314,-3.936 m 128.839,-175.647 c -1.439,-1.177 -2.206,-2.694 -3.046,-4.168 -0.403,-0.708 -0.564,-1.418 -0.559,-2.228 0.036,-5.618 0.046,-11.235 0.053,-16.853 0.013,-9.486 0.052,-18.972 0.013,-28.458 -0.022,-5.429 0.155,-10.856 -0.115,-16.289 -0.173,-3.487 0.151,-6.995 0.131,-10.493 -0.017,-2.986 -0.153,-5.975 -0.344,-8.956 -0.087,-1.358 -0.475,-2.686 -1.289,-4.022 -0.204,0.435 -0.349,0.742 -0.628,1.334 0.07,-0.722 -0.045,-1.286 0.179,-1.509 0.597,-0.595 0.524,-1.33 0.678,-2.026 0.724,-3.277 1.408,-6.563 2.207,-9.822 0.259,-1.056 0.738,-2.085 1.271,-3.041 0.585,-1.048 1.224,-0.985 1.801,0.065 0.132,0.24 0.26,0.496 0.32,0.76 0.339,1.477 0.866,2.948 0.946,4.442 0.373,6.94 0.77,13.884 0.881,20.831 0.236,14.88 -0.722,29.729 -1.465,44.58 -0.571,11.405 -1.107,22.809 -1.035,34.233 0.004,0.54 10e-4,1.08 10e-4,1.62 m 6.069,7.636 c 0.414,-0.483 0.709,-0.809 0.982,-1.152 7.462,-9.357 14.891,-18.74 22.386,-28.071 15.392,-19.16 31.382,-37.843 45.872,-57.72 2.223,-3.049 4.536,-6.033 6.718,-9.11 1.412,-1.991 2.586,-4.134 3.263,-6.512 0.086,-0.299 0.225,-0.622 0.437,-0.84 2.051,-2.113 4.119,-4.209 6.197,-6.295 0.196,-0.197 0.496,-0.289 0.747,-0.43 -0.003,0.603 -0.165,1.068 -0.406,1.489 -2.516,4.391 -4.878,8.881 -7.599,13.142 -11.231,17.589 -23.604,34.37 -36.445,50.806 -12.752,16.323 -25.605,32.568 -38.416,48.845 -0.162,0.206 -0.354,0.388 -0.602,0.659 -1.593,-1.874 -4.126,-2.565 -5.399,-4.837 0.952,-1.297 1.876,-2.59 2.938,-3.781 -0.289,1.21 -0.89,2.31 -0.673,3.807 m -11.407,54.558 c -0.185,3.552 -0.331,6.953 -0.545,10.35 -0.401,6.386 -0.818,12.771 -1.273,19.153 -0.461,6.473 -0.942,12.946 -1.474,19.414 -0.569,6.927 -1.203,13.848 -1.818,20.771 -0.579,6.51 -1.157,13.02 -1.762,19.528 -0.776,8.34 -1.599,16.677 -2.366,25.018 -0.704,7.654 -1.359,15.313 -2.041,22.969 -0.162,1.815 -0.344,3.628 -0.533,5.613 -1.638,-1.272 -3.327,-1.018 -5.018,-0.732 -0.635,0.108 -1.264,0.267 -1.903,0.329 -0.916,0.088 -1.184,-0.172 -1.07,-1.096 0.202,-1.643 0.476,-3.278 0.701,-4.919 0.881,-6.428 1.782,-12.853 2.623,-19.286 0.721,-5.521 1.384,-11.05 2.049,-16.578 0.714,-5.939 1.41,-11.881 2.095,-17.824 0.605,-5.258 1.177,-10.519 1.777,-15.777 0.687,-6.036 1.383,-12.07 2.087,-18.104 0.602,-5.165 1.223,-10.328 1.833,-15.492 0.345,-2.924 0.739,-5.845 1.013,-8.776 0.338,-3.618 0.543,-7.248 0.863,-10.868 0.38,-4.298 1.029,-8.603 -0.886,-12.742 1.735,-1.34 3.557,-1.547 5.648,-0.951 m -74.43,56.631 c -0.679,0.799 -1.359,1.599 -2.038,2.399 -0.09,-0.082 -0.179,-0.163 -0.269,-0.244 0.733,-0.752 1.466,-1.504 2.198,-2.256 0.304,-0.397 0.584,-0.817 0.916,-1.189 2.174,-2.439 4.332,-4.892 6.546,-7.294 11.502,-12.481 22.272,-25.628 34.317,-37.614 2.218,-2.207 4.348,-4.5 6.534,-6.738 0.618,-0.633 1.291,-1.212 1.939,-1.816 -0.234,0.614 -0.622,1.06 -1.022,1.495 -15.51,16.867 -31.02,33.734 -46.536,50.596 -0.837,0.91 -1.722,1.775 -2.585,2.661 m 95.024,-126.289 c -0.218,0.309 -0.435,0.618 -0.653,0.928 -0.073,-0.059 -0.145,-0.119 -0.218,-0.178 0.259,-0.28 0.518,-0.56 0.778,-0.839 1.248,-2.063 2.773,-3.912 4.329,-5.74 -1.162,2.129 -2.479,4.142 -4.236,5.829 m 7.101,-9.745 c 0.269,-0.377 0.538,-0.754 0.808,-1.13 0.244,-0.385 0.464,-0.787 0.737,-1.15 4.532,-6.03 9.052,-12.069 13.611,-18.078 11.512,-15.171 23.248,-30.166 35.417,-44.818 0.334,-0.403 0.77,-0.721 1.159,-1.079 0.186,-0.329 0.372,-0.659 0.558,-0.988 0.083,0.062 0.166,0.124 0.249,0.187 -0.279,0.258 -0.558,0.517 -0.837,0.775 -0.257,0.421 -0.476,0.872 -0.777,1.259 -16.408,21.076 -32.823,42.147 -49.241,63.216 -0.222,0.286 -0.493,0.534 -0.741,0.799 -0.291,0.357 -0.582,0.714 -0.873,1.07 -0.288,0.358 -0.576,0.717 -0.864,1.075 -0.198,0.338 -0.396,0.677 -0.594,1.016 -0.084,-0.071 -0.169,-0.142 -0.253,-0.213 0.292,-0.259 0.584,-0.518 0.876,-0.778 0.255,-0.387 0.51,-0.775 0.765,-1.163 m -6.844,-23.205 c -0.426,0.154 -0.851,0.311 -1.277,0.463 -0.649,0.231 -1.283,0.523 -1.95,0.677 -2.122,0.488 -3.355,-0.222 -4.019,-2.288 -0.429,-1.333 -0.517,-2.631 -0.079,-4.042 0.651,-2.102 1.064,-4.279 1.541,-6.432 0.093,-0.416 0.014,-0.871 0.014,-1.406 -1.5,0.957 -2.867,4.351 -3.723,8.945 -0.714,3.829 -0.595,5.673 0.671,9.674 -0.971,-0.179 -1.487,-0.767 -1.895,-1.458 -0.74,-1.254 -1.011,-2.654 -1.192,-4.077 -0.516,-4.051 -0.207,-8.096 0.156,-12.13 0.617,-6.877 1.403,-13.739 1.952,-20.62 0.252,-3.156 0.162,-6.344 0.131,-9.517 -0.03,-2.943 -0.082,-5.894 -0.311,-8.826 -0.548,-7.025 -1.363,-14.017 -3.297,-20.823 -0.275,-0.966 -0.655,-1.925 -1.138,-2.803 -0.704,-1.28 -1.506,-1.235 -2.162,0.096 -0.363,0.737 -0.6,1.541 -0.838,2.332 -0.65,2.155 -1.233,4.33 -1.911,6.476 -2.326,7.35 -3.84,14.867 -4.758,22.516 -1.26,10.493 -1.44,21.029 -1.343,31.577 0.065,7.182 0.141,14.364 0.314,21.544 0.06,2.478 0.479,4.946 0.632,7.424 0.093,1.509 0.025,3.031 -0.043,4.544 -0.02,0.465 -0.279,0.92 -0.523,1.667 -0.559,-0.54 -1.03,-0.839 -1.28,-1.267 -0.623,-1.071 -1.228,-2.166 -1.695,-3.311 -2.878,-7.062 -4.918,-14.368 -5.875,-21.933 -0.321,-2.539 -0.093,-5.146 -0.149,-7.721 -0.037,-1.701 -0.124,-3.401 -0.211,-5.1 -0.016,-0.301 -0.142,-0.595 -0.284,-1.154 -0.268,0.451 -0.495,0.677 -0.542,0.937 -0.262,1.447 -0.574,2.894 -0.697,4.355 -0.371,4.415 -0.62,8.869 0.544,13.185 1.304,4.835 2.765,9.641 4.427,14.365 4.415,12.545 10.733,24.124 18.461,34.915 3.481,4.861 7.301,9.479 10.973,14.203 0.279,0.36 0.604,0.685 1.052,0.949 -0.094,-0.229 -0.159,-0.476 -0.288,-0.683 -2.122,-3.389 -2.403,-6.971 -1.173,-10.731 0.721,-2.207 1.811,-4.224 3.074,-6.156 2.224,-3.404 4.884,-6.461 7.578,-9.489 1.285,-1.445 2.58,-2.882 3.889,-4.306 0.395,-0.43 0.574,-0.864 0.559,-1.477 -0.053,-2.282 0.938,-4.077 2.729,-5.457 2.011,-1.55 4.332,-2.465 6.77,-2.978 3.192,-0.671 6.427,-1.137 9.645,-1.681 1.133,-0.191 2.275,-0.334 3.406,-0.537 0.384,-0.069 0.747,-0.254 1.152,-0.398 -0.75,-1.08 -1.271,-1.292 -2.324,-1.033 -2.098,0.516 -4.184,1.095 -6.302,1.513 -1.113,0.22 -2.289,0.258 -3.427,0.192 -1.214,-0.07 -1.641,-0.773 -1.189,-1.904 0.336,-0.844 0.806,-1.666 1.365,-2.383 1.498,-1.924 3.101,-3.766 4.616,-5.678 2.315,-2.921 4.59,-5.873 6.881,-8.812 0.084,-0.107 0.161,-0.22 0.244,-0.334 1.001,0.238 1.458,0.976 1.665,1.755 0.4,1.504 0.764,3.038 0.922,4.582 0.523,5.104 0.168,10.212 -0.124,15.313 -0.544,9.514 -1.206,19.021 -1.672,28.538 -0.157,3.208 0.007,6.447 0.238,9.656 0.546,7.592 -0.46,14.967 -2.773,22.188 -2.684,8.377 -6.967,15.909 -12.191,22.936 -6.631,8.919 -14.489,16.665 -22.929,23.845 -2.314,1.968 -4.713,3.837 -7.04,5.79 -1.055,0.886 -2.011,1.889 -3.045,2.8 -1.518,1.337 -3.016,2.707 -4.624,3.928 -0.783,0.595 -1.762,1.001 -2.715,1.287 -1.303,0.391 -2.345,-0.069 -2.784,-1.351 -0.44,-1.284 -0.807,-2.684 -0.775,-4.023 0.081,-3.399 0.354,-6.797 0.644,-10.188 0.235,-2.75 0.639,-5.485 0.899,-8.234 0.09,-0.953 -0.022,-1.925 -0.053,-2.889 -0.043,-1.347 0.507,-1.799 1.787,-1.36 0.801,0.275 1.557,0.682 2.578,1.139 -1.565,-3.037 -2.099,-6.1 -2.489,-9.197 -0.23,-1.827 -0.376,-3.666 -0.678,-5.48 -0.203,-1.216 -0.499,-2.443 -0.958,-3.583 -0.702,-1.744 -1.881,-2.44 -3.722,-2.107 -1.244,0.224 -2.462,0.726 -3.615,1.268 -0.738,0.348 -1.395,0.495 -2.079,0.092 -1.262,-0.744 -2.579,-1.435 -3.715,-2.345 -2.496,-2 -4.472,-4.502 -6.38,-7.048 -3.65,-4.871 -6.82,-10.055 -9.903,-15.293 -3.083,-5.235 -6.137,-10.487 -9.201,-15.733 -0.162,-0.277 -0.329,-0.558 -0.443,-0.856 -2.816,-7.344 -5.72,-14.655 -8.405,-22.046 -1.982,-5.455 -3.4,-11.085 -4.181,-16.85 -0.792,-5.841 -0.907,-11.659 0.945,-17.358 1.608,-4.948 4.592,-8.87 8.881,-11.804 0.293,-0.2 0.606,-0.37 1.05,-0.639 0.04,0.355 0.092,0.561 0.082,0.764 -0.728,14.244 2.284,27.804 7.501,40.958 3.863,9.739 8.841,18.91 14.111,27.944 4.928,8.448 10.685,16.325 16.325,24.286 5.084,7.177 10.203,14.328 15.923,21.022 4.257,4.982 8.78,9.692 14.08,13.594 0.85,0.626 1.733,1.208 2.759,1.679 -0.203,-0.257 -0.383,-0.537 -0.612,-0.77 -14.344,-14.585 -27.212,-30.37 -38.547,-47.402 -5.282,-7.937 -10.223,-16.085 -14.647,-24.531 -1.534,-2.928 -2.699,-6.047 -4.062,-9.066 -3.087,-6.836 -6.205,-13.658 -8.609,-20.775 -1.638,-4.851 -2.945,-9.779 -3.318,-14.915 -0.246,-3.392 0.036,-6.715 1.25,-9.918 1.235,-3.256 3.376,-5.774 6.314,-7.625 0.187,-0.118 0.398,-0.198 0.755,-0.371 0.424,1.769 0.84,3.442 1.225,5.122 2.104,9.193 4.196,18.388 6.912,27.426 2.546,8.473 5.524,16.779 9.615,24.651 1.743,3.355 3.758,6.536 5.904,9.65 4.076,5.912 8.043,11.899 12.084,17.835 5.469,8.034 11.118,15.935 17.487,23.293 4.774,5.516 9.888,10.674 15.878,14.894 0.405,0.286 0.827,0.547 1.403,0.675 -0.236,-0.278 -0.454,-0.573 -0.709,-0.831 -9.88,-10.006 -19.134,-20.557 -27.6,-31.79 -10.389,-13.783 -19.601,-28.299 -27.019,-43.908 -3.758,-7.907 -6.953,-16.039 -9.109,-24.546 -1.213,-4.79 -2.109,-9.635 -1.787,-14.604 0.109,-1.685 0.373,-3.398 0.85,-5.015 1.366,-4.64 4.563,-7.34 9.301,-8.164 1.352,-0.235 2.746,-0.228 4.122,-0.313 0.499,-0.03 1.001,-0.004 1.501,-0.084 -3.237,-0.655 -6.474,-0.586 -9.715,-0.054 -5.629,0.924 -10.763,3.166 -15.577,6.112 -4.315,2.641 -8.51,5.483 -12.728,8.281 -4.296,2.851 -8.579,5.718 -13.25,7.941 -3.042,1.449 -6.168,2.652 -9.494,3.272 -0.712,0.133 -1.226,0.46 -1.686,1.049 -5.184,6.645 -9.301,13.918 -12.757,21.582 -4.151,9.205 -7.288,18.775 -10.23,28.417 -2.577,8.447 -5.14,16.898 -7.753,25.334 -0.897,2.898 -2.06,5.717 -2.867,8.637 -1.867,6.76 -2.419,13.666 -1.92,20.66 0.896,12.561 4.886,24.196 10.55,35.332 3.41,6.702 7.405,13.044 11.817,19.129 0.378,0.521 0.753,1.045 1.215,1.687 -0.337,0.402 -0.67,0.823 -1.026,1.222 -9.353,10.477 -18.706,20.954 -28.065,31.425 -4.081,4.566 -8.191,9.107 -12.25,13.693 -0.584,0.66 -1.106,0.855 -2,0.75 -1.45,-0.171 -2.947,-0.218 -4.396,-0.062 -2.539,0.273 -3.461,1.898 -2.624,4.321 0.583,1.687 1.63,3.088 2.794,4.403 2.219,2.507 4.777,4.591 7.813,6.042 1.167,0.558 2.381,0.99 3.707,0.96 1.531,-0.034 2.572,-0.718 2.974,-2.192 0.25,-0.915 0.392,-1.919 0.295,-2.853 -0.104,-1.013 0.196,-1.745 0.763,-2.526 6.063,-8.352 12.448,-16.455 19.263,-24.2 9.46,-10.75 19.068,-21.369 28.594,-32.062 4.686,-5.26 9.348,-10.542 13.983,-15.848 1.513,-1.732 2.896,-3.578 4.359,-5.355 0.574,-0.697 1.174,-1.38 2.14,-2.012 0,0.464 0.06,0.722 -0.009,0.939 -0.614,1.928 -1.241,3.851 -1.882,5.77 -1.095,3.276 -2.134,6.565 -2.478,10.025 -0.05,0.501 -0.086,1.002 0.061,1.563 0.126,-0.346 0.258,-0.689 0.377,-1.037 3.736,-10.933 8.93,-21.086 16.182,-30.128 2.109,-2.63 4.467,-5.022 7.149,-7.079 2.167,-1.663 4.492,-3.044 7.1,-3.909 0.242,-0.08 0.472,-0.192 0.669,-0.382 -3.172,0.244 -5.771,1.894 -8.532,3.376 0.189,-0.274 0.356,-0.566 0.571,-0.819 1.402,-1.649 2.84,-3.267 4.209,-4.942 0.603,-0.737 1.327,-1.029 2.182,-0.774 0.957,0.286 1.895,0.671 2.79,1.117 0.606,0.303 1.123,0.784 1.796,1.269 -0.269,-1.211 -0.572,-2.289 -0.741,-3.388 -0.454,-2.956 0.159,-5.871 0.42,-8.799 0.155,-1.73 0.255,-3.464 0.39,-5.338 -2.281,0.509 -4.36,0.79 -6.473,0.294 -2.048,-0.48 -3.807,-1.522 -5.55,-2.871 0.017,0.322 -0.006,0.465 0.034,0.586 0.951,2.877 0.266,5.5 -1.46,7.822 -1.172,1.578 -2.497,3.094 -3.976,4.382 -2.67,2.326 -5.533,4.43 -8.265,6.686 -2.554,2.109 -5.093,4.242 -7.545,6.467 -1.778,1.614 -3.187,3.552 -4.371,5.661 -2.342,4.174 -4.691,8.346 -7.141,12.457 -2.746,4.605 -5.975,8.85 -9.912,12.522 -0.33,0.308 -0.679,0.596 -1.094,0.958 -0.72,-1.171 -0.844,-2.388 -0.898,-3.621 -0.148,-3.364 0.597,-6.585 1.619,-9.753 2.206,-6.838 5.525,-13.137 9.397,-19.157 3.949,-6.14 8.396,-11.883 13.825,-16.804 1.362,-1.233 2.875,-2.298 4.287,-3.477 2.933,-2.451 5.638,-5.134 8.239,-8.095 -0.732,-0.22 -1.092,0.212 -1.45,0.483 -1.724,1.306 -3.452,2.612 -5.118,3.991 -4.719,3.909 -9.265,8.01 -13.497,12.449 -1.812,1.9 -3.585,3.835 -4.924,6.12 -0.159,0.271 -0.391,0.514 -0.633,0.719 -4.656,3.948 -7.566,9.02 -9.149,14.815 -1.15,4.208 -1.953,8.513 -2.824,12.792 -0.919,4.511 -1.749,9.039 -3.672,13.268 -1.036,2.277 -2.35,4.378 -4.087,6.194 -0.184,0.193 -0.409,0.347 -0.616,0.521 -1.397,-1.714 -2.26,-3.578 -2.697,-5.708 -1.597,-7.776 -1.968,-15.595 -1.134,-23.487 0.853,-8.079 2.838,-15.838 6.416,-23.155 2.095,-4.283 4.812,-8.133 7.921,-11.758 5.396,-6.291 11.859,-11.428 17.944,-16.974 1.804,-1.644 3.614,-3.282 5.438,-4.902 0.448,-0.397 0.966,-0.715 1.339,-1.206 -0.69,-0.346 -1.055,0.034 -1.426,0.273 -5.86,3.763 -11.494,7.815 -16.507,12.686 -7.717,7.498 -13.893,16.068 -18.141,25.981 -3.769,8.797 -5.679,17.972 -5.35,27.555 0.095,2.751 0.527,5.492 0.817,8.236 0.047,0.447 0.289,0.921 -0.244,1.237 -0.547,0.324 -1.047,0.042 -1.364,-0.32 -1.026,-1.171 -2.114,-2.321 -2.937,-3.631 -2.788,-4.435 -4.684,-9.268 -6.045,-14.316 -0.987,-3.663 -1.578,-7.378 -1.375,-11.189 0.118,-2.231 0.595,-4.364 1.616,-6.373 0.263,-0.518 0.416,-1.123 0.483,-1.703 0.795,-6.871 3.413,-13.045 7.131,-18.803 3.364,-5.209 7.398,-9.875 11.788,-14.225 4.71,-4.666 9.555,-9.195 14.273,-13.853 2.515,-2.484 4.886,-5.115 7.322,-7.68 -0.069,-0.083 -0.138,-0.166 -0.207,-0.249 -0.279,0.186 -0.571,0.355 -0.835,0.56 -7.65,5.932 -15.023,12.179 -21.644,19.265 -6.035,6.459 -11.307,13.46 -15.124,21.483 -3.757,7.898 -5.706,16.198 -5.568,24.965 0.005,0.322 -0.001,0.643 -0.008,0.965 -0.001,0.043 -0.032,0.085 -0.1,0.252 -0.255,-0.17 -0.527,-0.289 -0.716,-0.488 -1.134,-1.199 -1.772,-2.675 -2.273,-4.217 -1.089,-3.36 -1.489,-6.845 -1.577,-10.341 -0.345,-13.749 1.677,-27.155 6.05,-40.2 4.51,-10.46 7.469,-21.45 11.021,-32.237 2.204,-6.691 4.641,-13.291 7.88,-19.567 2.801,-5.429 6.19,-10.439 10.397,-14.899 0.936,-0.992 1.792,-1.057 2.921,-0.626 1.603,0.613 2.743,1.744 3.37,3.28 0.586,1.437 0.965,2.962 1.38,4.464 0.194,0.703 0.256,1.442 0.451,2.187 0.952,-7.775 4.134,-14.213 10.946,-18.733 0,0.511 0.024,0.822 -0.003,1.129 -0.558,6.299 -0.59,12.603 0.003,18.896 0.868,9.204 2.895,18.16 5.927,26.892 3.412,9.827 8.137,18.997 13.434,27.936 3.894,6.571 8.504,12.566 13.178,18.555 2.232,2.861 4.28,5.877 6.261,8.921 1.586,2.438 2.662,5.143 3.384,7.974 0.062,0.243 0.155,0.48 0.334,1.027 0.671,-1.901 1.084,-3.588 2.244,-4.885 l 0.295,0.078 c -3.272,27.802 -6.543,55.604 -9.815,83.406 0.382,-7.61 1.222,-15.18 1.838,-22.79 -0.105,0.241 -0.241,0.473 -0.311,0.724 -1.175,4.214 -3.867,7.254 -7.438,9.607 -3.137,2.066 -6.582,3.483 -10.115,4.69 -4.655,1.59 -9.319,3.16 -14.005,4.657 -2.422,0.773 -4.527,1.95 -6.256,3.84 -1.055,1.153 -2.249,2.177 -3.368,3.271 -0.313,0.307 -0.582,0.657 -0.872,0.988 0.057,0.079 0.114,0.159 0.171,0.238 0.536,-0.304 1.08,-0.594 1.606,-0.915 3.223,-1.963 6.415,-3.977 9.669,-5.886 2.581,-1.513 5.246,-2.889 8.121,-3.766 1.178,-0.359 2.425,-0.49 3.629,-0.771 0.521,-0.122 1.035,-0.32 1.519,-0.552 1.946,-0.934 3.84,-1.992 5.833,-2.805 1.124,-0.459 2.397,-0.668 3.618,-0.748 2.02,-0.13 3.414,0.911 4.185,2.76 0.63,1.511 0.869,3.125 0.794,4.734 -0.126,2.708 -0.295,5.425 -0.651,8.111 -0.744,5.609 -1.679,11.193 -2.414,16.803 -0.268,2.043 -0.19,4.131 -0.267,6.199 -0.01,0.265 -0.002,0.531 -0.002,0.882 -0.27,-0.066 -0.454,-0.078 -0.606,-0.153 -7.22,-3.559 -14.466,-7.067 -21.645,-10.707 -4.689,-2.378 -9.12,-5.195 -13.097,-8.667 -1.177,-1.028 -2.271,-2.152 -3.416,-3.218 -0.29,-0.271 -0.631,-0.486 -0.949,-0.727 l 0.027,-0.026 c 0.23,0.384 0.424,0.793 0.694,1.145 1.54,2.015 3.033,4.061 4.038,6.407 0.243,0.568 0.666,0.849 1.174,1.084 3.547,1.641 7.103,3.263 10.638,4.93 3.867,1.824 7.743,3.632 11.558,5.559 2.345,1.185 4.477,2.729 6.452,4.476 5.365,4.745 7.186,10.662 5.612,17.575 -0.547,2.406 -1.534,4.712 -2.314,7.065 -0.214,0.644 -0.673,1.025 -1.212,1.425 -1.174,0.87 -2.404,1.735 -3.348,2.83 -1.692,1.964 -1.625,4.251 -0.058,6.33 1.021,1.356 2.374,2.309 3.879,3.038 2.917,1.412 6.009,1.981 9.242,1.808 1.147,-0.061 2.301,-0.055 3.439,-0.19 0.903,-0.106 1.852,-0.236 2.666,-0.608 2.25,-1.028 2.805,-3.512 1.193,-5.391 -0.703,-0.819 -1.66,-1.421 -2.645,-2.24 2.236,-25.213 4.487,-50.602 6.745,-76.063 0.291,-0.13 0.568,-0.28 0.861,-0.383 10.239,-3.608 19.328,-9.194 27.656,-16.084 8.125,-6.722 15.217,-14.44 21.799,-22.649 5.562,-6.938 10.697,-14.192 15.661,-21.558 5.614,-8.331 9.229,-17.562 11.642,-27.283 1.957,-7.882 3.052,-15.894 3.645,-23.986 0.539,-7.351 0.665,-14.712 0.657,-22.078 -0.004,-3.82 0.213,-7.646 0.07,-11.459 -0.385,-10.221 -1.313,-20.391 -3.545,-30.399 -0.36,-1.61 -0.896,-3.185 -1.429,-4.75 -0.218,-0.641 -0.608,-1.236 -0.989,-1.805 -0.277,-0.413 -0.665,-0.759 -1.368,-0.508 0.373,1.446 0.739,2.856 1.101,4.266 1.974,7.685 3.17,15.496 3.84,23.397 0.568,6.704 0.855,13.42 0.671,20.14 -0.181,6.624 -0.485,13.249 -0.929,19.86 -0.447,6.657 -1.097,13.301 -1.741,19.943 -0.14,1.45 -0.58,2.88 -0.971,4.294 -3.744,13.566 -9.745,26.088 -17.571,37.751 -11.448,17.059 -25.808,31.26 -42.485,43.179 -1.347,0.962 -2.611,2.038 -3.96,2.996 -1.534,1.091 -3.088,2.16 -4.697,3.134 -0.69,0.417 -1.523,0.65 -2.323,0.826 -1.976,0.434 -3.497,-0.251 -4.27,-2.123 -0.518,-1.255 -0.887,-2.636 -0.988,-3.986 -0.347,-4.639 0.48,-9.167 1.567,-13.658 0.157,-0.651 0.674,-0.829 1.139,-1.099 4.935,-2.874 9.728,-5.965 14.341,-9.334 11.678,-8.531 22.03,-18.408 30.55,-30.139 4.532,-6.24 8.365,-12.879 11.502,-19.932 0.919,-2.064 1.212,-4.24 1.57,-6.405 1.278,-7.728 2.066,-15.515 2.261,-23.345 0.267,-10.721 0.326,-21.448 0.611,-32.169 0.195,-7.36 0.68,-14.711 0.927,-22.07 0.186,-5.53 2.208,-10.385 5.115,-14.956 2.927,-4.6 6.506,-8.689 10.03,-12.825 3.612,-4.239 7.237,-8.471 10.704,-12.828 3.077,-3.865 5.67,-8.07 7.353,-12.744 0.693,-1.925 1.649,-3.672 2.647,-5.434 1.107,-1.956 2.078,-3.995 3.015,-6.041 0.315,-0.689 0.442,-1.505 0.481,-2.272 0.059,-1.164 -0.6,-1.764 -1.731,-1.523 -0.977,0.209 -1.998,0.5 -2.836,1.018 -2.344,1.449 -4.697,2.913 -6.876,4.592 -4.68,3.61 -8.958,7.666 -12.561,12.373 -1.082,1.415 -2.039,2.964 -2.816,4.567 -2.826,5.828 -6.46,11.024 -11.41,15.257 -5.541,4.738 -11.922,7.764 -19.005,9.335 -9.781,2.169 -19.478,1.487 -29.111,-0.969 -0.401,-0.102 -0.795,-0.239 -1.201,-0.309 -0.523,-0.091 -1.321,0.331 -1.437,0.825 -0.056,0.236 0.087,0.667 0.278,0.784 0.421,0.256 0.918,0.465 1.404,0.523 2.464,0.294 4.931,0.701 7.404,0.759 6.81,0.162 13.625,0.17 20.438,0.237 0.475,0.005 0.951,10e-4 1.444,0.236 -0.1,0.066 -0.193,0.156 -0.304,0.196 -3.92,1.434 -7.455,3.583 -10.889,5.909 -2.515,1.703 -5.005,3.444 -7.501,5.175 -0.223,0.156 -0.407,0.367 -0.61,0.552 0.345,-0.11 0.719,-0.166 1.03,-0.337 6.673,-3.682 13.779,-6.334 20.957,-8.814 0.294,-0.101 0.603,-0.16 0.961,-0.254 0.812,1.309 1.204,2.609 0.849,4.108 -0.443,1.87 -1.492,3.388 -2.842,4.648 -1.746,1.629 -3.549,3.228 -5.493,4.606 -3.152,2.234 -6.453,4.256 -9.664,6.408 -4.28,2.868 -8.598,5.688 -12.782,8.693 -3.185,2.287 -6.037,4.979 -8.274,8.253 -0.197,0.289 -0.43,0.553 -0.711,0.91 -0.092,-0.308 -0.147,-0.482 -0.196,-0.657 -0.049,-0.178 -0.103,-0.355 -0.136,-0.535 -0.979,-5.349 -0.101,-10.344 2.855,-14.941 2.356,-3.662 5.523,-6.511 9.03,-9.023 0.39,-0.28 0.717,-0.649 1.073,-0.977"
             id="path13241"
             style="fill:#4d4d4d;fill-opacity:1;fill-rule:nonzero;stroke:none" /><path
             d="m 573.1598,458.5755 c -10e-4,-0.085 -0.002,-0.17 -0.004,-0.254 0.736,0 1.473,0.011 2.209,-0.002 9.57,-0.166 19.139,-0.35 28.71,-0.499 12.656,-0.198 25.31,-0.142 37.964,0.206 2.579,0.071 4.996,0.499 7.278,1.719 0.93,0.497 1.931,0.859 2.891,1.302 10.937,5.046 21.873,10.096 32.808,15.148 0.264,0.122 0.512,0.281 0.768,0.422 -0.587,0.039 -1.097,-0.124 -1.603,-0.298 -6.832,-2.348 -13.778,-4.292 -20.81,-5.938 -8.109,-1.898 -16.293,-3.404 -24.532,-4.593 -6.007,-0.866 -12.037,-1.592 -18.065,-2.308 -4.613,-0.547 -9.239,-0.995 -13.861,-1.461 -5.264,-0.531 -10.531,-1.027 -15.796,-1.547 -4.944,-0.489 -9.887,-0.986 -14.83,-1.492 -1.045,-0.107 -2.085,-0.269 -3.127,-0.405 m 43.077,67.573 c -0.394,0.032 -0.614,0.071 -0.833,0.064 -3.355,-0.11 -6.715,-0.151 -10.064,-0.361 -3.676,-0.23 -7.333,-0.722 -10.844,-1.877 -2.087,-0.685 -4.29,-1.322 -6.083,-2.517 -2.363,-1.577 -4.273,-3.775 -5.601,-6.364 -1.636,-3.19 -1.021,-5.9 1.95,-7.936 1.312,-0.898 2.793,-1.603 4.281,-2.179 3.536,-1.369 7.263,-1.991 11.005,-2.468 7.596,-0.968 15.227,-1.053 22.867,-0.803 0.78,0.025 1.557,0.153 2.335,0.233 -0.197,0.185 -0.378,0.203 -0.558,0.231 -6.775,1.036 -12.267,4.238 -16.373,9.747 -1.027,1.378 -1.77,2.914 -2.09,4.613 -0.513,2.724 0.215,5.064 2.495,6.702 1.101,0.792 2.382,1.379 3.654,1.875 1.179,0.459 2.453,0.673 3.859,1.04 m -168.548,45.794 c 0.377,-0.785 0.743,-1.576 1.135,-2.354 2.012,-3.983 4.005,-7.978 6.055,-11.942 2.247,-4.344 4.761,-8.518 8.064,-12.167 3.827,-4.228 8.496,-7.08 13.888,-8.929 3.12,-1.069 6.095,-2.564 9.125,-3.892 0.44,-0.192 0.82,-0.52 1.227,-0.785 -0.033,-0.104 -0.067,-0.207 -0.1,-0.311 -0.459,0.061 -0.928,0.083 -1.376,0.191 -4.359,1.051 -8.511,2.69 -12.501,4.695 -2.707,1.359 -5.352,2.876 -7.877,4.545 -1.514,1 -2.743,2.43 -4.101,3.665 -0.121,0.11 -0.249,0.211 -0.557,0.47 0.157,-0.522 0.238,-0.825 0.339,-1.12 2.961,-8.652 4.844,-17.547 6.061,-26.597 1.279,-9.504 1.834,-19.057 1.995,-28.637 0.068,-4.005 0.099,-8.01 0.15,-12.015 0.005,-0.401 0.037,-0.802 0.071,-1.5 0.608,0.512 1.13,0.808 1.452,1.25 0.84,1.148 1.692,2.306 2.36,3.556 2.459,4.603 4.245,9.494 5.805,14.453 3.024,9.608 5.92,19.257 8.871,28.888 0.472,1.54 0.883,3.103 1.451,4.606 0.847,2.239 1.107,4.546 1.082,6.91 -0.005,0.414 -10e-4,0.827 0.206,1.279 0.208,-1.118 0.356,-2.251 0.636,-3.35 0.528,-2.07 0.288,-4.026 -0.329,-6.069 -3.127,-10.347 -6.047,-20.757 -9.669,-30.949 -3.459,-9.731 -7.483,-19.205 -12.74,-28.121 -3.091,-5.242 -6.547,-10.229 -10.504,-14.861 -0.267,-0.313 -0.517,-0.641 -0.81,-1.007 0.628,-0.716 1.475,-0.952 2.286,-1.213 2.57,-0.826 5.239,-1.009 7.908,-1.085 4.979,-0.142 9.937,0.243 14.891,0.686 9.259,0.829 18.517,1.677 27.779,2.471 1.495,0.128 3.011,0.018 4.517,0.018 0.005,0.11 0.011,0.22 0.017,0.329 -0.763,0.083 -1.527,0.251 -2.287,0.234 -3.543,-0.077 -7.089,-0.132 -10.626,-0.329 -9.15,-0.51 -18.299,-1.039 -27.465,-0.663 -4.325,0.177 -8.633,0.587 -12.802,1.88 -0.301,0.093 -0.591,0.218 -0.909,0.515 0.315,0.041 0.632,0.12 0.947,0.117 7.043,-0.073 14.087,-0.156 21.13,-0.237 4.512,-0.052 9.024,-0.107 13.536,-0.153 4.097,-0.042 8.195,-0.149 12.291,-0.095 8.193,0.108 36.09,4.486 44.274,4.852 7.536,0.337 15.068,0.938 22.58,1.653 8.794,0.837 17.564,1.934 26.346,2.897 7.136,0.782 14.284,1.462 21.412,2.311 13.254,1.578 26.432,3.618 39.4,6.854 8.981,2.241 17.78,5.037 26.359,8.527 0.962,0.392 1.528,0.926 1.723,1.912 0.259,1.305 0.666,2.596 0.774,3.913 0.303,3.669 -1.201,6.52 -4.204,8.608 -2.504,1.742 -5.344,2.649 -8.28,3.292 -5.334,1.17 -10.756,1.48 -16.196,1.444 -5.477,-0.037 -10.954,-0.212 -16.432,-0.264 -2.161,-0.02 -4.326,0.239 -6.484,0.183 -6.442,-0.168 -12.882,-0.399 -19.321,-0.662 -6.49,-0.265 -12.982,-0.486 -19.456,0.186 -6.321,0.656 -12.413,2.153 -17.969,5.395 -2.031,1.185 -3.945,2.528 -5.685,4.189 1.384,4.928 4.037,8.957 8.123,12.022 3.675,2.758 7.869,4.355 12.29,5.408 5.668,1.351 11.441,1.865 17.25,1.976 6.536,0.124 13.074,0.152 19.61,0.248 1.702,0.025 3.402,0.204 5.104,0.214 3.819,0.02 7.64,0.064 11.455,-0.061 4.416,-0.145 8.831,-0.398 13.238,-0.72 3.899,-0.285 7.789,-0.711 11.679,-1.12 0.798,-0.083 1.574,-0.367 2.636,-0.625 -0.44,-0.334 -0.618,-0.581 -0.827,-0.61 -1.496,-0.206 -2.998,-0.512 -4.498,-0.51 -2.481,0.002 -4.962,0.21 -7.48,0.175 0.401,-0.104 0.797,-0.246 1.205,-0.307 4.367,-0.657 8.772,-1.126 13.094,-2.002 3.91,-0.792 7.733,-2.012 11.585,-3.077 0.441,-0.122 0.979,-0.238 1.283,-0.971 -0.771,-0.04 -1.438,-0.15 -2.091,-0.095 -3.622,0.303 -7.251,0.56 -10.858,0.995 -4.933,0.594 -9.844,1.367 -14.773,1.992 -1.685,0.214 -3.405,0.141 -5.095,0.325 -4.483,0.486 -8.959,1.028 -13.435,1.573 -5.942,0.725 -11.884,1.407 -17.889,1.272 -3.284,-0.074 -6.538,-0.369 -9.651,-1.451 -1.42,-0.494 -2.814,-1.159 -4.089,-1.956 -2.616,-1.635 -4.175,-4.087 -4.989,-7.041 -0.201,-0.734 -0.081,-1.256 0.528,-1.81 3.903,-3.554 8.342,-6.184 13.329,-7.892 4.293,-1.47 8.728,-2.223 13.241,-2.562 6.947,-0.52 13.895,-0.233 20.845,-0.065 6.311,0.153 12.616,0.051 18.861,-1.031 6.733,-1.166 12.861,-3.685 18.304,-7.908 1.896,-1.471 2.676,-3.338 2.933,-5.523 0.16,-1.362 0.115,-2.762 0.022,-4.136 -0.112,-1.657 -0.919,-3.066 -1.898,-4.371 -1.12,-1.492 -2.54,-2.66 -4.089,-3.675 -2.789,-1.828 -5.828,-3.143 -8.957,-4.244 -4.251,-1.495 -8.53,-2.909 -12.782,-4.399 -1.343,-0.47 -2.653,-1.043 -3.955,-1.62 -1.734,-0.769 -3.285,-1.797 -4.71,-3.081 -4.323,-3.895 -9.499,-6.059 -15.152,-7.179 -6.327,-1.254 -12.72,-1.216 -19.124,-0.974 -5.842,0.221 -11.683,0.486 -17.527,0.604 -2.385,0.048 -4.776,-0.248 -7.165,-0.373 -0.642,-0.033 -1.288,-0.03 -1.931,-0.009 -5.981,0.192 -11.961,0.435 -17.943,0.579 -10.314,0.248 -20.625,-0.041 -30.928,-0.471 -9.245,-0.386 -38.179,-5.302 -47.416,-5.846 -7.72,-0.454 -15.436,-0.978 -23.154,-1.479 -5.007,-0.325 -10.013,-0.666 -15.02,-0.992 -0.735,-0.048 -1.476,-0.115 -2.208,-0.07 -4.936,0.305 -9.617,-0.771 -14.097,-2.725 -3.244,-1.415 -6.43,-2.968 -9.601,-4.542 -4.657,-2.313 -9.306,-4.628 -14.321,-6.106 -4.096,-1.207 -8.263,-1.743 -12.535,-1.631 -2.298,0.061 -4.601,-0.069 -6.902,-0.108 -0.589,-0.01 -1.178,-0.001 -1.793,0.181 1.117,0.184 2.233,0.376 3.352,0.548 3.776,0.583 7.547,1.21 11.149,2.528 1.239,0.454 2.42,1.109 3.555,1.793 0.914,0.55 1.26,1.436 1.315,2.566 0.233,4.781 0.553,9.559 0.879,14.335 0.3,4.409 0.726,8.81 0.96,13.222 0.367,6.895 0.7,13.794 0.898,20.695 0.219,7.645 -0.028,15.285 -0.855,22.896 -1.229,11.319 -3.768,22.302 -8.418,32.746 -1.971,4.426 -4.373,8.612 -6.893,12.738 -8.76,14.341 -18.599,27.873 -30.108,40.151 -11.18,11.928 -23.577,22.362 -37.866,30.404 -4.002,2.253 -8.203,4.153 -12.315,6.211 -0.446,0.223 -0.905,0.423 -1.331,0.712 1.911,-0.124 3.741,-0.596 5.554,-1.143 6.008,-1.813 11.446,-4.776 16.621,-8.26 6.861,-4.618 13.084,-10.015 19.02,-15.747 7.819,-7.551 15.454,-15.289 22.613,-23.467 12.366,-14.126 22.062,-29.886 28.544,-47.559 3.293,-8.977 5.581,-18.206 6.729,-27.698 0.775,-6.406 1.11,-12.839 0.728,-19.296 -0.054,-0.907 0.101,-1.829 0.198,-2.74 0.418,-3.924 0.051,-7.825 -0.436,-11.707 -0.786,-6.254 -1.744,-12.487 -2.514,-18.743 -0.472,-3.836 -0.86,-7.698 -0.379,-11.568 0.153,-1.222 0.398,-2.465 0.825,-3.615 1.008,-2.717 3.069,-3.852 5.903,-3.249 1.292,0.274 2.582,0.709 3.773,1.281 1.612,0.774 3.122,1.758 4.687,2.632 0.675,0.378 1.078,0.932 1.394,1.633 2.819,6.248 4.676,12.781 5.767,19.533 1.356,8.395 1.615,16.844 1.238,25.331 -0.401,9.023 -1.393,17.985 -2.517,26.938 -0.229,1.826 -0.406,3.66 -0.664,5.482 -0.147,1.042 -0.309,2.101 -0.632,3.098 -5.753,17.755 -14.051,34.285 -24.12,49.957 -11.014,17.143 -23.858,32.833 -37.837,47.621 -1.675,1.773 -3.229,3.665 -4.964,5.375 -4.716,4.647 -10.323,7.996 -16.296,10.726 -5.102,2.332 -10.294,4.465 -15.432,6.718 -5.702,2.5 -11.242,5.294 -16.189,9.132 -1.078,0.836 -2.106,1.735 -3.157,2.606 0.054,0.095 0.108,0.19 0.162,0.285 0.796,-0.293 1.626,-0.517 2.382,-0.89 3.919,-1.931 7.83,-3.879 11.724,-5.86 6.97,-3.545 13.915,-7.139 20.895,-10.664 1.763,-0.89 3.63,-1.571 5.423,-2.402 0.782,-0.362 1.572,-0.772 2.237,-1.31 15.155,-12.267 28.325,-26.425 39.941,-42.053 14.382,-19.347 25.937,-40.296 35.225,-62.511 0.77,-1.842 1.052,-3.899 1.469,-5.876 1.303,-6.171 2.319,-12.394 2.984,-18.665 0.968,-9.119 1.419,-18.259 1.026,-27.436 -0.246,-5.755 -0.69,-11.487 -1.499,-17.188 -0.419,-2.959 -0.955,-5.903 -1.479,-8.847 -0.095,-0.53 -0.375,-1.031 -0.596,-1.534 -0.611,-1.389 -1.255,-2.764 -1.842,-4.162 -0.212,-0.504 -0.359,-1.051 -0.436,-1.592 -0.164,-1.158 0.385,-1.606 1.432,-1.107 0.823,0.392 1.626,0.883 2.325,1.465 4.348,3.625 8.068,7.8 10.954,12.692 0.279,0.474 0.592,0.933 0.931,1.366 3.398,4.334 5.404,9.276 6.392,14.655 1.091,5.939 1.077,11.921 0.386,17.886 -0.82,7.084 -1.879,14.14 -2.723,21.222 -0.452,3.79 -0.592,7.616 -1.022,11.409 -0.221,1.952 -0.684,3.889 -1.18,5.796 -4.448,17.088 -11.917,32.822 -21.426,47.635 -1.138,1.773 -2.309,3.524 -3.307,5.435 1.495,-1.508 3.18,-2.873 4.442,-4.556 1.843,-2.459 3.381,-5.146 5.052,-7.734 0.046,-0.071 0.125,-0.12 0.188,-0.179 l -0.034,0.041 z"
             id="path13243"
             style="fill:#4d4d4d;fill-opacity:1;fill-rule:nonzero;stroke:none" /><path
             d="m 447.7231,571.9017 c 0.008,0.129 0.016,0.257 0.033,0.527 0.529,-0.314 1.006,-0.557 1.44,-0.861 3.051,-2.143 6.093,-4.299 9.139,-6.448 3.802,-2.683 7.681,-5.237 11.934,-7.17 2.48,-1.128 5.039,-2.013 7.728,-2.489 0.627,-0.111 1.266,-0.162 2.028,-0.257 0.448,1.379 0.46,2.745 0.435,4.1 -0.102,5.639 -1.594,10.998 -3.371,16.29 -2.963,8.827 -6.89,17.254 -10.69,25.735 -3.461,7.725 -6.82,15.495 -10.237,23.239 -0.899,2.036 -1.326,4.201 -1.848,6.345 -0.778,3.191 -1.907,6.25 -3.766,8.993 -3.371,4.976 -8.083,7.014 -14.016,6.401 -4.381,-0.452 -8.415,-1.989 -12.226,-4.074 -2.941,-1.61 -5.748,-3.467 -8.586,-5.26 -2.839,-1.794 -5.639,-3.651 -8.466,-5.465 -0.486,-0.312 -1.022,-0.547 -1.534,-0.818 -0.063,0.085 -0.126,0.169 -0.188,0.254 0.365,0.356 0.702,0.748 1.099,1.065 7.035,5.622 14.513,10.555 22.665,14.417 2.493,1.181 5.071,2.155 7.904,2.32 0.274,1.517 -0.257,2.688 -1.163,3.732 -1.048,1.207 -2.391,2.005 -3.815,2.678 -3.44,1.627 -7.112,2.488 -10.82,3.196 -5.837,1.116 -11.738,1.757 -17.654,2.268 -4.081,0.352 -8.162,0.715 -12.241,1.093 -0.436,0.041 -0.86,0.218 -1.426,0.368 -0.296,-0.583 -0.368,-1.297 -0.34,-2.009 0.098,-2.484 0.225,-4.966 0.348,-7.448 0.027,-0.549 0.078,-1.096 0.007,-1.664 -0.182,0.758 -0.353,1.519 -0.549,2.273 -1.235,4.763 -4.069,8.28 -8.336,10.678 -3.29,1.849 -6.852,2.972 -10.544,3.54 -4.544,0.698 -9.12,1.22 -13.696,1.67 -5.54,0.545 -11.108,0.841 -16.552,2.12 -0.069,0.016 -0.152,-0.029 -0.34,-0.07 0.758,-0.493 1.47,-0.91 2.132,-1.395 4.232,-3.103 8.485,-6.177 12.666,-9.347 3.232,-2.45 6.553,-4.63 10.32,-6.28 10.601,-4.644 20.198,-10.968 29.149,-18.287 9.23,-7.547 17.507,-16.044 25.128,-25.193 0.321,-0.385 0.604,-0.814 0.83,-1.26 0.498,-0.985 0.917,-2.01 1.426,-2.988 0.487,-0.937 1.048,-1.835 1.497,-2.865 -0.193,0.175 -0.409,0.331 -0.576,0.529 -8.58,10.133 -17.77,19.69 -27.526,28.687 -2.661,2.455 -5.654,4.572 -8.618,6.67 -7.448,5.271 -15.394,9.743 -23.314,14.25 -6.84,3.892 -13.703,7.746 -20.248,12.126 -2.333,1.561 -4.626,3.186 -6.868,4.874 -0.851,0.64 -1.591,0.787 -2.635,0.553 -2.011,-0.45 -4.066,-0.714 -6.111,-0.997 -0.462,-0.064 -0.957,0.109 -1.45,0.175 -0.061,0.983 0.61,1.218 1.143,1.504 1.769,0.949 3.696,1.383 5.668,1.641 2.115,0.277 4.216,0.138 6.33,-0.124 2.237,-0.276 4.49,-0.443 6.74,-0.584 6.686,-0.418 13.22,-1.733 19.71,-3.304 6.748,-1.635 13.47,-3.384 20.238,-4.931 7.154,-1.637 14.399,-2.435 21.77,-2.288 13.114,0.261 24.837,-3.709 34.909,-12.197 7.56,-6.371 12.613,-14.408 15.567,-23.828 0.892,-2.846 2.007,-5.63 3.161,-8.383 4.746,-11.33 9.597,-22.617 14.311,-33.96 4.468,-10.755 8.486,-21.676 11.605,-32.91 0.603,-2.171 1.151,-4.357 1.718,-6.538 0.068,-0.26 0.097,-0.53 0.004,-0.867 -0.138,0.186 -0.305,0.357 -0.41,0.56 -1.425,2.765 -3.52,4.927 -6.024,6.725 -2.67,1.917 -5.607,3.342 -8.601,4.659 -4.21,1.851 -8.453,3.629 -12.626,5.558 -3.185,1.471 -6.196,3.292 -8.753,5.716 -1.661,1.574 -3.109,3.372 -4.653,5.07 l 0.035,-0.04 z"
             id="path13245"
             style="fill:#4d4d4d;fill-opacity:1;fill-rule:nonzero;stroke:none" /><path
             d="m 274.7672,498.7356 c -0.122,0.067 -0.244,0.135 -0.366,0.202 -0.579,-0.882 -1.227,-1.727 -1.563,-2.74 0.102,-0.058 0.204,-0.116 0.306,-0.173 0.541,0.904 1.082,1.807 1.623,2.711 m 20.729,37.326 c -0.108,-0.394 -0.117,-0.529 -0.177,-0.635 -2.434,-4.28 -4.844,-8.573 -7.323,-12.826 -1.041,-1.787 -2.23,-3.488 -3.349,-5.23 -0.224,-0.347 -0.486,-0.679 -0.647,-1.054 -3.557,-8.283 -7.21,-16.528 -10.112,-25.076 -1.748,-5.148 -3.145,-10.385 -4.15,-15.727 -0.016,-0.083 -0.066,-0.159 -0.235,-0.554 0.19,6.862 0.332,13.4 2.597,19.883 -7.618,-5.741 -15.996,-9.2 -24.801,-11.726 -0.066,0.109 -0.131,0.219 -0.196,0.328 0.169,0.179 0.305,0.43 0.512,0.525 2.001,0.923 3.94,2.081 6.038,2.678 7.934,2.256 14.185,6.822 19.109,13.341 3.035,4.019 5.459,8.406 7.796,12.85 2.441,4.641 4.864,9.293 7.404,13.88 1.156,2.088 2.602,4.014 3.864,6.045 0.861,1.384 2.225,2.165 3.67,3.298"
             id="path13247"
             style="fill:#4d4d4d;fill-opacity:1;fill-rule:nonzero;stroke:none" /><path
             d="m 425.711,600.1893 c 0.586,0.338 0.83,-0.212 1.145,-0.478 2.906,-2.459 6.253,-3.62 10.056,-3.496 2.229,0.073 4.375,0.558 6.475,1.273 4.354,1.483 8.272,3.792 12.01,6.42 1.844,1.297 3.614,2.699 5.417,4.055 0.364,0.274 0.723,0.557 1.219,0.94 -0.056,-1.066 -0.508,-1.799 -0.994,-2.504 -0.958,-1.39 -2.219,-2.487 -3.671,-3.3 -2.083,-1.167 -4.211,-2.265 -6.374,-3.278 -3.039,-1.423 -6.143,-2.709 -9.189,-4.119 -1.07,-0.495 -2.053,-1.18 -3.282,-1.899 1.401,-1.471 2.613,-2.839 3.924,-4.103 5.638,-5.433 12.186,-9.475 19.363,-12.536 3.431,-1.464 6.955,-2.663 10.562,-3.616 0.653,-0.172 1.348,-0.299 1.574,-1.219 -0.725,-0.271 -1.385,-0.135 -2.046,-0.003 -3.443,0.688 -6.729,1.873 -9.987,3.145 -4.766,1.862 -9.381,4.037 -13.739,6.73 -2.552,1.577 -4.989,3.314 -7.012,5.558 -1.444,1.602 -2.575,3.367 -2.608,5.637 -2.309,-0.871 -3.125,-3.301 -2.37,-6.719 -0.275,0.365 -0.55,0.73 -0.827,1.094 -2.983,3.919 -5.964,7.84 -8.954,11.754 -0.191,0.25 -0.445,0.453 -0.669,0.678 l -0.023,-0.014 z"
             id="path13249"
             style="fill:#4d4d4d;fill-opacity:1;fill-rule:nonzero;stroke:none" /><path
             d="m 354.1583,514.7724 c 6.188,6.959 12.603,13.36 19.465,19.417 -0.089,-0.254 -0.144,-0.526 -0.271,-0.759 -3.234,-5.954 -1.186,-12.501 4.323,-15.983 2.539,-1.605 5.339,-2.419 8.298,-2.752 0.82,-0.092 1.642,-0.157 2.683,-0.255 -0.962,-1.12 -2.079,-1.513 -3.294,-1.661 -1.471,-0.18 -2.863,0.204 -4.082,0.982 -1.352,0.861 -2.668,1.803 -3.884,2.845 -1.605,1.374 -3.081,2.899 -4.647,4.32 -0.918,0.834 -1.876,1.628 -2.867,2.372 -0.582,0.437 -1.238,0.802 -1.907,1.092 -1.961,0.848 -3.608,0.57 -4.983,-1.048 -0.881,-1.036 -1.48,-2.309 -2.232,-3.458 -0.292,-0.446 -0.589,-0.931 -1,-1.248 -1.671,-1.29 -3.387,-2.523 -5.091,-3.773 -0.055,-0.041 -0.149,-0.029 -0.511,-0.091"
             id="path13251"
             style="fill:#4d4d4d;fill-opacity:1;fill-rule:nonzero;stroke:none" /><path
             d="m 269.0465,637.5778 c -2.629,-3.763 -5.004,-7.644 -6.828,-11.98 4.85,-4.081 10.626,-6.399 16.156,-9.215 -0.418,0.119 -0.837,0.234 -1.253,0.359 -2.857,0.866 -5.716,1.725 -8.567,2.607 -1.076,0.333 -2.152,0.315 -3.267,0.268 -1.737,-0.075 -3.482,0.01 -5.222,0.061 -0.358,0.011 -0.722,0.139 -1.066,0.262 -1.552,0.552 -2.107,1.554 -1.582,3.127 0.287,0.86 0.713,1.712 1.248,2.442 1.195,1.63 2.448,3.223 3.769,4.753 2.014,2.332 4.105,4.598 6.166,6.89 0.137,0.152 0.297,0.284 0.446,0.426"
             id="path13253"
             style="fill:#4d4d4d;fill-opacity:1;fill-rule:nonzero;stroke:none" /><path
             d="m 350.1701,504.5267 c 5.323,-5.469 11.15,-10.153 17.633,-14.014 6.465,-3.849 13.345,-6.742 20.603,-8.785 -1.741,-0.347 -3.437,-0.087 -5.116,0.233 -4.835,0.921 -9.324,2.794 -13.643,5.096 -5.679,3.028 -10.909,6.668 -15.329,11.391 -1.484,1.585 -2.802,3.295 -3.805,5.23 -0.14,0.27 -0.23,0.565 -0.343,0.849"
             id="path13255"
             style="fill:#4d4d4d;fill-opacity:1;fill-rule:nonzero;stroke:none" /><path
             d="m 285.261,613.6274 c 0.307,-0.081 0.624,-0.134 0.918,-0.245 8.551,-3.234 17.1,-6.474 25.649,-9.715 0.527,-0.2 1.046,-0.423 1.515,-0.789 -1.164,0.222 -2.32,0.542 -3.495,0.637 -1.176,0.095 -2.398,0.113 -3.55,-0.104 -1.661,-0.312 -2.51,-1.447 -2.495,-3.154 0.008,-0.997 0.232,-1.993 0.373,-3.098 -0.226,0.247 -0.445,0.433 -0.599,0.662 -4.445,6.603 -10.331,11.545 -17.395,15.139 -0.332,0.169 -0.6,0.462 -0.898,0.696 l -0.023,-0.029 z"
             id="path13257"
             style="fill:#4d4d4d;fill-opacity:1;fill-rule:nonzero;stroke:none" /><path
             d="m 317.7591,605.9555 c 0.4,-3.793 0.798,-7.586 1.199,-11.379 0.213,-2.012 0.361,-4.035 0.669,-6.032 0.216,-1.4 0.711,-2.754 0.983,-4.148 0.7,-3.583 0.78,-7.219 0.828,-10.853 0.024,-1.786 0.004,-3.572 -0.155,-5.412 -0.41,0.891 -0.821,1.782 -1.318,2.862 -0.728,-0.621 -1.363,-1.164 -2.267,-1.936 1.037,2.922 1.606,5.547 0.147,8.191 0.89,0.78 0.994,1.851 0.942,2.904 -0.111,2.248 -0.239,4.501 -0.504,6.735 -0.423,3.561 -1.007,7.102 -1.426,10.663 -0.126,1.074 0.013,2.191 0.127,3.278 0.181,1.716 0.444,3.422 0.672,5.133 0.035,-0.002 0.069,-0.004 0.103,-0.006"
             id="path13259"
             style="fill:#4d4d4d;fill-opacity:1;fill-rule:nonzero;stroke:none" /><path
             d="m 415.8276,620.8633 c -0.67,0.382 -0.445,0.828 -0.113,1.167 0.61,0.622 1.214,1.291 1.943,1.745 2.848,1.774 5.679,3.594 8.637,5.17 5.324,2.836 10.837,5.272 16.678,6.868 1.502,0.41 3.06,0.622 4.596,0.903 0.292,0.054 0.602,0.008 1.002,-0.222 -0.457,-0.259 -0.906,-0.534 -1.373,-0.777 -3.889,-2.019 -8.052,-3.373 -12.111,-4.983 -3.759,-1.491 -7.502,-3.033 -11.185,-4.703 -2.685,-1.217 -5.156,-2.84 -7.425,-4.746 -0.203,-0.171 -0.447,-0.292 -0.649,-0.422"
             id="path13261"
             style="fill:#4d4d4d;fill-opacity:1;fill-rule:nonzero;stroke:none" /><path
             d="m 425.1958,656.9271 c -0.396,-0.264 -0.768,-0.576 -1.192,-0.785 -2.428,-1.201 -4.848,-2.423 -7.309,-3.553 -3.883,-1.782 -7.833,-3.42 -11.685,-5.264 -3.248,-1.555 -6.224,-3.562 -8.773,-6.147 -0.128,-0.13 -0.251,-0.32 -0.407,-0.358 -0.238,-0.058 -0.536,-0.075 -0.742,0.026 -0.104,0.051 -0.147,0.437 -0.071,0.603 0.151,0.327 0.37,0.641 0.623,0.899 0.515,0.524 1.036,1.053 1.615,1.502 6.665,5.154 13.901,9.296 21.84,12.15 1.502,0.54 3.108,0.797 4.676,1.139 0.419,0.091 0.874,0.013 1.313,0.013 l 0.112,-0.225 z"
             id="path13263"
             style="fill:#4d4d4d;fill-opacity:1;fill-rule:nonzero;stroke:none" /><path
             d="m 427.2215,606.3713 c 0.423,0.402 0.815,0.844 1.273,1.2 6.811,5.288 14.058,9.858 21.999,13.27 1.462,0.628 2.951,1.218 4.642,1.375 0.167,-0.782 -0.148,-1.346 -0.643,-1.742 -0.747,-0.598 -1.518,-1.224 -2.382,-1.604 -2.055,-0.905 -4.175,-1.663 -6.261,-2.5 -1.319,-0.53 -2.638,-1.065 -3.931,-1.655 -0.622,-0.284 -1.23,-0.641 -1.764,-1.065 -3.546,-2.809 -7.529,-4.905 -11.466,-7.075 -0.386,-0.213 -0.822,-0.335 -1.234,-0.499 -0.078,0.099 -0.155,0.197 -0.233,0.295"
             id="path13265"
             style="fill:#4d4d4d;fill-opacity:1;fill-rule:nonzero;stroke:none" /><path
             d="m 385.8707,499.1197 c -0.851,0.153 -1.717,0.247 -2.549,0.468 -4.955,1.318 -9.699,3.168 -14.156,5.718 -2.044,1.17 -3.978,2.497 -5.642,4.178 -1.482,1.496 -2.657,3.17 -2.989,5.324 -0.127,0.824 -0.066,1.606 0.252,2.568 0.417,-0.538 0.727,-0.924 1.022,-1.32 3.462,-4.654 7.457,-8.757 12.375,-11.89 0.687,-0.437 1.46,-0.766 2.229,-1.045 2.636,-0.954 5.292,-1.851 7.93,-2.801 0.579,-0.208 1.112,-0.544 1.667,-0.821 -0.047,-0.126 -0.093,-0.253 -0.139,-0.379"
             id="path13267"
             style="fill:#4d4d4d;fill-opacity:1;fill-rule:nonzero;stroke:none" /><path
             d="m 263.8806,514.912 c 0.493,-1.278 0.442,-1.81 -0.421,-2.425 -0.662,-0.472 -1.418,-0.904 -2.196,-1.103 -1.91,-0.488 -3.84,-0.953 -5.791,-1.205 -3.689,-0.477 -7.388,-0.973 -11.13,-0.703 -1.651,0.119 -3.306,0.195 -4.957,0.314 -0.581,0.042 -1.157,0.155 -1.723,0.485 2.145,0.185 4.297,0.312 6.433,0.568 4.151,0.496 8.301,1.008 12.435,1.623 2.552,0.379 5.028,1.099 7.35,2.446"
             id="path13269"
             style="fill:#4d4d4d;fill-opacity:1;fill-rule:nonzero;stroke:none" /><path
             d="m 293.6577,653.4102 c 0.511,-0.568 0.994,-1.163 1.536,-1.699 2.333,-2.304 4.918,-4.247 7.89,-5.685 2.185,-1.057 4.31,-2.243 6.437,-3.416 0.485,-0.267 0.869,-0.718 1.3,-1.085 -0.046,-0.107 -0.092,-0.215 -0.139,-0.322 -0.428,0.026 -0.877,-0.024 -1.28,0.09 -5.24,1.473 -10.057,3.741 -13.963,7.644 -1.053,1.052 -1.839,2.293 -2.015,3.828 -0.02,0.176 -0.003,0.357 -0.003,0.535 0.079,0.037 0.158,0.074 0.237,0.11"
             id="path13271"
             style="fill:#4d4d4d;fill-opacity:1;fill-rule:nonzero;stroke:none" /><path
             d="m 337.0708,589.0222 c 0.472,-2.253 -1.475,-5.339 -3.735,-6.135 -0.214,-0.076 -0.436,-0.157 -0.659,-0.173 -0.571,-0.039 -0.887,0.301 -0.72,0.853 0.129,0.427 0.355,0.849 0.627,1.205 1.228,1.608 2.752,2.908 4.487,4.25"
             id="path13273"
             style="fill:#4d4d4d;fill-opacity:1;fill-rule:nonzero;stroke:none" /><path
             d="m 321.6319,566.5103 c 1.273,-3.264 1.493,-6.623 0.91,-10.055 -0.86,3.301 -0.869,6.68 -0.91,10.055"
             id="path13275"
             style="fill:#4d4d4d;fill-opacity:1;fill-rule:nonzero;stroke:none" /><path
             d="m 310.0319,586.1211 c 1.266,-1.839 2.532,-3.678 3.946,-5.733 -0.813,0.237 -1.418,0.389 -2.004,0.598 -0.188,0.067 -0.398,0.253 -0.468,0.435 -0.587,1.524 -1.143,3.06 -1.708,4.593 0.078,0.036 0.156,0.071 0.234,0.107"
             id="path13277"
             style="fill:#4d4d4d;fill-opacity:1;fill-rule:nonzero;stroke:none" /><path
             d="m 296.5229,537.1617 c 1.209,1.986 2.596,3.828 4.402,5.525 -0.332,-1.591 -2.161,-3.902 -4.402,-5.525"
             id="path13279"
             style="fill:#4d4d4d;fill-opacity:1;fill-rule:nonzero;stroke:none" /><path
             d="m 342.8503,569.7652 c 1.884,1.695 3.667,3.297 5.449,4.9 0.054,-0.039 0.109,-0.079 0.164,-0.119 -0.12,-0.19 -0.213,-0.405 -0.362,-0.567 -1.085,-1.176 -2.174,-2.349 -3.277,-3.507 -0.615,-0.645 -0.629,-0.631 -1.974,-0.707"
             id="path13281"
             style="fill:#4d4d4d;fill-opacity:1;fill-rule:nonzero;stroke:none" /><path
             d="m 342.0811,569.0671 c -1.423,-1.096 -2.846,-2.192 -4.514,-3.477 0.887,1.863 2.396,3.051 4.514,3.477"
             id="path13283"
             style="fill:#4d4d4d;fill-opacity:1;fill-rule:nonzero;stroke:none" /><path
             d="m 268.9044,464.9432 c 0.1,2.308 0.199,4.616 0.299,6.924 0.085,0 0.169,10e-4 0.254,0.002 0,-0.722 0.012,-1.443 -0.004,-2.164 -0.018,-0.824 -0.044,-1.649 -0.098,-2.471 -0.05,-0.77 -0.142,-1.537 -0.215,-2.306 -0.079,0.005 -0.157,0.01 -0.236,0.015"
             id="path13285"
             style="fill:#4d4d4d;fill-opacity:1;fill-rule:nonzero;stroke:none" /><path
             d="m 305.458,595.0312 c 0.837,-1.625 1.678,-3.247 2.507,-4.876 0.177,-0.347 0.308,-0.717 0.46,-1.077 -0.083,-0.038 -0.166,-0.076 -0.248,-0.114 -1.036,1.955 -2.072,3.91 -3.108,5.865 0.13,0.068 0.259,0.135 0.389,0.202"
             id="path13287"
             style="fill:#4d4d4d;fill-opacity:1;fill-rule:nonzero;stroke:none" /><path
             d="m 317.6927,577.5099 c -1.27,0.161 -2.039,0.773 -3.299,2.624 1.465,-0.625 2.471,-1.41 3.299,-2.624"
             id="path13289"
             style="fill:#4d4d4d;fill-opacity:1;fill-rule:nonzero;stroke:none" /><path
             d="m 317.2361,568.0342 c -0.873,-1.22 -1.746,-2.44 -2.761,-3.857 0.105,1.22 0.979,2.515 2.761,3.857"
             id="path13291"
             style="fill:#4d4d4d;fill-opacity:1;fill-rule:nonzero;stroke:none" /><path
             d="m 376.6318,537.1512 c -0.397,-0.364 -0.795,-0.727 -1.192,-1.091 -0.044,0.041 -0.088,0.083 -0.132,0.124 0.369,0.388 0.739,0.777 1.109,1.165 0.072,-0.066 0.143,-0.132 0.215,-0.198"
             id="path13293"
             style="fill:#4d4d4d;fill-opacity:1;fill-rule:nonzero;stroke:none" /><path
             d="m 270.8621,639.6049 c -0.357,-0.539 -0.715,-1.079 -1.072,-1.618 0.138,0.703 0.439,1.289 1.099,1.592 l -0.027,0.026 z"
             id="path13295"
             style="fill:#4d4d4d;fill-opacity:1;fill-rule:nonzero;stroke:none" /><path
             d="m 390.4192,648.4799 0,-0.892 -0.064,-10e-4 0,0.892 c 0.021,0.001 0.043,0.001 0.064,0.001"
             id="path13297"
             style="fill:#4d4d4d;fill-opacity:1;fill-rule:nonzero;stroke:none" /><path
             d="m 352.0815,445.9219 c 0.505,-0.289 1.009,-0.578 1.514,-0.866 -0.505,0.288 -1.009,0.577 -1.514,0.866"
             id="path13299"
             style="fill:#4d4d4d;fill-opacity:1;fill-rule:nonzero;stroke:none" /><path
             d="m 425.7336,600.2036 c -0.123,0.256 -0.247,0.512 -0.37,0.768 0.068,0.018 0.136,0.036 0.204,0.054 0.052,-0.276 0.103,-0.552 0.149,-0.832 -0.006,-0.004 0.017,0.01 0.017,0.01"
             id="path13301"
             style="fill:#4d4d4d;fill-opacity:1;fill-rule:nonzero;stroke:none" /><path
             d="m 285.2844,613.6567 -1.12,0.22 c 0.032,0.093 0.064,0.186 0.095,0.28 0.334,-0.177 0.667,-0.354 1.001,-0.53 l 0.024,0.03 z"
             id="path13303"
             style="fill:#4d4d4d;fill-opacity:1;fill-rule:nonzero;stroke:none" /><path
             d="m 378.0006,538.3712 c -0.168,-0.142 -0.337,-0.283 -0.505,-0.425 -0.036,0.044 -0.072,0.088 -0.107,0.132 0.172,0.137 0.344,0.274 0.516,0.411 0.032,-0.04 0.064,-0.079 0.096,-0.118"
             id="path13305"
             style="fill:#4d4d4d;fill-opacity:1;fill-rule:nonzero;stroke:none" /><path
             d="m 367.0333,218.1005 c 0.287,0.285 0.605,0.588 0.933,0.888 l -0.255,0 c -0.225,-0.3 -0.451,-0.599 -0.678,-0.888"
             id="path13307"
             style="fill:#e6b35a;fill-opacity:1;fill-rule:nonzero;stroke:none" /></g></g></g><g
       id="g13309"><g
         clip-path="url(#clipPath13313)"
         id="g13311"><text
           transform="matrix(1,0,0,-1,223.0937,257.125)"
           id="text13317"><tspan
             x="0 72.639999 156.32001 188.64 236.48"
             y="0"
             id="tspan13319"
             style="font-size:160px;font-variant:normal;font-weight:normal;writing-mode:lr-tb;fill:#db1f26;fill-opacity:1;fill-rule:nonzero;stroke:none;font-family:Myriad Pro;-inkscape-font-specification:MyriadPro-Regular">knitr</tspan></text>
</g></g><g
       id="g13321"><g
         clip-path="url(#clipPath13325)"
         id="g13323"><g
           clip-path="url(#clipPath13331)"
           id="g13329"><path
             d="m 705.6138,230.5328 -338.124,-195.216 -338.121,195.216 0,390.431 338.121,195.215 0,0 338.124,-195.215 0,-390.431 z m 0,425.258 -277.803,160.388 -60.313,34.821 -60.312,-34.821 -277.817,-160.398 -29.283,-16.907 0,-424.254 29.283,-16.906 281.277,-162.397 56.852,-32.824 56.853,32.824 281.263,162.387 29.3,16.916 0,424.254 -29.3,16.917 z"
             id="path13335"
             style="fill:#db1f26;fill-opacity:1;fill-rule:nonzero;stroke:none" /></g></g></g><g
       id="g13337"><g
         clip-path="url(#clipPath13341)"
         id="g13339"><g
           clip-path="url(#clipPath13347)"
           id="g13345"><g
             clip-path="url(#clipPath13353)"
             id="g13351"><path
               d="m 1618.287,442.238 c 0,-244.182 -197.947,-442.132 -442.129,-442.132 -244.1824,0 -442.1294,197.95 -442.1294,442.132 0,244.182 197.947,442.129 442.1294,442.129 244.182,0 442.129,-197.947 442.129,-442.129"
               id="path13357"
               style="fill:#595959;fill-opacity:1;fill-rule:nonzero;stroke:none" /></g></g></g></g><g
       id="g13359"><g
         clip-path="url(#clipPath13363)"
         id="g13361"><g
           clip-path="url(#clipPath13369)"
           id="g13367"><text
             transform="matrix(0.86418122,0.50318071,0.50318071,-0.86418122,369.2819,42.9006)"
             id="text13373"><tspan
               x="0 18.699974 37.397446 54.822422 59.997417 68.172401 78.072388 86.347382 100.12236 114.22234 120.07233 133.19731 138.3723 149.42229 163.14728"
               y="0"
               id="tspan13375"
               style="font-size:24.99996567px;font-variant:normal;font-weight:normal;writing-mode:lr-tb;fill:#db1f26;fill-opacity:1;fill-rule:nonzero;stroke:none;font-family:Myriad Pro;-inkscape-font-specification:MyriadPro-Regular">www.rstudio.com</tspan></text>
</g></g></g></g></svg>