<?xml version="1.0" encoding="UTF-8" standalone="no"?>
<!-- Created with Inkscape (http://www.inkscape.org/) -->

<svg
   xmlns:dc="http://purl.org/dc/elements/1.1/"
   xmlns:cc="http://creativecommons.org/ns#"
   xmlns:rdf="http://www.w3.org/1999/02/22-rdf-syntax-ns#"
   xmlns:svg="http://www.w3.org/2000/svg"
   xmlns="http://www.w3.org/2000/svg"
   version="1.1"
   width="918.75"
   height="1065"
   id="svg12109"
   xml:space="preserve"><metadata
     id="metadata12115"><rdf:RDF><cc:Work
         rdf:about=""><dc:format>image/svg+xml</dc:format><dc:type
           rdf:resource="http://purl.org/dc/dcmitype/StillImage" /><dc:title></dc:title></cc:Work></rdf:RDF></metadata><defs
     id="defs12113"><clipPath
       id="clipPath12125"><path
         d="M 0,0 735,0 735,852 0,852 0,0 z"
         id="path12127" /></clipPath><clipPath
       id="clipPath12135"><path
         d="m 2.794,637.535 0,-422.156 366.714,-208.406 358.698,208.406 0,422.156 L 369.508,844.604 2.794,637.535 z"
         id="path12137" /></clipPath><clipPath
       id="clipPath12141"><path
         d="M 0,0 735,0 735,852 0,852 0,0 z"
         id="path12143" /></clipPath><clipPath
       id="clipPath12151"><path
         d="m 2.794,637.535 0,-422.156 366.714,-208.406 358.698,208.406 0,422.156 L 369.508,844.604 2.794,637.535 z"
         id="path12153" /></clipPath><clipPath
       id="clipPath12157"><path
         d="M 0,0 735,0 735,852 0,852 0,0 z"
         id="path12159" /></clipPath><clipPath
       id="clipPath12163"><path
         d="m 52,510 632,0 0,335 -632,0 0,-335 z"
         id="path12165" /></clipPath><clipPath
       id="clipPath12167"><path
         d="m 683.21,744.926 c 0,-129.583 -141.138,-234.635 -315.242,-234.635 -174.103,0 -315.245,105.052 -315.245,234.635 0,129.579 141.142,234.63 315.245,234.63 174.104,0 315.242,-105.051 315.242,-234.63"
         id="path12169" /></clipPath><clipPath
       id="clipPath12171"><path
         d="m 52.7232,510.291 630.4868,0 0,334.709 -630.4868,0 0,-334.709 z"
         id="path12173" /></clipPath><clipPath
       id="clipPath12175"><path
         d="m -32768,-32768 65535,0 0,65535 -65535,0 0,-65535 z"
         id="path12177" /></clipPath><linearGradient
       x1="0"
       y1="0"
       x2="1"
       y2="0"
       id="linearGradient12179"
       gradientUnits="userSpaceOnUse"
       gradientTransform="matrix(1.298455,-463.5253,-463.5253,-1.298455,367.3273,973.1218)"
       spreadMethod="pad"><stop
         id="stop12181"
         style="stop-color:#ffffff;stop-opacity:0.83138782"
         offset="0" /><stop
         id="stop12183"
         style="stop-color:#ffffff;stop-opacity:0"
         offset="1" /></linearGradient><mask
       id="mask12185"><g
         id="g12187"><g
           clip-path="url(#clipPath12175)"
           id="g12189"><g
             id="g12191" /><g
             id="g12193"><g
               id="g12195"><path
                 d="m -32768,-32768 65535,0 0,65535 -65535,0 0,-65535 z"
                 id="path12197"
                 style="fill:url(#linearGradient12179);stroke:none" /></g></g></g></g></mask><linearGradient
       x1="0"
       y1="0"
       x2="1"
       y2="0"
       id="linearGradient12199"
       gradientUnits="userSpaceOnUse"
       gradientTransform="matrix(1.298455,-463.5253,-463.5253,-1.298455,367.3273,973.1218)"
       spreadMethod="pad"><stop
         id="stop12201"
         style="stop-color:#ffffff;stop-opacity:1"
         offset="0" /><stop
         id="stop12203"
         style="stop-color:#ffffff;stop-opacity:1"
         offset="1" /></linearGradient><clipPath
       id="clipPath12229"><path
         d="M 0,0 735,0 735,852 0,852 0,0 z"
         id="path12231" /></clipPath><clipPath
       id="clipPath12239"><path
         d="M 0,852 735,852 735,0 0,0 0,852 z"
         id="path12241" /></clipPath><clipPath
       id="clipPath12245"><path
         d="M 0,0 735,0 735,852 0,852 0,0 z"
         id="path12247" /></clipPath><clipPath
       id="clipPath12255"><path
         d="M 0,852 735,852 735,0 0,0 0,852 z"
         id="path12257" /></clipPath><clipPath
       id="clipPath12261"><path
         d="M 0,0 735,0 735,852 0,852 0,0 z"
         id="path12263" /></clipPath><clipPath
       id="clipPath12267"><path
         d="m 57,199 616,0 0,148 -616,0 0,-148 z"
         id="path12269" /></clipPath><clipPath
       id="clipPath12271"><path
         d="m 57.8127,199.798 615.0543,0 0,146.746 -615.0543,0 0,-146.746 z"
         id="path12273" /></clipPath></defs><g
     transform="matrix(1.25,0,0,-1.25,0,1065)"
     id="g12117"><g
       id="g12119" /><g
       id="g12121"><g
         clip-path="url(#clipPath12125)"
         id="g12123"><path
           d="m 369.5076,844.6044 358.698,-207.07 0,-422.155 -358.698,-208.406 -366.714,208.406 0,422.155 366.714,207.07 z"
           id="path12129"
           style="fill:#ba6f38;fill-opacity:1;fill-rule:nonzero;stroke:none" /></g></g><g
       id="g12131"><g
         clip-path="url(#clipPath12135)"
         id="g12133"><g
           clip-path="url(#clipPath12141)"
           id="g12139"><path
             d="M 807.629,414.552 C 807.629,170.37 609.682,-27.58 365.5,-27.58 c -244.182,0 -442.129,197.95 -442.129,442.132 0,244.182 197.947,442.129 442.129,442.129 244.182,0 442.129,-197.947 442.129,-442.129"
             id="path12145"
             style="fill:#db1f26;fill-opacity:1;fill-rule:nonzero;stroke:none" /></g></g></g><g
       id="g12147"><g
         clip-path="url(#clipPath12151)"
         id="g12149"><g
           clip-path="url(#clipPath12157)"
           id="g12155"><g
             id="g12161" /><g
             id="g12205"><g
               clip-path="url(#clipPath12163)"
               id="g12207"
               style="opacity:0.25"><g
                 id="g12209" /><g
                 id="g12211"><g
                   clip-path="url(#clipPath12167)"
                   id="g12213"><g
                     clip-path="url(#clipPath12171)"
                     id="g12215"><g
                       id="g12217" /><g
                       mask="url(#mask12185)"
                       id="g12219"><g
                         id="g12221"><path
                           d="m 52.7232,510.291 630.4868,0 0,334.709 -630.4868,0 0,-334.709 z"
                           id="path12223"
                           style="fill:url(#linearGradient12199);stroke:none" /></g></g></g></g></g></g></g></g></g></g><g
       id="g12225"><g
         clip-path="url(#clipPath12229)"
         id="g12227"><path
           d="m 307.1862,816.1785 -277.817,-160.398 -29.283,-16.907 0,-424.253 29.283,-16.907 281.277,-162.397 56.852,-32.823 56.853,32.823 281.262,162.387 29.301,16.916 0,424.254 -29.301,16.917 -277.802,160.388 -60.313,34.822 -60.312,-34.822 z m -277.817,-585.645 0,390.431 338.121,195.214 10e-4,0 338.122,-195.214 0,-390.431 -338.123,-195.217 -338.121,195.217 z"
           id="path12233"
           style="fill:#a51d21;fill-opacity:1;fill-rule:nonzero;stroke:none" /></g></g><g
       id="g12235"><g
         clip-path="url(#clipPath12239)"
         id="g12237"><g
           clip-path="url(#clipPath12245)"
           id="g12243"><path
             d="m 367.0334,218.1005 c 0.287,0.285 0.605,0.588 0.933,0.888 l -0.255,0 c -0.225,-0.3 -0.451,-0.599 -0.678,-0.888"
             id="path12249"
             style="fill:#e6b35a;fill-opacity:1;fill-rule:nonzero;stroke:none" /></g></g></g><g
       id="g12251"><g
         clip-path="url(#clipPath12255)"
         id="g12253"><g
           clip-path="url(#clipPath12261)"
           id="g12259"><g
             id="g12265" /><g
             id="g12275"><g
               clip-path="url(#clipPath12267)"
               id="g12277"
               style="opacity:0.93999999"><g
                 id="g12279" /><g
                 id="g12281"><g
                   clip-path="url(#clipPath12271)"
                   id="g12283"><text
                     transform="matrix(1,0,0,-1,57.8125,233.5479)"
                     id="text12285"><tspan
                       x="0 40.365002 148.63499 209.38499 249.75 308.745 380.565 449.41501 544.45502"
                       y="0"
                       id="tspan12287"
                       style="font-size:135px;font-variant:normal;font-weight:normal;writing-mode:lr-tb;fill:#ffffff;fill-opacity:1;fill-rule:nonzero;stroke:none;font-family:Myriad Pro;-inkscape-font-specification:MyriadPro-Regular">rmarkdown</tspan></text>
</g></g></g></g><path
             d="m 354.709,424.4899 c 0.402,-1.429 0.455,-2.916 0.342,-4.409 -0.188,-2.469 -0.96,-4.713 -2.404,-6.73 -1.157,-1.616 -2.648,-2.875 -4.254,-4.011 -3.593,-2.541 -7.578,-4.162 -11.898,-4.946 -1.623,-0.295 -3.268,-0.473 -4.904,-0.705 -0.005,0.034 -0.009,0.006 0.003,-0.007 2.665,-2.872 5.618,-5.38 9.108,-7.208 2.308,-1.209 4.743,-2.05 7.319,-2.442 2.831,-0.431 5.649,-0.374 8.432,0.37 0.097,0.026 0.199,0.03 0.299,0.045 0.025,-0.026 0.051,-0.052 0.076,-0.077 -0.295,-0.432 -0.563,-0.885 -0.891,-1.29 -0.992,-1.228 -2.321,-1.956 -3.778,-2.488 -1.896,-0.692 -3.841,-0.843 -5.84,-0.64 -3.184,0.323 -5.918,1.669 -8.452,3.547 -3.767,2.791 -6.775,6.219 -8.91,10.402 -0.069,0.134 -0.135,0.269 -0.199,0.406 -0.009,0.017 -10e-4,0.043 -10e-4,0.096 0.525,0.086 1.058,0.167 1.589,0.261 5.175,0.922 9.987,2.704 14.111,6.061 2.461,2.003 4.382,4.435 5.522,7.415 0.599,1.564 0.592,3.198 0.176,4.82 -0.467,1.82 -2.567,3.23 -4.07,3.418 -1.328,0.167 -2.63,-0.045 -3.93,-0.27 -2.254,-0.391 -4.348,-1.209 -6.322,-2.357 -0.343,-0.199 -0.586,-0.446 -0.778,-0.797 -2.989,-5.439 -5.472,-11.093 -7.323,-17.021 -1.091,-3.495 -1.962,-7.046 -2.526,-10.662 -0.31,-1.986 -0.489,-3.992 -0.728,-5.989 -0.006,-0.056 -0.02,-0.112 -0.039,-0.21 -0.554,0.161 -1.017,0.445 -1.429,0.817 -0.887,0.801 -1.326,1.844 -1.585,2.981 -0.262,1.15 -0.3,2.318 -0.275,3.49 0.066,3.19 0.553,6.312 1.493,9.365 1.033,3.351 2.615,6.425 4.635,9.278 1.527,2.154 3.036,4.324 4.656,6.408 1.77,2.279 3.84,4.274 6.234,5.912 2.236,1.53 4.665,2.581 7.369,2.931 2.116,0.274 4.132,0.056 5.912,-1.265 1.56,-1.158 2.733,-2.626 3.26,-4.499 m 5.879,36.478 5.593,0 0,-13.513 -5.593,0 0,13.513 z m 146.928,191.493 c -21.803,-2.741 -41.79,-10.395 -60.287,-22.098 -23.802,-15.059 -43.239,-34.673 -59.426,-57.566 -15.22,-21.523 -27.092,-44.702 -33.571,-70.41 -1.037,-4.118 -1.736,-8.321 -2.591,-12.484 0.219,-0.076 0.439,-0.152 0.658,-0.227 0.631,0.833 1.28,1.652 1.888,2.501 18.572,25.924 38.898,50.379 61.287,73.098 20.238,20.537 41.893,39.378 66.26,54.94 0.549,0.351 1.141,0.633 1.713,0.948 -0.316,-0.765 -0.823,-1.189 -1.349,-1.586 -17.815,-13.431 -34.537,-28.121 -50.348,-43.851 -33.604,-33.434 -63.136,-70.112 -87.868,-110.594 -0.807,-1.321 -1.777,-1.464 -3.083,-1.461 -12.469,0.023 -24.938,0.029 -37.407,0.002 -3.349,-0.007 -4.907,-1.268 -5.017,-4.216 -0.13,-3.487 -0.121,-6.985 10e-4,-10.471 0.092,-2.653 1.634,-4.089 4.279,-4.234 1.477,-0.081 2.963,-0.014 4.599,-0.014 l 0,-15.26 -2.927,0 c -5.32,0 -10.64,0.004 -15.961,-10e-4 -9.051,-0.007 -13.255,-4.01 -14.248,-13.086 -1.284,-11.724 -2.706,-23.434 -4.237,-35.128 -1.074,-8.2 2.403,-12.406 10.625,-12.406 39.569,-0.002 79.138,-10e-4 118.706,0 0.749,0 1.499,-0.029 2.244,0.023 5.701,0.399 9.389,4.879 8.698,10.55 -1.579,12.944 -3.15,25.89 -4.746,38.832 -0.864,7.011 -5.44,11.105 -12.612,11.198 -5.818,0.075 -11.638,0.017 -17.457,0.018 l -2.732,0 0,15.255 c 1.334,0 2.493,-0.011 3.653,0.002 3.719,0.04 5.156,1.439 5.186,5.093 0.024,2.909 0.021,5.819 10e-4,8.728 -0.026,3.73 -1.362,5.098 -5.116,5.118 -6.65,0.034 -13.301,0.011 -19.951,0.011 -1.118,0 -2.236,0 -3.88,0 2.214,3.697 4.197,6.835 5.993,10.077 0.946,1.707 2.073,2.347 4.101,2.363 25.04,0.197 49.254,4.389 71.924,15.525 5.134,2.522 10.041,5.506 15.573,8.564 -17.349,8.363 -34.641,14.47 -53.141,19.008 0.896,0.117 1.137,0.178 1.377,0.175 20.628,-0.24 40.942,-2.577 60.545,-9.361 2.232,-0.772 3.636,-0.328 5.295,1.141 8.749,7.747 16.548,16.344 23.461,25.756 13.278,18.08 22.967,38.05 30.948,58.91 1.77,4.626 3.4,9.304 5.296,14.51 -10.908,1.149 -21.367,2.251 -31.693,3.339 0.226,0.077 0.605,0.283 1.002,0.33 10.219,1.225 20.432,2.516 30.669,3.568 1.895,0.195 2.716,0.724 3.208,2.52 1.248,4.561 2.736,9.055 4.05,13.598 1.792,6.193 3.513,12.407 5.271,18.637 -6.56,1.169 -21.277,1.07 -28.863,0.116"
             id="path12289"
             style="fill:#a51d21;fill-opacity:1;fill-rule:nonzero;stroke:none" /><path
             d="m 349.709,433.4899 c 0.402,-1.429 0.455,-2.916 0.342,-4.409 -0.188,-2.469 -0.96,-4.713 -2.404,-6.73 -1.157,-1.616 -2.648,-2.875 -4.254,-4.011 -3.593,-2.541 -7.578,-4.162 -11.898,-4.946 -1.623,-0.295 -3.268,-0.473 -4.904,-0.705 -0.005,0.034 -0.009,0.006 0.003,-0.007 2.665,-2.872 5.618,-5.38 9.108,-7.208 2.308,-1.209 4.743,-2.05 7.319,-2.442 2.831,-0.431 5.649,-0.374 8.432,0.37 0.097,0.026 0.199,0.03 0.299,0.045 0.025,-0.026 0.051,-0.052 0.076,-0.077 -0.295,-0.432 -0.563,-0.885 -0.891,-1.29 -0.992,-1.228 -2.321,-1.956 -3.778,-2.488 -1.896,-0.692 -3.841,-0.843 -5.84,-0.64 -3.184,0.323 -5.918,1.669 -8.452,3.547 -3.767,2.791 -6.775,6.219 -8.91,10.402 -0.069,0.134 -0.135,0.269 -0.199,0.406 -0.009,0.017 -10e-4,0.043 -10e-4,0.096 0.525,0.086 1.058,0.167 1.589,0.261 5.175,0.922 9.987,2.704 14.111,6.061 2.461,2.003 4.382,4.435 5.522,7.415 0.599,1.564 0.592,3.198 0.176,4.82 -0.467,1.82 -2.567,3.23 -4.07,3.418 -1.328,0.167 -2.63,-0.045 -3.93,-0.27 -2.254,-0.391 -4.348,-1.209 -6.322,-2.357 -0.343,-0.199 -0.586,-0.446 -0.778,-0.797 -2.989,-5.439 -5.472,-11.093 -7.323,-17.021 -1.091,-3.495 -1.962,-7.046 -2.526,-10.662 -0.31,-1.986 -0.489,-3.992 -0.728,-5.989 -0.006,-0.056 -0.02,-0.112 -0.039,-0.21 -0.554,0.161 -1.017,0.445 -1.429,0.817 -0.887,0.801 -1.326,1.844 -1.585,2.981 -0.262,1.15 -0.3,2.318 -0.275,3.49 0.066,3.19 0.553,6.312 1.493,9.365 1.033,3.351 2.615,6.425 4.635,9.278 1.527,2.154 3.036,4.324 4.656,6.408 1.77,2.279 3.84,4.274 6.234,5.912 2.236,1.53 4.665,2.581 7.369,2.931 2.116,0.274 4.132,0.056 5.912,-1.265 1.56,-1.158 2.733,-2.626 3.26,-4.499 m 5.879,36.478 5.593,0 0,-13.513 -5.593,0 0,13.513 z m 146.928,191.493 c -21.803,-2.741 -41.79,-10.395 -60.287,-22.098 -23.802,-15.059 -43.239,-34.673 -59.426,-57.566 -15.22,-21.523 -27.092,-44.702 -33.571,-70.41 -1.037,-4.118 -1.736,-8.321 -2.591,-12.484 0.219,-0.076 0.439,-0.152 0.658,-0.227 0.631,0.833 1.28,1.652 1.888,2.501 18.572,25.924 38.898,50.379 61.287,73.098 20.238,20.537 41.893,39.378 66.26,54.94 0.549,0.351 1.141,0.633 1.713,0.948 -0.316,-0.765 -0.823,-1.189 -1.349,-1.586 -17.815,-13.431 -34.537,-28.121 -50.348,-43.851 -33.604,-33.434 -63.136,-70.112 -87.868,-110.594 -0.807,-1.321 -1.777,-1.464 -3.083,-1.461 -12.469,0.023 -24.938,0.029 -37.407,0.002 -3.349,-0.007 -4.907,-1.268 -5.017,-4.216 -0.13,-3.487 -0.121,-6.985 10e-4,-10.471 0.092,-2.653 1.634,-4.089 4.279,-4.234 1.477,-0.081 2.963,-0.014 4.599,-0.014 l 0,-15.26 -2.927,0 c -5.32,0 -10.64,0.004 -15.961,-10e-4 -9.051,-0.007 -13.255,-4.01 -14.248,-13.086 -1.284,-11.724 -2.706,-23.434 -4.237,-35.128 -1.074,-8.2 2.403,-12.406 10.625,-12.406 39.569,-0.002 79.138,-10e-4 118.706,0 0.749,0 1.499,-0.029 2.244,0.023 5.701,0.399 9.389,4.879 8.698,10.55 -1.579,12.944 -3.15,25.89 -4.746,38.832 -0.864,7.011 -5.44,11.105 -12.612,11.198 -5.818,0.075 -11.638,0.017 -17.457,0.018 l -2.732,0 0,15.255 c 1.334,0 2.493,-0.011 3.653,0.002 3.719,0.04 5.156,1.439 5.186,5.093 0.024,2.909 0.021,5.819 10e-4,8.728 -0.026,3.73 -1.362,5.098 -5.116,5.118 -6.65,0.034 -13.301,0.011 -19.951,0.011 -1.118,0 -2.236,0 -3.88,0 2.214,3.697 4.197,6.835 5.993,10.077 0.946,1.707 2.073,2.347 4.101,2.363 25.04,0.197 49.254,4.389 71.924,15.525 5.134,2.522 10.041,5.506 15.573,8.564 -17.349,8.363 -34.641,14.47 -53.141,19.008 0.896,0.117 1.137,0.178 1.377,0.175 20.628,-0.24 40.942,-2.577 60.545,-9.361 2.232,-0.772 3.636,-0.328 5.295,1.141 8.749,7.747 16.548,16.344 23.461,25.756 13.278,18.08 22.967,38.05 30.948,58.91 1.77,4.626 3.4,9.304 5.296,14.51 -10.908,1.149 -21.367,2.251 -31.693,3.339 0.226,0.077 0.605,0.283 1.002,0.33 10.219,1.225 20.432,2.516 30.669,3.568 1.895,0.195 2.716,0.724 3.208,2.52 1.248,4.561 2.736,9.055 4.05,13.598 1.792,6.193 3.513,12.407 5.271,18.637 -6.56,1.169 -21.277,1.07 -28.863,0.116"
             id="path12291"
             style="fill:#ffffff;fill-opacity:1;fill-rule:nonzero;stroke:none" /><text
             transform="matrix(0.86418122,0.50318071,0.50318071,-0.86418122,369.2242,42.9011)"
             id="text12293"><tspan
               x="0 18.699974 37.397446 54.822422 59.997417 68.172401 78.072388 86.347382 100.12236 114.22234 120.07233 133.19731 138.3723 149.42229 163.14728"
               y="0"
               id="tspan12295"
               style="font-size:24.99996567px;font-variant:normal;font-weight:normal;writing-mode:lr-tb;fill:#ffffff;fill-opacity:1;fill-rule:nonzero;stroke:none;font-family:Myriad Pro;-inkscape-font-specification:MyriadPro-Regular">www.rstudio.com</tspan></text>
</g></g></g></g></svg>