<?xml version="1.0" encoding="UTF-8" standalone="no"?>
<!-- Created with Inkscape (http://www.inkscape.org/) -->

<svg
   xmlns:dc="http://purl.org/dc/elements/1.1/"
   xmlns:cc="http://creativecommons.org/ns#"
   xmlns:rdf="http://www.w3.org/1999/02/22-rdf-syntax-ns#"
   xmlns:svg="http://www.w3.org/2000/svg"
   xmlns="http://www.w3.org/2000/svg"
   version="1.1"
   width="918.75"
   height="1065"
   id="svg13528"
   xml:space="preserve"><metadata
     id="metadata13534"><rdf:RDF><cc:Work
         rdf:about=""><dc:format>image/svg+xml</dc:format><dc:type
           rdf:resource="http://purl.org/dc/dcmitype/StillImage" /><dc:title></dc:title></cc:Work></rdf:RDF></metadata><defs
     id="defs13532"><clipPath
       id="clipPath13544"><path
         d="M 0,852 735,852 735,0 0,0 0,852 z"
         id="path13546" /></clipPath><clipPath
       id="clipPath13550"><path
         d="m -433.348,820.602 358.699,-207.07 0,-422.155 -358.699,-208.406 -366.714,208.406 0,422.155 366.714,207.07 z"
         id="path13552" /></clipPath><clipPath
       id="clipPath13556"><path
         d="M 0,0 735,0 735,852 0,852 0,0 z"
         id="path13558" /></clipPath><clipPath
       id="clipPath13566"><path
         d="M 0,0 735,0 735,852 0,852 0,0 z"
         id="path13568" /></clipPath><clipPath
       id="clipPath13576"><path
         d="m 2.794,637.535 0,-422.156 366.714,-208.406 358.698,208.406 0,422.156 L 369.508,844.604 2.794,637.535 z"
         id="path13578" /></clipPath><clipPath
       id="clipPath13582"><path
         d="M 0,0 735,0 735,852 0,852 0,0 z"
         id="path13584" /></clipPath><clipPath
       id="clipPath13592"><path
         d="m 2.794,637.535 0,-422.156 366.714,-208.406 358.698,208.406 0,422.156 L 369.508,844.604 2.794,637.535 z"
         id="path13594" /></clipPath><clipPath
       id="clipPath13598"><path
         d="M 0,0 735,0 735,852 0,852 0,0 z"
         id="path13600" /></clipPath><clipPath
       id="clipPath13604"><path
         d="m 52,510 632,0 0,335 -632,0 0,-335 z"
         id="path13606" /></clipPath><clipPath
       id="clipPath13608"><path
         d="m 683.21,744.926 c 0,-129.583 -141.138,-234.635 -315.242,-234.635 -174.103,0 -315.245,105.052 -315.245,234.635 0,129.579 141.142,234.63 315.245,234.63 174.104,0 315.242,-105.051 315.242,-234.63"
         id="path13610" /></clipPath><clipPath
       id="clipPath13612"><path
         d="m 52.7233,510.291 630.4867,0 0,334.709 -630.4867,0 0,-334.709 z"
         id="path13614" /></clipPath><clipPath
       id="clipPath13616"><path
         d="m -32768,-32768 65535,0 0,65535 -65535,0 0,-65535 z"
         id="path13618" /></clipPath><linearGradient
       x1="0"
       y1="0"
       x2="1"
       y2="0"
       id="linearGradient13620"
       gradientUnits="userSpaceOnUse"
       gradientTransform="matrix(1.298455,-463.5253,-463.5253,-1.298455,367.3273,973.1218)"
       spreadMethod="pad"><stop
         id="stop13622"
         style="stop-color:#ffffff;stop-opacity:0.83138782"
         offset="0" /><stop
         id="stop13624"
         style="stop-color:#ffffff;stop-opacity:0"
         offset="1" /></linearGradient><mask
       id="mask13626"><g
         id="g13628"><g
           clip-path="url(#clipPath13616)"
           id="g13630"><g
             id="g13632" /><g
             id="g13634"><g
               id="g13636"><path
                 d="m -32768,-32768 65535,0 0,65535 -65535,0 0,-65535 z"
                 id="path13638"
                 style="fill:url(#linearGradient13620);stroke:none" /></g></g></g></g></mask><linearGradient
       x1="0"
       y1="0"
       x2="1"
       y2="0"
       id="linearGradient13640"
       gradientUnits="userSpaceOnUse"
       gradientTransform="matrix(1.298455,-463.5253,-463.5253,-1.298455,367.3273,973.1218)"
       spreadMethod="pad"><stop
         id="stop13642"
         style="stop-color:#ffffff;stop-opacity:1"
         offset="0" /><stop
         id="stop13644"
         style="stop-color:#ffffff;stop-opacity:1"
         offset="1" /></linearGradient><clipPath
       id="clipPath13670"><path
         d="M 0,0 735,0 735,852 0,852 0,0 z"
         id="path13672" /></clipPath><clipPath
       id="clipPath13680"><path
         d="M 0,852 735,852 735,0 0,0 0,852 z"
         id="path13682" /></clipPath><clipPath
       id="clipPath13686"><path
         d="M 0,0 735,0 735,852 0,852 0,0 z"
         id="path13688" /></clipPath><clipPath
       id="clipPath13696"><path
         d="M 0,0 735,0 735,852 0,852 0,0 z"
         id="path13698" /></clipPath><clipPath
       id="clipPath13708"><path
         d="M 0,852 735,852 735,0 0,0 0,852 z"
         id="path13710" /></clipPath><clipPath
       id="clipPath13714"><path
         d="M 0,0 735,0 735,852 0,852 0,0 z"
         id="path13716" /></clipPath></defs><g
     transform="matrix(1.25,0,0,-1.25,0,1065)"
     id="g13536"><g
       id="g13538" /><g
       id="g13540"><g
         clip-path="url(#clipPath13544)"
         id="g13542"><g
           clip-path="url(#clipPath13550)"
           id="g13548"><g
             clip-path="url(#clipPath13556)"
             id="g13554"><path
               d="m 4.7736,390.5495 c 0,-244.182 -197.947,-442.132 -442.129,-442.132 -244.182,0 -442.129,197.95 -442.129,442.132 0,244.182 197.947,442.129 442.129,442.129 244.182,0 442.129,-197.947 442.129,-442.129"
               id="path13560"
               style="fill:#f2f2f2;fill-opacity:1;fill-rule:nonzero;stroke:none" /></g></g></g></g><g
       id="g13562"><g
         clip-path="url(#clipPath13566)"
         id="g13564"><path
           d="m 369.5076,844.6044 358.698,-207.07 0,-422.155 -358.698,-208.406 -366.714,208.406 0,422.155 366.714,207.07 z"
           id="path13570"
           style="fill:#ba6f38;fill-opacity:1;fill-rule:nonzero;stroke:none" /></g></g><g
       id="g13572"><g
         clip-path="url(#clipPath13576)"
         id="g13574"><g
           clip-path="url(#clipPath13582)"
           id="g13580"><path
             d="M 807.629,414.552 C 807.629,170.37 609.682,-27.58 365.5,-27.58 c -244.182,0 -442.129,197.95 -442.129,442.132 0,244.182 197.947,442.129 442.129,442.129 244.182,0 442.129,-197.947 442.129,-442.129"
             id="path13586"
             style="fill:#36a85d;fill-opacity:1;fill-rule:nonzero;stroke:none" /></g></g></g><g
       id="g13588"><g
         clip-path="url(#clipPath13592)"
         id="g13590"><g
           clip-path="url(#clipPath13598)"
           id="g13596"><g
             id="g13602" /><g
             id="g13646"><g
               clip-path="url(#clipPath13604)"
               id="g13648"
               style="opacity:0.25"><g
                 id="g13650" /><g
                 id="g13652"><g
                   clip-path="url(#clipPath13608)"
                   id="g13654"><g
                     clip-path="url(#clipPath13612)"
                     id="g13656"><g
                       id="g13658" /><g
                       mask="url(#mask13626)"
                       id="g13660"><g
                         id="g13662"><path
                           d="m 52.7233,510.291 630.4867,0 0,334.709 -630.4867,0 0,-334.709 z"
                           id="path13664"
                           style="fill:url(#linearGradient13640);stroke:none" /></g></g></g></g></g></g></g></g></g></g><g
       id="g13666"><g
         clip-path="url(#clipPath13670)"
         id="g13668"><path
           d="m 307.1862,816.1785 -277.817,-160.398 -29.283,-16.907 0,-424.253 29.283,-16.907 281.277,-162.397 56.852,-32.823 56.853,32.823 281.262,162.387 29.301,16.916 0,424.254 -29.301,16.917 -277.802,160.388 -60.313,34.822 -60.312,-34.822 z m -277.817,-585.645 0,390.431 338.121,195.214 10e-4,0 338.122,-195.214 0,-390.431 -338.123,-195.217 -338.121,195.217 z"
           id="path13674"
           style="fill:#298f4d;fill-opacity:1;fill-rule:nonzero;stroke:none" /></g></g><g
       id="g13676"><g
         clip-path="url(#clipPath13680)"
         id="g13678"><g
           clip-path="url(#clipPath13686)"
           id="g13684"><path
             d="m 367.0334,218.1005 c 0.287,0.285 0.605,0.588 0.933,0.888 l -0.255,0 c -0.225,-0.3 -0.451,-0.599 -0.678,-0.888"
             id="path13690"
             style="fill:#e6b35a;fill-opacity:1;fill-rule:nonzero;stroke:none" /></g></g></g><g
       id="g13692"><g
         clip-path="url(#clipPath13696)"
         id="g13694"><text
           transform="matrix(1,0,0,-1,84.8647,233.5479)"
           id="text13700"><tspan
             x="0 32.639999 115.68 201.60001 249.44 281.76001 366.88 438.23999 485.12"
             y="0"
             id="tspan13702"
             style="font-size:160px;font-variant:normal;font-weight:normal;writing-mode:lr-tb;fill:#ffffff;fill-opacity:1;fill-rule:nonzero;stroke:none;font-family:Myriad Pro;-inkscape-font-specification:MyriadPro-Regular">lubridate</tspan></text>
</g></g><g
       id="g13704"><g
         clip-path="url(#clipPath13708)"
         id="g13706"><g
           clip-path="url(#clipPath13714)"
           id="g13712"><text
             transform="matrix(0.86418122,0.50318071,0.50318071,-0.86418122,369.2838,42.9011)"
             id="text13718"><tspan
               x="0 18.699974 37.397446 54.822422 59.997417 68.172401 78.072388 86.347382 100.12236 114.22234 120.07233 133.19731 138.3723 149.42229 163.14728"
               y="0"
               id="tspan13720"
               style="font-size:24.99996567px;font-variant:normal;font-weight:normal;writing-mode:lr-tb;fill:#ffffff;fill-opacity:1;fill-rule:nonzero;stroke:none;font-family:Myriad Pro;-inkscape-font-specification:MyriadPro-Regular">www.rstudio.com</tspan></text>
<path
             d="m 266.467,593.131 230.544,0 0,-190.404 -230.544,0 0,190.404 z"
             id="path13722"
             style="fill:#298f4d;fill-opacity:1;fill-rule:nonzero;stroke:none" /><path
             d="m 487.6871,340.2121 c -0.134,-0.034 -0.301,-0.135 -0.393,-0.088 -0.233,0.117 -0.253,0.347 -0.057,0.512 0.077,0.065 0.317,0.053 0.387,-0.018 0.078,-0.079 0.047,-0.266 0.063,-0.406"
             id="path13724"
             style="fill:#298f4d;fill-opacity:1;fill-rule:nonzero;stroke:none" /><path
             d="m 491.6791,402.792 c -11.867,-0.021 -23.734,-0.042 -35.601,-0.064 -0.315,-0.001 -0.638,-0.034 -1.035,0.425 12.774,12.793 25.561,25.6 38.465,38.525 0.611,-1.065 0.383,-2.1 0.385,-3.05 0.026,-11.234 0.003,-22.469 10e-4,-33.703 -10e-4,-2.132 0.015,-2.129 -2.215,-2.133 m 8.249,-2.661 c 0.021,0.313 -0.047,0.632 -0.047,0.949 0.009,17.262 0.02,34.525 0.032,51.787 0.012,15.679 0.027,31.357 0.035,47.036 0.008,13.065 0.022,26.131 0.01,39.197 -0.017,16.707 -0.069,33.414 -0.085,50.122 -0.012,14.174 0.008,28.347 0.007,42.521 0,1.914 -0.021,1.95 -1.974,1.964 -4.831,0.034 -9.661,0.038 -14.492,0.041 -4.988,0.004 -9.976,0.018 -14.963,-0.03 -1.126,-0.011 -1.624,0.395 -1.56,1.504 0.018,0.317 0.033,0.635 0.031,0.951 -0.018,4.038 -0.103,8.077 -0.022,12.113 0.026,1.336 -0.39,1.67 -1.631,1.544 -1.097,-0.112 -2.22,-0.095 -3.322,-0.011 -2.337,0.179 -2.076,-0.263 -2.074,-2.047 0.004,-4.117 -0.027,-8.234 -0.012,-12.351 0.004,-1.08 -0.107,-1.733 -1.536,-1.684 -2.819,0.098 -2.823,-0.007 -2.838,2.89 -10e-4,0.316 0.012,0.633 0.013,0.95 0.007,3.405 0.031,6.811 0.014,10.216 -0.009,2.005 -0.038,2.013 -2.124,2.038 -1.187,0.014 -2.375,-0.035 -3.56,0.004 -1.009,0.032 -1.399,-0.38 -1.359,-1.4 0.057,-1.422 -0.007,-2.85 -0.009,-4.277 -0.004,-3.007 -0.026,-6.016 0.014,-9.024 0.013,-0.989 -0.263,-1.51 -1.343,-1.365 -0.308,0.041 -0.631,-0.048 -0.948,-0.049 -14.728,-0.012 -29.457,-0.029 -44.185,-0.03 -18.925,-0.001 -37.851,0.013 -56.776,0.016 -9.502,0.003 -19.004,-0.009 -28.506,-0.004 -2.395,0.002 -2.395,0.019 -2.394,2.504 0,0.317 0.004,0.633 0.003,0.949 -0.005,3.643 -0.045,7.287 0.002,10.929 0.015,1.177 -0.222,1.776 -1.585,1.664 -1.414,-0.117 -2.85,-0.046 -4.272,0.035 -0.967,0.054 -1.303,-0.317 -1.19,-1.243 0.047,-0.39 0,-0.792 10e-4,-1.188 0.009,-3.959 0.031,-7.918 0.019,-11.876 -0.002,-0.605 0.156,-1.477 -0.573,-1.663 -1.057,-0.269 -2.248,-0.394 -3.263,0.047 -0.884,0.382 -0.535,1.409 -0.539,2.162 -0.026,3.958 0.021,7.917 -0.009,11.875 -0.014,1.865 -0.065,1.865 -1.822,1.865 -1.188,0 -2.379,-0.063 -3.562,0.009 -1.213,0.073 -1.663,-0.282 -1.635,-1.609 0.082,-3.958 -0.022,-7.92 -0.012,-11.879 0.007,-2.536 0.04,-2.584 -2.558,-2.594 -9.265,-0.033 -18.53,-0.031 -27.795,-0.045 -1.953,-0.003 -1.932,-0.013 -2.423,-1.822 -0.192,-0.703 -0.215,-1.404 -0.208,-2.118 0.02,-1.741 0.045,-3.484 0.044,-5.227 -0.009,-15.362 -0.036,-30.724 -0.033,-46.087 0.002,-19.083 0.039,-38.167 0.041,-57.25 0,-6.338 -0.007,-12.675 -0.013,-19.012 1.623,1.583 3.265,3.154 4.902,4.751 0.381,0.372 0.778,0.662 1.183,0.894 0,7.737 0.002,15.474 -0.006,23.21 -0.012,11.798 -0.121,23.596 -0.072,35.393 0.014,3.533 -0.665,3.131 3.2,3.136 18.846,0.026 37.692,-0.028 56.537,-0.03 15.362,-0.002 30.723,0.034 46.084,0.044 22.646,0.014 45.292,0.02 67.938,0.03 15.995,0.007 31.989,0.013 47.983,0.018 0.793,0.001 1.585,-0.009 2.525,-0.015 0.5,-0.017 0.589,-0.449 0.598,-0.971 0.024,-1.425 0.095,-2.85 0.092,-4.275 -0.02,-15.757 -0.069,-31.514 -0.074,-47.271 -0.006,-16.549 0.028,-33.098 0.042,-49.648 0.004,-4.908 0.013,-9.817 -0.014,-14.725 -0.01,-1.785 -0.054,-1.854 -1.798,-1.863 -6.256,-0.035 -12.512,-0.019 -18.768,-0.023 -8.392,-0.004 -18.046,-0.007 -26.439,-0.017 -2.087,-0.002 -2.115,-0.011 -2.115,-2.055 -10e-4,-6.176 0.03,-12.353 0.034,-18.529 0.006,-8.472 0.011,-16.944 -0.01,-25.416 -0.004,-1.999 -0.049,-1.995 -2.106,-1.999 -23.517,-0.039 -45.772,-0.101 -69.288,-0.112 -15.337,-0.008 -30.675,0.015 -46.011,0.031 -0.25,-0.51 -0.551,-0.995 -0.936,-1.413 -1.791,-1.942 -3.911,-3.399 -6.176,-4.627 14.395,0.017 28.791,0.04 43.187,0.048 20.746,0.013 41.492,10e-4 62.237,0.003 23.518,0.002 47.037,0.009 70.555,0.014 3.042,10e-4 3.5,0.424 3.702,3.42"
             id="path13726"
             style="fill:#298f4d;fill-opacity:1;fill-rule:nonzero;stroke:none" /><path
             d="m 381.6442,450.3854 c -4.718,-0.003 -9.436,0.029 -14.153,-0.02 -1.648,-0.016 -2.462,0.204 -2.446,1.466 0.081,6.386 0.057,12.772 0.012,19.158 -0.007,0.981 0.442,1.383 2.014,1.378 9.798,-0.033 19.597,-0.033 29.395,-0.002 1.561,0.005 2.035,-0.381 2.028,-1.369 -0.045,-6.445 -0.052,-12.891 -0.002,-19.337 0.009,-1.075 -0.718,-1.295 -2.151,-1.285 -4.898,0.035 -9.798,0.014 -14.697,0.011"
             id="path13728"
             style="fill:#298f4d;fill-opacity:1;fill-rule:nonzero;stroke:none" /><path
             d="m 336.8104,472.318 c 4.625,0 9.251,-0.043 13.874,0.02 1.907,0.026 2.529,-0.435 2.516,-1.671 -0.065,-6.204 -0.067,-12.408 10e-4,-18.612 0.014,-1.253 -0.662,-1.664 -2.54,-1.655 -9.431,0.043 -18.863,0.044 -28.293,-10e-4 -1.905,-0.009 -2.529,0.436 -2.516,1.671 0.066,6.204 0.067,12.409 -10e-4,18.613 -0.014,1.252 0.66,1.679 2.541,1.655 4.804,-0.06 9.612,-0.02 14.418,-0.02"
             id="path13730"
             style="fill:#298f4d;fill-opacity:1;fill-rule:nonzero;stroke:none" /><path
             d="m 381.7006,480.154 c -4.808,0 -9.617,0.033 -14.424,-0.018 -1.627,-0.018 -2.235,0.311 -2.224,1.424 0.062,6.386 0.062,12.772 -10e-4,19.158 -0.011,1.124 0.627,1.422 2.237,1.416 9.707,-0.036 19.414,-0.033 29.122,-0.003 1.504,0.005 2.089,-0.305 2.081,-1.332 -0.048,-6.445 -0.049,-12.891 0,-19.336 0.008,-1.036 -0.602,-1.337 -2.094,-1.324 -4.898,0.041 -9.798,0.015 -14.697,0.015"
             id="path13732"
             style="fill:#298f4d;fill-opacity:1;fill-rule:nonzero;stroke:none" /><path
             d="m 353.173,491.1432 c 0.003,-3.102 -0.057,-6.205 0.033,-9.306 0.036,-1.235 -0.614,-1.684 -2.518,-1.675 -9.431,0.045 -18.863,0.046 -28.294,0.004 -1.877,-0.008 -2.561,0.401 -2.547,1.653 0.068,6.204 0.07,12.409 0.006,18.613 -0.013,1.235 0.607,1.681 2.513,1.672 9.432,-0.044 18.864,-0.04 28.295,0.003 1.873,0.008 2.58,-0.402 2.541,-1.658 -0.097,-3.101 -0.032,-6.204 -0.029,-9.306"
             id="path13734"
             style="fill:#298f4d;fill-opacity:1;fill-rule:nonzero;stroke:none" /><path
             d="m 381.8515,531.8839 c 4.808,0.002 9.618,-0.03 14.425,0.02 1.625,0.016 2.232,-0.317 2.221,-1.429 -0.061,-6.386 -0.061,-12.773 0.003,-19.158 0.011,-1.125 -0.634,-1.422 -2.24,-1.416 -9.707,0.035 -19.415,0.034 -29.122,0.004 -1.508,-0.004 -2.091,0.31 -2.083,1.333 0.048,6.446 0.051,12.891 0.003,19.337 -0.008,1.037 0.605,1.335 2.096,1.322 4.898,-0.04 9.798,-0.015 14.697,-0.013"
             id="path13736"
             style="fill:#298f4d;fill-opacity:1;fill-rule:nonzero;stroke:none" /><path
             d="m 336.6865,531.8581 c 4.627,0 9.256,-0.053 13.88,0.024 2.057,0.034 2.654,-0.471 2.638,-1.777 -0.073,-6.146 -0.072,-12.294 0.014,-18.44 0.019,-1.343 -0.69,-1.755 -2.688,-1.744 -9.344,0.055 -18.689,0.059 -28.033,0.008 -2.027,-0.011 -2.68,0.437 -2.662,1.76 0.084,6.147 0.09,12.294 0.011,18.441 -0.018,1.343 0.687,1.774 2.688,1.743 4.715,-0.072 9.434,-0.023 14.152,-0.023 l 0,0.008 z"
             id="path13738"
             style="fill:#298f4d;fill-opacity:1;fill-rule:nonzero;stroke:none" /><path
             d="m 426.6214,472.318 c 4.625,0 9.251,-0.043 13.874,0.02 1.907,0.026 2.529,-0.435 2.516,-1.671 -0.065,-6.204 -0.067,-12.408 0.001,-18.612 0.014,-1.253 -0.662,-1.664 -2.54,-1.655 -9.431,0.043 -18.863,0.044 -28.293,-10e-4 -1.905,-0.009 -2.529,0.436 -2.516,1.671 0.066,6.204 0.067,12.409 -0.001,18.613 -0.014,1.252 0.66,1.679 2.541,1.655 4.804,-0.06 9.612,-0.02 14.418,-0.02"
             id="path13740"
             style="fill:#298f4d;fill-opacity:1;fill-rule:nonzero;stroke:none" /><path
             d="m 442.984,491.1432 c 0.003,-3.102 -0.057,-6.205 0.033,-9.306 0.036,-1.235 -0.614,-1.684 -2.518,-1.675 -9.431,0.045 -18.863,0.046 -28.294,0.004 -1.877,-0.008 -2.561,0.401 -2.547,1.653 0.068,6.204 0.07,12.409 0.006,18.613 -0.013,1.235 0.607,1.681 2.513,1.672 9.432,-0.044 18.864,-0.04 28.295,0.003 1.873,0.008 2.58,-0.402 2.541,-1.658 -0.097,-3.101 -0.032,-6.204 -0.029,-9.306"
             id="path13742"
             style="fill:#298f4d;fill-opacity:1;fill-rule:nonzero;stroke:none" /><path
             d="m 426.4975,531.8581 c 4.627,0 9.256,-0.053 13.88,0.024 2.057,0.034 2.654,-0.471 2.638,-1.777 -0.073,-6.146 -0.072,-12.294 0.014,-18.44 0.019,-1.343 -0.69,-1.755 -2.688,-1.744 -9.344,0.055 -18.689,0.059 -28.033,0.008 -2.027,-0.011 -2.68,0.437 -2.662,1.76 0.084,6.147 0.09,12.294 0.011,18.441 -0.018,1.343 0.687,1.774 2.688,1.743 4.715,-0.072 9.434,-0.023 14.152,-0.023 l 0,0.008 z"
             id="path13744"
             style="fill:#298f4d;fill-opacity:1;fill-rule:nonzero;stroke:none" /><path
             d="m 344.6738,431.9335 c -8.663,-32.369 -41.926,-51.586 -74.295,-42.923 -32.368,8.664 -51.585,41.926 -42.922,74.295 8.663,32.369 41.926,51.586 74.294,42.923 32.369,-8.664 51.586,-41.926 42.923,-74.295"
             id="path13746"
             style="fill:#298f4d;fill-opacity:1;fill-rule:nonzero;stroke:none" /><path
             d="m 237.4861,477.1993 c 0,0 -0.006,-0.008 -0.009,-0.011 l -0.002,-0.002 0.011,0.013 z"
             id="path13748"
             style="fill:#298f4d;fill-opacity:1;fill-rule:nonzero;stroke:none" /><path
             d="m 342.1173,430.4672 c -1.348,-4.64 -3.249,-9.044 -5.717,-13.201 -0.097,-0.164 -0.171,-0.342 -0.256,-0.513 l -10e-4,-10e-4 c -0.073,0.005 -0.146,0.01 -0.219,0.015 l 0,-0.002 -0.002,0.002 0.002,0 0.002,0.017 -0.011,-0.013 0.011,0.013 c -0.005,-0.003 -0.01,-0.004 -0.01,-0.004 l -0.006,-0.005 -0.001,0.001 0.001,0 c -0.054,0.505 -0.37,0.792 -0.789,1.042 -1.68,1.003 -3.346,2.03 -5.018,3.046 -0.196,0.12 -0.392,0.251 -0.605,0.33 -0.288,0.107 -0.531,-0.009 -0.689,-0.264 -0.137,-0.221 -0.096,-0.452 0.071,-0.636 0.126,-0.139 0.283,-0.259 0.445,-0.358 1.74,-1.053 3.491,-2.086 5.22,-3.157 0.479,-0.297 0.897,-0.293 1.342,-0.014 0.013,-0.004 0.024,-0.008 0.036,-0.012 -0.014,-0.147 -0.028,-0.294 -0.042,-0.441 -0.176,-0.097 -0.245,-0.259 -0.267,-0.449 l 0,0 c -1.591,-2.309 -3.176,-4.621 -5.006,-6.756 -4.119,-4.806 -8.877,-8.848 -14.31,-12.096 -0.133,-0.079 -0.268,-0.154 -0.394,-0.242 -0.38,-0.264 -0.606,-0.142 -0.808,0.25 -0.688,1.334 -1.399,2.656 -2.103,3.981 -0.198,0.374 -0.392,0.751 -0.608,1.114 -0.225,0.38 -0.562,0.561 -0.968,0.313 -0.387,-0.236 -0.264,-0.592 -0.105,-0.92 0.707,-1.453 1.449,-2.89 2.115,-4.362 0.7,-1.548 1.007,-1.229 -0.79,-2.137 -6.563,-3.319 -13.526,-5.272 -20.841,-5.971 -1.491,-0.142 -2.993,-0.198 -4.492,-0.245 -1.225,-0.038 -1.23,-0.005 -1.17,1.183 0.106,2.115 0.22,4.23 0.324,6.345 0.046,0.928 -0.134,1.322 -0.59,1.249 -0.706,-0.112 -0.574,-0.719 -0.601,-1.191 -0.126,-2.19 -0.227,-4.383 -0.352,-6.574 -0.053,-0.935 -0.07,-0.946 -1.03,-0.908 -6.52,0.258 -12.793,1.657 -18.844,4.089 -2.669,1.072 -5.228,2.332 -7.681,3.772 0.105,0.125 0.192,0.273 0.281,0.417 1.023,1.675 2.648,4.326 3.667,6.004 0.412,0.678 0.409,1.11 -0.031,1.288 -0.612,0.247 -0.798,-0.278 -1.031,-0.657 -1.008,-1.638 -2.607,-4.26 -3.605,-5.905 -0.102,-0.167 -0.198,-0.339 -0.258,-0.525 -2.114,1.298 -4.162,2.708 -6.114,4.28 -5.423,4.366 -9.905,9.554 -13.432,15.56 -0.442,0.753 -0.441,0.768 0.327,1.224 1.92,1.138 3.847,2.264 5.77,3.398 0.265,0.156 0.535,0.31 0.776,0.498 0.267,0.21 0.392,0.489 0.158,0.802 -0.212,0.283 -0.495,0.355 -0.815,0.184 -0.272,-0.145 -0.538,-0.301 -0.803,-0.457 -1.823,-1.075 -3.644,-2.154 -5.47,-3.225 -0.998,-0.586 -1.012,-0.586 -1.52,0.407 -1.543,3.022 -2.81,6.153 -3.83,9.392 -1.3,4.128 -2.071,8.352 -2.452,12.651 -0.132,1.492 -0.124,2.996 -0.199,4.493 -0.029,0.594 0.279,0.712 0.788,0.688 1.885,-0.088 3.77,-0.158 5.656,-0.234 0.269,-0.011 0.539,-0.03 0.808,-0.026 0.728,0.012 1.076,0.214 1.03,0.634 -0.068,0.626 -0.576,0.635 -1.04,0.66 -0.538,0.029 -1.079,0.069 -1.616,0.044 -1.581,-0.07 -3.155,0.06 -4.731,0.122 -0.831,0.032 -0.833,0.061 -0.824,0.871 0.024,2.008 0.3,3.995 0.603,5.969 0.608,3.961 1.595,7.833 3.028,11.585 1.128,2.95 2.445,5.809 4.038,8.538 0.076,0.13 0.117,0.28 0.175,0.421 0.093,0.071 0.125,0.18 0.165,0.283 0.465,-0.278 1.009,-0.589 1.105,-0.647 1.737,-1.065 3.475,-2.128 5.218,-3.181 0.387,-0.234 0.854,-0.59 1.192,-0.015 0.337,0.574 -0.215,0.817 -0.591,1.047 -1.705,1.045 -3.42,2.071 -5.134,3.1 -0.1,0.059 -0.669,0.374 -1.219,0.675 0.018,0.022 0.026,0.049 0.046,0.068 0.118,0.139 0.091,0.373 0.299,0.452 1.708,2.417 3.398,4.846 5.356,7.077 4.176,4.76 9.007,8.715 14.476,11.896 0.685,0.398 0.71,0.389 1.116,-0.325 1.028,-1.806 2.037,-3.623 3.064,-5.43 0.238,-0.418 0.412,-0.996 1.088,-0.775 0.414,0.135 0.399,0.6 -0.044,1.404 -0.984,1.787 -1.983,3.565 -2.968,5.351 -0.421,0.765 -0.423,0.793 0.363,1.195 2.917,1.494 5.943,2.717 9.068,3.713 4.122,1.313 8.347,2.096 12.647,2.476 1.646,0.146 3.303,0.166 4.955,0.214 0.719,0.021 0.779,-0.053 0.753,-0.801 -0.066,-1.963 -0.155,-3.925 -0.231,-5.887 -0.014,-0.345 -0.056,-0.692 0.053,-1.032 0.089,-0.276 0.231,-0.503 0.551,-0.501 0.306,0.002 0.513,0.211 0.585,0.476 0.08,0.292 0.09,0.607 0.097,0.913 0.05,1.923 0.08,3.848 0.139,5.771 0.03,0.995 0.051,1.008 1.081,0.948 7.579,-0.447 14.807,-2.28 21.643,-5.586 1.649,-0.797 3.225,-1.68 4.767,-2.603 -0.021,-0.032 -0.044,-0.061 -0.064,-0.094 -0.04,-0.066 -0.786,-1.298 -0.826,-1.363 -0.997,-1.633 -1.996,-3.265 -2.988,-4.901 -0.156,-0.259 -0.354,-0.512 -0.333,-0.84 0.024,-0.351 0.198,-0.569 0.562,-0.584 0.369,0.023 0.527,0.289 0.688,0.553 1.074,1.765 2.855,4.697 3.926,6.463 0.027,0.044 0.05,0.089 0.075,0.134 6.911,-4.328 12.722,-9.931 17.357,-16.879 0.641,-0.96 1.241,-1.948 1.836,-2.937 0.524,-0.871 0.514,-0.889 -0.341,-1.372 -1.576,-0.89 -3.16,-1.764 -4.735,-2.651 -0.301,-0.17 -0.599,-0.352 -0.867,-0.567 -0.234,-0.186 -0.287,-0.452 -0.119,-0.723 0.161,-0.262 0.399,-0.36 0.691,-0.248 0.214,0.083 0.423,0.186 0.624,0.298 1.578,0.883 3.152,1.775 4.733,2.653 1.234,0.685 1.026,0.818 1.715,-0.554 1.593,-3.17 2.88,-6.466 3.869,-9.873 1.423,-4.902 2.164,-9.914 2.269,-15.01 0.048,-2.345 0.212,-1.919 -1.849,-1.88 -1.615,0.03 -3.231,0.064 -4.847,0.093 -0.191,0.004 -0.387,0.01 -0.574,-0.025 -0.305,-0.058 -0.455,-0.276 -0.462,-0.577 -0.006,-0.317 0.171,-0.506 0.48,-0.543 0.305,-0.037 0.614,-0.051 0.921,-0.065 1.77,-0.074 3.54,-0.139 5.309,-0.221 0.941,-0.043 0.943,-0.056 0.905,-1.017 -0.175,-4.404 -0.944,-8.711 -2.172,-12.937 m 6.878,12.719 c 1.911,35.92 -25.774,64.093 -59.024,65.807 -34.973,1.877 -63.944,-25.062 -65.753,-58.962 -1.848,-34.655 24.471,-64.049 59.134,-65.817 35.278,-1.799 63.838,25.046 65.643,58.972"
             id="path13750"
             style="fill:#298f4d;fill-opacity:1;fill-rule:nonzero;stroke:none" /><path
             d="m 321.7832,425.3765 c -0.652,0.548 -1.386,0.959 -2.169,1.285 l 0,0.001 c -0.646,0.693 -1.524,1.027 -2.315,1.495 -0.748,0.61 -1.574,1.098 -2.431,1.539 l 0,0 0,0 -10e-4,-0.001 -0.01,-0.009 c -0.11,0.038 -0.163,0.143 -0.25,0.21 l -0.018,0.01 c -0.091,0.171 -0.239,0.248 -0.428,0.255 l -0.009,0.005 c -0.093,0.175 -0.245,0.25 -0.436,0.262 -0.094,0.179 -0.252,0.249 -0.443,0.264 -0.092,0.18 -0.253,0.246 -0.439,0.271 -0.033,0.12 -0.11,0.194 -0.235,0.218 l -10e-4,0 10e-4,0 c -0.09,0.185 -0.252,0.25 -0.442,0.267 -0.091,0.183 -0.255,0.246 -0.445,0.262 -0.09,0.186 -0.254,0.247 -0.445,0.262 -0.09,0.188 -0.256,0.247 -0.448,0.262 -0.035,0.119 -0.122,0.18 -0.239,0.206 l -10e-4,0.001 c -0.079,0.193 -0.235,0.268 -0.43,0.284 -0.089,0.189 -0.255,0.248 -0.448,0.262 -0.037,0.118 -0.122,0.178 -0.244,0.192 0.082,-0.067 0.164,-0.134 0.246,-0.201 l 0.001,-0.003 c -0.108,0.037 -0.168,0.132 -0.247,0.204 l -0.013,0.007 c -0.093,0.171 -0.245,0.246 -0.433,0.26 -1.117,0.952 -2.421,1.628 -3.644,2.421 -4.874,3.16 -9.779,6.272 -14.672,9.404 -0.745,0.477 -1.473,0.982 -2.231,1.437 -0.516,0.309 -0.569,0.67 -0.266,1.144 0.104,0.162 0.198,0.33 0.292,0.498 1.872,3.312 3.742,6.624 5.614,9.936 l 0,0.001 c 0.179,0.098 0.245,0.255 0.231,0.452 0.039,0.052 0.057,0.11 0.055,0.174 0.115,0.057 0.185,0.145 0.197,0.276 l -10e-4,0 10e-4,0 c 0.044,0.044 0.065,0.098 0.063,0.16 0.118,0.063 0.189,0.16 0.204,0.294 l 0.006,0.009 c 0.174,0.094 0.251,0.245 0.259,0.437 l 0.001,0.002 c 0.177,0.097 0.249,0.249 0.235,0.446 0.039,0.056 0.06,0.118 0.061,0.186 0.863,1.019 1.367,2.25 2.016,3.395 0.437,0.544 0.79,1.135 1.035,1.789 0.012,0 0.023,0.02 0.034,0.05 0.177,0.265 0.374,0.52 0.516,0.803 0.144,0.289 0.459,0.518 0.449,1.078 -0.58,-0.553 -0.849,-1.073 -1.021,-1.654 -0.564,-0.504 -0.9,-1.162 -1.231,-1.823 l 0,0 c -0.696,-1.103 -1.568,-2.097 -2.065,-3.325 l 0,0 0,0 0,0 0.004,-0.004 c -0.121,-0.038 -0.187,-0.121 -0.205,-0.246 0.069,0.082 0.137,0.164 0.206,0.245 l 0,0 c -0.047,-0.1 -0.148,-0.154 -0.206,-0.245 l -0.012,-0.015 c -0.193,-0.072 -0.264,-0.225 -0.28,-0.416 -0.178,-0.094 -0.248,-0.252 -0.263,-0.444 -0.109,-0.039 -0.173,-0.112 -0.176,-0.234 0.059,0.077 0.119,0.153 0.178,0.23 -0.06,-0.076 -0.119,-0.153 -0.178,-0.23 -0.048,-0.05 -0.073,-0.109 -0.076,-0.178 -0.113,-0.056 -0.183,-0.143 -0.194,-0.272 l 0,0 0,0 c -0.229,-0.307 -0.475,-0.602 -0.683,-0.923 -2.051,-3.158 -4.089,-6.323 -6.143,-9.479 -0.558,-0.857 -0.575,-0.844 -1.473,-0.259 -0.193,0.126 -0.392,0.244 -0.591,0.36 -0.83,0.483 -0.83,0.483 -1.321,-0.288 -0.793,-1.246 -0.794,-1.247 0.46,-1.941 0.134,-0.074 0.275,-0.137 0.409,-0.211 0.65,-0.359 0.665,-0.404 0.298,-1.046 -0.094,-0.167 -0.209,-0.322 -0.315,-0.482 -0.483,-0.725 -0.483,-0.724 0.3,-1.183 0.743,-0.435 0.743,-0.435 1.202,0.35 0.097,0.165 0.211,0.324 0.288,0.499 0.221,0.497 0.525,0.588 0.997,0.293 0.684,-0.426 1.393,-0.814 2.092,-1.217 4.161,-2.396 8.313,-4.805 12.485,-7.18 2.235,-1.272 4.41,-2.654 6.73,-3.775 0.111,-0.037 0.189,-0.119 0.273,-0.193 0.042,-0.049 0.095,-0.071 0.159,-0.066 0.064,-0.119 0.161,-0.19 0.298,-0.204 l 0.017,-0.01 c 0.092,-0.169 0.237,-0.251 0.427,-0.258 l 0.007,-0.004 c 0.156,-0.238 0.404,-0.269 0.655,-0.297 0.033,-0.118 0.114,-0.176 0.236,-0.183 -0.077,0.063 -0.154,0.124 -0.232,0.187 0.083,-0.056 0.16,-0.118 0.232,-0.186 0.042,-0.049 0.095,-0.07 0.158,-0.065 0.063,-0.118 0.158,-0.19 0.293,-0.203 0.037,-0.047 0.085,-0.065 0.144,-0.054 0.067,-0.122 0.167,-0.196 0.306,-0.215 l 0.006,-0.004 c 0.094,-0.176 0.249,-0.249 0.439,-0.262 0.099,-0.18 0.26,-0.237 0.453,-0.23 0.046,-0.044 0.099,-0.06 0.161,-0.05 0.062,-0.117 0.156,-0.188 0.289,-0.201 0.038,-0.048 0.087,-0.067 0.147,-0.057 0.067,-0.121 0.167,-0.193 0.306,-0.21 l 0.01,-0.006 c 0.093,-0.173 0.245,-0.25 0.435,-0.26 l 10e-4,0 0.001,-10e-4 c 0.095,-0.178 0.252,-0.25 0.445,-0.264 l -0.001,10e-4 c 0.881,-0.532 1.705,-1.16 2.672,-1.541 0.677,-0.418 1.354,-0.835 2.031,-1.252 0.928,-0.467 1.703,-1.211 2.718,-1.521 0.619,-0.529 1.299,-0.941 2.165,-1.013 -0.716,0.417 -1.433,0.835 -2.15,1.253 z"
             id="path13752"
             style="fill:#298f4d;fill-opacity:1;fill-rule:nonzero;stroke:none" /><path
             d="m 308.6826,432.7459 c 0.057,-0.112 0.144,-0.182 0.272,-0.193 -0.09,0.064 -0.181,0.128 -0.272,0.193"
             id="path13754"
             style="fill:#298f4d;fill-opacity:1;fill-rule:nonzero;stroke:none" /><path
             d="m 314.8573,429.6865 c -0.032,0.131 -0.12,0.195 -0.25,0.21 0.083,-0.07 0.167,-0.14 0.25,-0.21"
             id="path13756"
             style="fill:#298f4d;fill-opacity:1;fill-rule:nonzero;stroke:none" /><path
             d="m 261.467,602.131 230.544,0 0,-190.404 -230.544,0 0,190.404 z"
             id="path13758"
             style="fill:#36a85d;fill-opacity:1;fill-rule:nonzero;stroke:none" /><path
             d="m 482.6871,349.2121 c -0.134,-0.034 -0.301,-0.135 -0.393,-0.088 -0.233,0.117 -0.253,0.347 -0.057,0.512 0.077,0.065 0.317,0.053 0.387,-0.018 0.078,-0.079 0.047,-0.266 0.063,-0.406"
             id="path13760"
             style="fill:#ffffff;fill-opacity:1;fill-rule:nonzero;stroke:none" /><path
             d="m 486.6791,411.792 c -11.867,-0.021 -23.734,-0.042 -35.601,-0.064 -0.315,-0.001 -0.638,-0.034 -1.035,0.425 12.774,12.793 25.561,25.6 38.465,38.525 0.611,-1.065 0.383,-2.1 0.385,-3.05 0.026,-11.234 0.003,-22.469 10e-4,-33.703 -10e-4,-2.132 0.015,-2.129 -2.215,-2.133 m 8.249,-2.661 c 0.021,0.313 -0.047,0.632 -0.047,0.949 0.009,17.262 0.02,34.525 0.032,51.787 0.012,15.679 0.027,31.357 0.035,47.036 0.008,13.065 0.022,26.131 0.01,39.197 -0.017,16.707 -0.069,33.414 -0.085,50.122 -0.012,14.174 0.008,28.347 0.007,42.521 0,1.914 -0.021,1.95 -1.974,1.964 -4.831,0.034 -9.661,0.038 -14.492,0.041 -4.988,0.004 -9.976,0.018 -14.963,-0.03 -1.126,-0.011 -1.624,0.395 -1.56,1.504 0.018,0.317 0.033,0.635 0.031,0.951 -0.018,4.038 -0.103,8.077 -0.022,12.113 0.026,1.336 -0.39,1.67 -1.631,1.544 -1.097,-0.112 -2.22,-0.095 -3.322,-0.011 -2.337,0.179 -2.076,-0.263 -2.074,-2.047 0.004,-4.117 -0.027,-8.234 -0.012,-12.351 0.004,-1.08 -0.107,-1.733 -1.536,-1.684 -2.819,0.098 -2.823,-0.007 -2.838,2.89 -10e-4,0.316 0.012,0.633 0.013,0.95 0.007,3.405 0.031,6.811 0.014,10.216 -0.009,2.005 -0.038,2.013 -2.124,2.038 -1.187,0.014 -2.375,-0.035 -3.56,0.004 -1.009,0.032 -1.399,-0.38 -1.359,-1.4 0.057,-1.422 -0.007,-2.85 -0.009,-4.277 -0.004,-3.007 -0.026,-6.016 0.014,-9.024 0.013,-0.989 -0.263,-1.51 -1.343,-1.365 -0.308,0.041 -0.631,-0.048 -0.948,-0.049 -14.728,-0.012 -29.457,-0.029 -44.185,-0.03 -18.925,-0.001 -37.851,0.013 -56.776,0.016 -9.502,0.003 -19.004,-0.009 -28.506,-0.004 -2.395,0.002 -2.395,0.019 -2.394,2.504 0,0.317 0.004,0.633 0.003,0.949 -0.005,3.643 -0.045,7.287 0.002,10.929 0.015,1.177 -0.222,1.776 -1.585,1.664 -1.414,-0.117 -2.85,-0.046 -4.272,0.035 -0.967,0.054 -1.303,-0.317 -1.19,-1.243 0.047,-0.39 0,-0.792 10e-4,-1.188 0.009,-3.959 0.031,-7.918 0.019,-11.876 -0.002,-0.605 0.156,-1.477 -0.573,-1.663 -1.057,-0.269 -2.248,-0.394 -3.263,0.047 -0.884,0.382 -0.535,1.409 -0.539,2.162 -0.026,3.958 0.021,7.917 -0.009,11.875 -0.014,1.865 -0.065,1.865 -1.822,1.865 -1.188,0 -2.379,-0.063 -3.562,0.009 -1.213,0.073 -1.663,-0.282 -1.635,-1.609 0.082,-3.958 -0.022,-7.92 -0.012,-11.879 0.007,-2.536 0.04,-2.584 -2.558,-2.594 -9.265,-0.033 -18.53,-0.031 -27.795,-0.045 -1.953,-0.003 -1.932,-0.013 -2.423,-1.822 -0.192,-0.703 -0.215,-1.404 -0.208,-2.118 0.02,-1.741 0.045,-3.484 0.044,-5.227 -0.009,-15.362 -0.036,-30.724 -0.033,-46.087 0.002,-19.083 0.039,-38.167 0.041,-57.25 0,-6.338 -0.007,-12.675 -0.013,-19.012 1.623,1.583 3.265,3.154 4.902,4.751 0.381,0.372 0.778,0.662 1.183,0.894 0,7.737 0.002,15.474 -0.006,23.21 -0.012,11.798 -0.121,23.596 -0.072,35.393 0.014,3.533 -0.665,3.131 3.2,3.136 18.846,0.026 37.692,-0.028 56.537,-0.03 15.362,-0.002 30.723,0.034 46.084,0.044 22.646,0.014 45.292,0.02 67.938,0.03 15.995,0.007 31.989,0.013 47.983,0.018 0.793,0.001 1.585,-0.009 2.525,-0.015 0.5,-0.017 0.589,-0.449 0.598,-0.971 0.024,-1.425 0.095,-2.85 0.092,-4.275 -0.02,-15.757 -0.069,-31.514 -0.074,-47.271 -0.006,-16.549 0.028,-33.098 0.042,-49.648 0.004,-4.908 0.013,-9.817 -0.014,-14.725 -0.01,-1.785 -0.054,-1.854 -1.798,-1.863 -6.256,-0.035 -12.512,-0.019 -18.768,-0.023 -8.392,-0.004 -18.046,-0.007 -26.439,-0.017 -2.087,-0.002 -2.115,-0.011 -2.115,-2.055 -10e-4,-6.176 0.03,-12.353 0.034,-18.529 0.006,-8.472 0.011,-16.944 -0.01,-25.416 -0.004,-1.999 -0.049,-1.995 -2.106,-1.999 -23.517,-0.039 -45.772,-0.101 -69.288,-0.112 -15.337,-0.008 -30.675,0.015 -46.011,0.031 -0.25,-0.51 -0.551,-0.995 -0.936,-1.413 -1.791,-1.942 -3.911,-3.399 -6.176,-4.627 14.395,0.017 28.791,0.04 43.187,0.048 20.746,0.013 41.492,10e-4 62.237,0.003 23.518,0.002 47.037,0.009 70.555,0.014 3.042,10e-4 3.5,0.424 3.702,3.42"
             id="path13762"
             style="fill:#ffffff;fill-opacity:1;fill-rule:nonzero;stroke:none" /><path
             d="m 376.6442,459.3854 c -4.718,-0.003 -9.436,0.029 -14.153,-0.02 -1.648,-0.016 -2.462,0.204 -2.446,1.466 0.081,6.386 0.057,12.772 0.012,19.158 -0.007,0.981 0.442,1.383 2.014,1.378 9.798,-0.033 19.597,-0.033 29.395,-0.002 1.561,0.005 2.035,-0.381 2.028,-1.369 -0.045,-6.445 -0.052,-12.891 -0.002,-19.337 0.009,-1.075 -0.718,-1.295 -2.151,-1.285 -4.898,0.035 -9.798,0.014 -14.697,0.011"
             id="path13764"
             style="fill:#ffffff;fill-opacity:1;fill-rule:nonzero;stroke:none" /><path
             d="m 331.8104,481.318 c 4.625,0 9.251,-0.043 13.874,0.02 1.907,0.026 2.529,-0.435 2.516,-1.671 -0.065,-6.204 -0.067,-12.408 10e-4,-18.612 0.014,-1.253 -0.662,-1.664 -2.54,-1.655 -9.431,0.043 -18.863,0.044 -28.293,-10e-4 -1.905,-0.009 -2.529,0.436 -2.516,1.671 0.066,6.204 0.067,12.409 -10e-4,18.613 -0.014,1.252 0.66,1.679 2.541,1.655 4.804,-0.06 9.612,-0.02 14.418,-0.02"
             id="path13766"
             style="fill:#ffffff;fill-opacity:1;fill-rule:nonzero;stroke:none" /><path
             d="m 376.7006,489.154 c -4.808,0 -9.617,0.033 -14.424,-0.018 -1.627,-0.018 -2.235,0.311 -2.224,1.424 0.062,6.386 0.062,12.772 -10e-4,19.158 -0.011,1.124 0.627,1.422 2.237,1.416 9.707,-0.036 19.414,-0.033 29.122,-0.003 1.504,0.005 2.089,-0.305 2.081,-1.332 -0.048,-6.445 -0.049,-12.891 0,-19.336 0.008,-1.036 -0.602,-1.337 -2.094,-1.324 -4.898,0.041 -9.798,0.015 -14.697,0.015"
             id="path13768"
             style="fill:#ffffff;fill-opacity:1;fill-rule:nonzero;stroke:none" /><path
             d="m 348.173,500.1432 c 0.003,-3.102 -0.057,-6.205 0.033,-9.306 0.036,-1.235 -0.614,-1.684 -2.518,-1.675 -9.431,0.045 -18.863,0.046 -28.294,0.004 -1.877,-0.008 -2.561,0.401 -2.547,1.653 0.068,6.204 0.07,12.409 0.006,18.613 -0.013,1.235 0.607,1.681 2.513,1.672 9.432,-0.044 18.864,-0.04 28.295,0.003 1.873,0.008 2.58,-0.402 2.541,-1.658 -0.097,-3.101 -0.032,-6.204 -0.029,-9.306"
             id="path13770"
             style="fill:#ffffff;fill-opacity:1;fill-rule:nonzero;stroke:none" /><path
             d="m 376.8515,540.8839 c 4.808,0.002 9.618,-0.03 14.425,0.02 1.625,0.016 2.232,-0.317 2.221,-1.429 -0.061,-6.386 -0.061,-12.773 0.003,-19.158 0.011,-1.125 -0.634,-1.422 -2.24,-1.416 -9.707,0.035 -19.415,0.034 -29.122,0.004 -1.508,-0.004 -2.091,0.31 -2.083,1.333 0.048,6.446 0.051,12.891 0.003,19.337 -0.008,1.037 0.605,1.335 2.096,1.322 4.898,-0.04 9.798,-0.015 14.697,-0.013"
             id="path13772"
             style="fill:#ffffff;fill-opacity:1;fill-rule:nonzero;stroke:none" /><path
             d="m 331.6865,540.8581 c 4.627,0 9.256,-0.053 13.88,0.024 2.057,0.034 2.654,-0.471 2.638,-1.777 -0.073,-6.146 -0.072,-12.294 0.014,-18.44 0.019,-1.343 -0.69,-1.755 -2.688,-1.744 -9.344,0.055 -18.689,0.059 -28.033,0.008 -2.027,-0.011 -2.68,0.437 -2.662,1.76 0.084,6.147 0.09,12.294 0.011,18.441 -0.018,1.343 0.687,1.774 2.688,1.743 4.715,-0.072 9.434,-0.023 14.152,-0.023 l 0,0.008 z"
             id="path13774"
             style="fill:#ffffff;fill-opacity:1;fill-rule:nonzero;stroke:none" /><path
             d="m 421.6214,481.318 c 4.625,0 9.251,-0.043 13.874,0.02 1.907,0.026 2.529,-0.435 2.516,-1.671 -0.065,-6.204 -0.067,-12.408 0.001,-18.612 0.014,-1.253 -0.662,-1.664 -2.54,-1.655 -9.431,0.043 -18.863,0.044 -28.293,-10e-4 -1.905,-0.009 -2.529,0.436 -2.516,1.671 0.066,6.204 0.067,12.409 -0.001,18.613 -0.014,1.252 0.66,1.679 2.541,1.655 4.804,-0.06 9.612,-0.02 14.418,-0.02"
             id="path13776"
             style="fill:#ffffff;fill-opacity:1;fill-rule:nonzero;stroke:none" /><path
             d="m 437.984,500.1432 c 0.003,-3.102 -0.057,-6.205 0.033,-9.306 0.036,-1.235 -0.614,-1.684 -2.518,-1.675 -9.431,0.045 -18.863,0.046 -28.294,0.004 -1.877,-0.008 -2.561,0.401 -2.547,1.653 0.068,6.204 0.07,12.409 0.006,18.613 -0.013,1.235 0.607,1.681 2.513,1.672 9.432,-0.044 18.864,-0.04 28.295,0.003 1.873,0.008 2.58,-0.402 2.541,-1.658 -0.097,-3.101 -0.032,-6.204 -0.029,-9.306"
             id="path13778"
             style="fill:#ffffff;fill-opacity:1;fill-rule:nonzero;stroke:none" /><path
             d="m 421.4975,540.8581 c 4.627,0 9.256,-0.053 13.88,0.024 2.057,0.034 2.654,-0.471 2.638,-1.777 -0.073,-6.146 -0.072,-12.294 0.014,-18.44 0.019,-1.343 -0.69,-1.755 -2.688,-1.744 -9.344,0.055 -18.689,0.059 -28.033,0.008 -2.027,-0.011 -2.68,0.437 -2.662,1.76 0.084,6.147 0.09,12.294 0.011,18.441 -0.018,1.343 0.687,1.774 2.688,1.743 4.715,-0.072 9.434,-0.023 14.152,-0.023 l 0,0.008 z"
             id="path13780"
             style="fill:#ffffff;fill-opacity:1;fill-rule:nonzero;stroke:none" /><path
             d="m 339.6738,440.9335 c -8.663,-32.369 -41.926,-51.586 -74.295,-42.923 -32.368,8.664 -51.585,41.926 -42.922,74.295 8.663,32.369 41.926,51.586 74.294,42.923 32.369,-8.664 51.586,-41.926 42.923,-74.295"
             id="path13782"
             style="fill:#36a85d;fill-opacity:1;fill-rule:nonzero;stroke:none" /><path
             d="m 232.4861,486.1993 c 0,0 -0.006,-0.008 -0.009,-0.011 l -0.002,-0.002 0.011,0.013 z"
             id="path13784"
             style="fill:#ffffff;fill-opacity:1;fill-rule:nonzero;stroke:none" /><path
             d="m 337.1173,439.4672 c -1.348,-4.64 -3.249,-9.044 -5.717,-13.201 -0.097,-0.164 -0.171,-0.342 -0.256,-0.513 l -10e-4,-10e-4 c -0.073,0.005 -0.146,0.01 -0.219,0.015 l 0,-0.002 -0.002,0.002 0.002,0 0.002,0.017 -0.011,-0.013 0.011,0.013 c -0.005,-0.003 -0.01,-0.004 -0.01,-0.004 l -0.006,-0.005 -0.001,0.001 0.001,0 c -0.054,0.505 -0.37,0.792 -0.789,1.042 -1.68,1.003 -3.346,2.03 -5.018,3.046 -0.196,0.12 -0.392,0.251 -0.605,0.33 -0.288,0.107 -0.531,-0.009 -0.689,-0.264 -0.137,-0.221 -0.096,-0.452 0.071,-0.636 0.126,-0.139 0.283,-0.259 0.445,-0.358 1.74,-1.053 3.491,-2.086 5.22,-3.157 0.479,-0.297 0.897,-0.293 1.342,-0.014 0.013,-0.004 0.024,-0.008 0.036,-0.012 -0.014,-0.147 -0.028,-0.294 -0.042,-0.441 -0.176,-0.097 -0.245,-0.259 -0.267,-0.449 l 0,0 c -1.591,-2.309 -3.176,-4.621 -5.006,-6.756 -4.119,-4.806 -8.877,-8.848 -14.31,-12.096 -0.133,-0.079 -0.268,-0.154 -0.394,-0.242 -0.38,-0.264 -0.606,-0.142 -0.808,0.25 -0.688,1.334 -1.399,2.656 -2.103,3.981 -0.198,0.374 -0.392,0.751 -0.608,1.114 -0.225,0.38 -0.562,0.561 -0.968,0.313 -0.387,-0.236 -0.264,-0.592 -0.105,-0.92 0.707,-1.453 1.449,-2.89 2.115,-4.362 0.7,-1.548 1.007,-1.229 -0.79,-2.137 -6.563,-3.319 -13.526,-5.272 -20.841,-5.971 -1.491,-0.142 -2.993,-0.198 -4.492,-0.245 -1.225,-0.038 -1.23,-0.005 -1.17,1.183 0.106,2.115 0.22,4.23 0.324,6.345 0.046,0.928 -0.134,1.322 -0.59,1.249 -0.706,-0.112 -0.574,-0.719 -0.601,-1.191 -0.126,-2.19 -0.227,-4.383 -0.352,-6.574 -0.053,-0.935 -0.07,-0.946 -1.03,-0.908 -6.52,0.258 -12.793,1.657 -18.844,4.089 -2.669,1.072 -5.228,2.332 -7.681,3.772 0.105,0.125 0.192,0.273 0.281,0.417 1.023,1.675 2.648,4.326 3.667,6.004 0.412,0.678 0.409,1.11 -0.031,1.288 -0.612,0.247 -0.798,-0.278 -1.031,-0.657 -1.008,-1.638 -2.607,-4.26 -3.605,-5.905 -0.102,-0.167 -0.198,-0.339 -0.258,-0.525 -2.114,1.298 -4.162,2.708 -6.114,4.28 -5.423,4.366 -9.905,9.554 -13.432,15.56 -0.442,0.753 -0.441,0.768 0.327,1.224 1.92,1.138 3.847,2.264 5.77,3.398 0.265,0.156 0.535,0.31 0.776,0.498 0.267,0.21 0.392,0.489 0.158,0.802 -0.212,0.283 -0.495,0.355 -0.815,0.184 -0.272,-0.145 -0.538,-0.301 -0.803,-0.457 -1.823,-1.075 -3.644,-2.154 -5.47,-3.225 -0.998,-0.586 -1.012,-0.586 -1.52,0.407 -1.543,3.022 -2.81,6.153 -3.83,9.392 -1.3,4.128 -2.071,8.352 -2.452,12.651 -0.132,1.492 -0.124,2.996 -0.199,4.493 -0.029,0.594 0.279,0.712 0.788,0.688 1.885,-0.088 3.77,-0.158 5.656,-0.234 0.269,-0.011 0.539,-0.03 0.808,-0.026 0.728,0.012 1.076,0.214 1.03,0.634 -0.068,0.626 -0.576,0.635 -1.04,0.66 -0.538,0.029 -1.079,0.069 -1.616,0.044 -1.581,-0.07 -3.155,0.06 -4.731,0.122 -0.831,0.032 -0.833,0.061 -0.824,0.871 0.024,2.008 0.3,3.995 0.603,5.969 0.608,3.961 1.595,7.833 3.028,11.585 1.128,2.95 2.445,5.809 4.038,8.538 0.076,0.13 0.117,0.28 0.175,0.421 0.093,0.071 0.125,0.18 0.165,0.283 0.465,-0.278 1.009,-0.589 1.105,-0.647 1.737,-1.065 3.475,-2.128 5.218,-3.181 0.387,-0.234 0.854,-0.59 1.192,-0.015 0.337,0.574 -0.215,0.817 -0.591,1.047 -1.705,1.045 -3.42,2.071 -5.134,3.1 -0.1,0.059 -0.669,0.374 -1.219,0.675 0.018,0.022 0.026,0.049 0.046,0.068 0.118,0.139 0.091,0.373 0.299,0.452 1.708,2.417 3.398,4.846 5.356,7.077 4.176,4.76 9.007,8.715 14.476,11.896 0.685,0.398 0.71,0.389 1.116,-0.325 1.028,-1.806 2.037,-3.623 3.064,-5.43 0.238,-0.418 0.412,-0.996 1.088,-0.775 0.414,0.135 0.399,0.6 -0.044,1.404 -0.984,1.787 -1.983,3.565 -2.968,5.351 -0.421,0.765 -0.423,0.793 0.363,1.195 2.917,1.494 5.943,2.717 9.068,3.713 4.122,1.313 8.347,2.096 12.647,2.476 1.646,0.146 3.303,0.166 4.955,0.214 0.719,0.021 0.779,-0.053 0.753,-0.801 -0.066,-1.963 -0.155,-3.925 -0.231,-5.887 -0.014,-0.345 -0.056,-0.692 0.053,-1.032 0.089,-0.276 0.231,-0.503 0.551,-0.501 0.306,0.002 0.513,0.211 0.585,0.476 0.08,0.292 0.09,0.607 0.097,0.913 0.05,1.923 0.08,3.848 0.139,5.771 0.03,0.995 0.051,1.008 1.081,0.948 7.579,-0.447 14.807,-2.28 21.643,-5.586 1.649,-0.797 3.225,-1.68 4.767,-2.603 -0.021,-0.032 -0.044,-0.061 -0.064,-0.094 -0.04,-0.066 -0.786,-1.298 -0.826,-1.363 -0.997,-1.633 -1.996,-3.265 -2.988,-4.901 -0.156,-0.259 -0.354,-0.512 -0.333,-0.84 0.024,-0.351 0.198,-0.569 0.562,-0.584 0.369,0.023 0.527,0.289 0.688,0.553 1.074,1.765 2.855,4.697 3.926,6.463 0.027,0.044 0.05,0.089 0.075,0.134 6.911,-4.328 12.722,-9.931 17.357,-16.879 0.641,-0.96 1.241,-1.948 1.836,-2.937 0.524,-0.871 0.514,-0.889 -0.341,-1.372 -1.576,-0.89 -3.16,-1.764 -4.735,-2.651 -0.301,-0.17 -0.599,-0.352 -0.867,-0.567 -0.234,-0.186 -0.287,-0.452 -0.119,-0.723 0.161,-0.262 0.399,-0.36 0.691,-0.248 0.214,0.083 0.423,0.186 0.624,0.298 1.578,0.883 3.152,1.775 4.733,2.653 1.234,0.685 1.026,0.818 1.715,-0.554 1.593,-3.17 2.88,-6.466 3.869,-9.873 1.423,-4.902 2.164,-9.914 2.269,-15.01 0.048,-2.345 0.212,-1.919 -1.849,-1.88 -1.615,0.03 -3.231,0.064 -4.847,0.093 -0.191,0.004 -0.387,0.01 -0.574,-0.025 -0.305,-0.058 -0.455,-0.276 -0.462,-0.577 -0.006,-0.317 0.171,-0.506 0.48,-0.543 0.305,-0.037 0.614,-0.051 0.921,-0.065 1.77,-0.074 3.54,-0.139 5.309,-0.221 0.941,-0.043 0.943,-0.056 0.905,-1.017 -0.175,-4.404 -0.944,-8.711 -2.172,-12.937 m 6.878,12.719 c 1.911,35.92 -25.774,64.093 -59.024,65.807 -34.973,1.877 -63.944,-25.062 -65.753,-58.962 -1.848,-34.655 24.471,-64.049 59.134,-65.817 35.278,-1.799 63.838,25.046 65.643,58.972"
             id="path13786"
             style="fill:#ffffff;fill-opacity:1;fill-rule:nonzero;stroke:none" /><path
             d="m 316.7832,434.3765 c -0.652,0.548 -1.386,0.959 -2.169,1.285 l 0,0.001 c -0.646,0.693 -1.524,1.027 -2.315,1.495 -0.748,0.61 -1.574,1.098 -2.431,1.539 l 0,0 0,0 -10e-4,-0.001 -0.01,-0.009 c -0.11,0.038 -0.163,0.143 -0.25,0.21 l -0.018,0.01 c -0.091,0.171 -0.239,0.248 -0.428,0.255 l -0.009,0.005 c -0.093,0.175 -0.245,0.25 -0.436,0.262 -0.094,0.179 -0.252,0.249 -0.443,0.264 -0.092,0.18 -0.253,0.246 -0.439,0.271 -0.033,0.12 -0.11,0.194 -0.235,0.218 l -10e-4,0 10e-4,0 c -0.09,0.185 -0.252,0.25 -0.442,0.267 -0.091,0.183 -0.255,0.246 -0.445,0.262 -0.09,0.186 -0.254,0.247 -0.445,0.262 -0.09,0.188 -0.256,0.247 -0.448,0.262 -0.035,0.119 -0.122,0.18 -0.239,0.206 l -10e-4,0.001 c -0.079,0.193 -0.235,0.268 -0.43,0.284 -0.089,0.189 -0.255,0.248 -0.448,0.262 -0.037,0.118 -0.122,0.178 -0.244,0.192 0.082,-0.067 0.164,-0.134 0.246,-0.201 l 0.001,-0.003 c -0.108,0.037 -0.168,0.132 -0.247,0.204 l -0.013,0.007 c -0.093,0.171 -0.245,0.246 -0.433,0.26 -1.117,0.952 -2.421,1.628 -3.644,2.421 -4.874,3.16 -9.779,6.272 -14.672,9.404 -0.745,0.477 -1.473,0.982 -2.231,1.437 -0.516,0.309 -0.569,0.67 -0.266,1.144 0.104,0.162 0.198,0.33 0.292,0.498 1.872,3.312 3.742,6.624 5.614,9.936 l 0,0.001 c 0.179,0.098 0.245,0.255 0.231,0.452 0.039,0.052 0.057,0.11 0.055,0.174 0.115,0.057 0.185,0.145 0.197,0.276 l -10e-4,0 10e-4,0 c 0.044,0.044 0.065,0.098 0.063,0.16 0.118,0.063 0.189,0.16 0.204,0.294 l 0.006,0.009 c 0.174,0.094 0.251,0.245 0.259,0.437 l 0.001,0.002 c 0.177,0.097 0.249,0.249 0.235,0.446 0.039,0.056 0.06,0.118 0.061,0.186 0.863,1.019 1.367,2.25 2.016,3.395 0.437,0.544 0.79,1.135 1.035,1.789 0.012,0 0.023,0.02 0.034,0.05 0.177,0.265 0.374,0.52 0.516,0.803 0.144,0.289 0.459,0.518 0.449,1.078 -0.58,-0.553 -0.849,-1.073 -1.021,-1.654 -0.564,-0.504 -0.9,-1.162 -1.231,-1.823 l 0,0 c -0.696,-1.103 -1.568,-2.097 -2.065,-3.325 l 0,0 0,0 0,0 0.004,-0.004 c -0.121,-0.038 -0.187,-0.121 -0.205,-0.246 0.069,0.082 0.137,0.164 0.206,0.245 l 0,0 c -0.047,-0.1 -0.148,-0.154 -0.206,-0.245 l -0.012,-0.015 c -0.193,-0.072 -0.264,-0.225 -0.28,-0.416 -0.178,-0.094 -0.248,-0.252 -0.263,-0.444 -0.109,-0.039 -0.173,-0.112 -0.176,-0.234 0.059,0.077 0.119,0.153 0.178,0.23 -0.06,-0.076 -0.119,-0.153 -0.178,-0.23 -0.048,-0.05 -0.073,-0.109 -0.076,-0.178 -0.113,-0.056 -0.183,-0.143 -0.194,-0.272 l 0,0 0,0 c -0.229,-0.307 -0.475,-0.602 -0.683,-0.923 -2.051,-3.158 -4.089,-6.323 -6.143,-9.479 -0.558,-0.857 -0.575,-0.844 -1.473,-0.259 -0.193,0.126 -0.392,0.244 -0.591,0.36 -0.83,0.483 -0.83,0.483 -1.321,-0.288 -0.793,-1.246 -0.794,-1.247 0.46,-1.941 0.134,-0.074 0.275,-0.137 0.409,-0.211 0.65,-0.359 0.665,-0.404 0.298,-1.046 -0.094,-0.167 -0.209,-0.322 -0.315,-0.482 -0.483,-0.725 -0.483,-0.724 0.3,-1.183 0.743,-0.435 0.743,-0.435 1.202,0.35 0.097,0.165 0.211,0.324 0.288,0.499 0.221,0.497 0.525,0.588 0.997,0.293 0.684,-0.426 1.393,-0.814 2.092,-1.217 4.161,-2.396 8.313,-4.805 12.485,-7.18 2.235,-1.272 4.41,-2.654 6.73,-3.775 0.111,-0.037 0.189,-0.119 0.273,-0.193 0.042,-0.049 0.095,-0.071 0.159,-0.066 0.064,-0.119 0.161,-0.19 0.298,-0.204 l 0.017,-0.01 c 0.092,-0.169 0.237,-0.251 0.427,-0.258 l 0.007,-0.004 c 0.156,-0.238 0.404,-0.269 0.655,-0.297 0.033,-0.118 0.114,-0.176 0.236,-0.183 -0.077,0.063 -0.154,0.124 -0.232,0.187 0.083,-0.056 0.16,-0.118 0.232,-0.186 0.042,-0.049 0.095,-0.07 0.158,-0.065 0.063,-0.118 0.158,-0.19 0.293,-0.203 0.037,-0.047 0.085,-0.065 0.144,-0.054 0.067,-0.122 0.167,-0.196 0.306,-0.215 l 0.006,-0.004 c 0.094,-0.176 0.249,-0.249 0.439,-0.262 0.099,-0.18 0.26,-0.237 0.453,-0.23 0.046,-0.044 0.099,-0.06 0.161,-0.05 0.062,-0.117 0.156,-0.188 0.289,-0.201 0.038,-0.048 0.087,-0.067 0.147,-0.057 0.067,-0.121 0.167,-0.193 0.306,-0.21 l 0.01,-0.006 c 0.093,-0.173 0.245,-0.25 0.435,-0.26 l 10e-4,0 0.001,-10e-4 c 0.095,-0.178 0.252,-0.25 0.445,-0.264 l -0.001,10e-4 c 0.881,-0.532 1.705,-1.16 2.672,-1.541 0.677,-0.418 1.354,-0.835 2.031,-1.252 0.928,-0.467 1.703,-1.211 2.718,-1.521 0.619,-0.529 1.299,-0.941 2.165,-1.013 -0.716,0.417 -1.433,0.835 -2.15,1.253 z"
             id="path13788"
             style="fill:#ffffff;fill-opacity:1;fill-rule:nonzero;stroke:none" /><path
             d="m 303.6826,441.7459 c 0.057,-0.112 0.144,-0.182 0.272,-0.193 -0.09,0.064 -0.181,0.128 -0.272,0.193"
             id="path13790"
             style="fill:#ffffff;fill-opacity:1;fill-rule:nonzero;stroke:none" /><path
             d="m 309.8573,438.6865 c -0.032,0.131 -0.12,0.195 -0.25,0.21 0.083,-0.07 0.167,-0.14 0.25,-0.21"
             id="path13792"
             style="fill:#ffffff;fill-opacity:1;fill-rule:nonzero;stroke:none" /></g></g></g></g></svg>