<?xml version="1.0" encoding="UTF-8" standalone="no"?>
<!-- Created with Inkscape (http://www.inkscape.org/) -->

<svg
   xmlns:dc="http://purl.org/dc/elements/1.1/"
   xmlns:cc="http://creativecommons.org/ns#"
   xmlns:rdf="http://www.w3.org/1999/02/22-rdf-syntax-ns#"
   xmlns:svg="http://www.w3.org/2000/svg"
   xmlns="http://www.w3.org/2000/svg"
   version="1.1"
   width="918.75"
   height="1065"
   id="svg3309"
   xml:space="preserve"><metadata
     id="metadata3315"><rdf:RDF><cc:Work
         rdf:about=""><dc:format>image/svg+xml</dc:format><dc:type
           rdf:resource="http://purl.org/dc/dcmitype/StillImage" /><dc:title></dc:title></cc:Work></rdf:RDF></metadata><defs
     id="defs3313"><clipPath
       id="clipPath3325"><path
         d="m 2.794,636.788 0,-422.155 366.714,-208.406 358.698,208.406 0,422.155 L 369.508,843.858 2.794,636.788 z"
         id="path3327" /></clipPath><radialGradient
       cx="0"
       cy="0"
       r="1"
       fx="0"
       fy="0"
       id="radialGradient3337"
       gradientUnits="userSpaceOnUse"
       gradientTransform="matrix(442.1289,0,0,-442.1289,378.442,219.6968)"
       spreadMethod="pad"><stop
         id="stop3339"
         style="stop-color:#77e8f9;stop-opacity:1"
         offset="0" /><stop
         id="stop3341"
         style="stop-color:#073fb7;stop-opacity:1"
         offset="1" /></radialGradient><clipPath
       id="clipPath3349"><path
         d="m 2.794,636.788 0,-422.155 366.714,-208.406 358.698,208.406 0,422.155 L 369.508,843.858 2.794,636.788 z"
         id="path3351" /></clipPath><clipPath
       id="clipPath3355"><path
         d="M 0,0 735,0 735,852 0,852 0,0 z"
         id="path3357" /></clipPath><clipPath
       id="clipPath3361"><path
         d="m 51,510 632,0 0,334 -632,0 0,-334 z"
         id="path3363" /></clipPath><clipPath
       id="clipPath3365"><path
         d="m 682.135,745.452 c 0,-129.583 -141.138,-234.635 -315.242,-234.635 -174.104,0 -315.245,105.052 -315.245,234.635 0,129.579 141.141,234.63 315.245,234.63 174.104,0 315.242,-105.051 315.242,-234.63"
         id="path3367" /></clipPath><clipPath
       id="clipPath3369"><path
         d="m 51.6479,510.817 630.4871,0 0,333.183 -630.4871,0 0,-333.183 z"
         id="path3371" /></clipPath><clipPath
       id="clipPath3373"><path
         d="m -32768,-32768 65535,0 0,65535 -65535,0 0,-65535 z"
         id="path3375" /></clipPath><linearGradient
       x1="0"
       y1="0"
       x2="1"
       y2="0"
       id="linearGradient3377"
       gradientUnits="userSpaceOnUse"
       gradientTransform="matrix(1.298455,-463.5253,-463.5253,-1.298455,366.252,973.6478)"
       spreadMethod="pad"><stop
         id="stop3379"
         style="stop-color:#ffffff;stop-opacity:0.83138782"
         offset="0" /><stop
         id="stop3381"
         style="stop-color:#ffffff;stop-opacity:0"
         offset="1" /></linearGradient><mask
       id="mask3383"><g
         id="g3385"><g
           clip-path="url(#clipPath3373)"
           id="g3387"><g
             id="g3389" /><g
             id="g3391"><g
               id="g3393"><path
                 d="m -32768,-32768 65535,0 0,65535 -65535,0 0,-65535 z"
                 id="path3395"
                 style="fill:url(#linearGradient3377);stroke:none" /></g></g></g></g></mask><linearGradient
       x1="0"
       y1="0"
       x2="1"
       y2="0"
       id="linearGradient3397"
       gradientUnits="userSpaceOnUse"
       gradientTransform="matrix(1.298455,-463.5253,-463.5253,-1.298455,366.252,973.6478)"
       spreadMethod="pad"><stop
         id="stop3399"
         style="stop-color:#ffffff;stop-opacity:1"
         offset="0" /><stop
         id="stop3401"
         style="stop-color:#ffffff;stop-opacity:1"
         offset="1" /></linearGradient><clipPath
       id="clipPath3427"><path
         d="M 0,0 735,0 735,852 0,852 0,0 z"
         id="path3429" /></clipPath><clipPath
       id="clipPath3437"><path
         d="M 0,852 735,852 735,0 0,0 0,852 z"
         id="path3439" /></clipPath><clipPath
       id="clipPath3443"><path
         d="M 0,0 735,0 735,852 0,852 0,0 z"
         id="path3445" /></clipPath></defs><g
     transform="matrix(1.25,0,0,-1.25,0,1065)"
     id="g3317"><g
       id="g3319" /><g
       id="g3321"><g
         clip-path="url(#clipPath3325)"
         id="g3323"><g
           id="g3329"><g
             id="g3335"><path
               d="M 0,0 735,0 735,852 0,852 0,0 z"
               id="path3343"
               style="fill:url(#radialGradient3337);stroke:none" /></g></g></g></g><g
       id="g3345"><g
         clip-path="url(#clipPath3349)"
         id="g3347"><g
           clip-path="url(#clipPath3355)"
           id="g3353"><g
             id="g3359" /><g
             id="g3403"><g
               clip-path="url(#clipPath3361)"
               id="g3405"
               style="opacity:0.25"><g
                 id="g3407" /><g
                 id="g3409"><g
                   clip-path="url(#clipPath3365)"
                   id="g3411"><g
                     clip-path="url(#clipPath3369)"
                     id="g3413"><g
                       id="g3415" /><g
                       mask="url(#mask3383)"
                       id="g3417"><g
                         id="g3419"><path
                           d="m 51.6479,510.817 630.4871,0 0,333.183 -630.4871,0 0,-333.183 z"
                           id="path3421"
                           style="fill:url(#linearGradient3397);stroke:none" /></g></g></g></g></g></g></g></g></g></g><g
       id="g3423"><g
         clip-path="url(#clipPath3427)"
         id="g3425"><path
           d="m 307.1862,815.4324 -277.817,-160.399 -29.283,-16.906 0,-424.254 29.283,-16.907 281.278,-162.396 56.851,-32.824 56.853,32.824 281.263,162.387 29.3,16.916 0,424.254 -29.3,16.916 -277.803,160.389 -60.313,34.821 -60.312,-34.821 z m -277.817,-585.646 0,390.431 338.121,195.215 10e-4,0 338.123,-195.215 0,-390.431 -338.124,-195.216 -338.121,195.216 z"
           id="path3431"
           style="fill:#ffffff;fill-opacity:1;fill-rule:nonzero;stroke:none" /></g></g><g
       id="g3433"><g
         clip-path="url(#clipPath3437)"
         id="g3435"><g
           clip-path="url(#clipPath3443)"
           id="g3441"><path
             d="m 182.3875,218.1005 c 0.287,0.285 0.605,0.588 0.933,0.888 l -0.255,0 c -0.225,-0.3 -0.451,-0.599 -0.678,-0.888"
             id="path3447"
             style="fill:#e6b35a;fill-opacity:1;fill-rule:nonzero;stroke:none" /><path
             d="m 299.3206,392.2339 c 5.554,-3.56 13.528,-6.266 22.072,-6.266 12.673,0 20.078,6.693 20.078,16.376 0,8.829 -5.126,14.098 -18.084,18.939 -15.664,5.696 -25.347,13.955 -25.347,27.34 0,14.952 12.389,26.059 31.043,26.059 9.682,0 16.944,-2.278 21.074,-4.699 l -3.418,-10.11 c -2.99,1.851 -9.397,4.557 -18.084,4.557 -13.101,0 -18.084,-7.833 -18.084,-14.383 0,-8.971 5.838,-13.385 19.081,-18.512 16.233,-6.265 24.35,-14.097 24.35,-28.194 0,-14.81 -10.822,-27.768 -33.464,-27.768 -9.255,0 -19.366,2.848 -24.492,6.265 l 3.275,10.396 z"
             id="path3449"
             style="fill:#ffffff;fill-opacity:1;fill-rule:nonzero;stroke:none" /><path
             d="m 385.3275,462.5781 0,-16.518 17.942,0 0,-9.541 -17.942,0 0,-37.166 c 0,-8.543 2.42,-13.385 9.398,-13.385 3.418,0 5.411,0.285 7.263,0.855 l 0.57,-9.541 c -2.422,-0.855 -6.266,-1.709 -11.108,-1.709 -5.838,0 -10.538,1.993 -13.527,5.269 -3.418,3.845 -4.842,9.968 -4.842,18.084 l 0,37.593 -10.68,0 0,9.541 10.68,0 0,12.815 12.246,3.703 z"
             id="path3451"
             style="fill:#ffffff;fill-opacity:1;fill-rule:nonzero;stroke:none" /><path
             d="m 475.0353,396.0785 c 0,-7.262 0.143,-13.528 0.57,-18.939 l -11.108,0 -0.711,11.25 -0.285,0 c -3.133,-5.554 -10.538,-12.816 -22.784,-12.816 -10.822,0 -23.78,6.123 -23.78,30.188 l 0,40.299 12.531,0 0,-38.021 c 0,-13.1 4.129,-22.071 15.379,-22.071 8.401,0 14.239,5.838 16.518,11.534 0.712,1.709 1.139,3.987 1.139,6.407 l 0,42.151 12.531,0 0,-49.982 z"
             id="path3453"
             style="fill:#ffffff;fill-opacity:1;fill-rule:nonzero;stroke:none" /><path
             d="m 542.8127,418.008 c 0,1.566 -0.141,3.702 -0.568,5.269 -1.852,7.831 -8.687,14.381 -18.086,14.381 -12.957,0 -20.646,-11.392 -20.646,-26.485 0,-13.955 6.976,-25.49 20.362,-25.49 8.4,0 16.091,5.697 18.37,14.952 0.427,1.709 0.568,3.418 0.568,5.411 l 0,11.962 z m 12.389,60.234 0,-83.303 c 0,-6.123 0.284,-13.101 0.57,-17.799 l -11.108,0 -0.57,11.961 -0.427,0 c -3.701,-7.69 -11.96,-13.528 -23.211,-13.528 -16.659,0 -29.618,14.098 -29.618,35.03 -0.142,22.926 14.24,36.881 30.901,36.881 10.679,0 17.657,-4.984 20.79,-10.395 l 0.284,0 0,41.153 12.389,0 z"
             id="path3455"
             style="fill:#ffffff;fill-opacity:1;fill-rule:nonzero;stroke:none" /><path
             d="m 576.13,446.06 12.532,0 0,-68.921 -12.532,0 0,68.921 z m 13.957,19.366 c 0,-4.272 -2.992,-7.69 -7.976,-7.69 -4.556,0 -7.546,3.418 -7.546,7.69 0,4.272 3.133,7.832 7.832,7.832 4.557,0 7.69,-3.418 7.69,-7.832"
             id="path3457"
             style="fill:#ffffff;fill-opacity:1;fill-rule:nonzero;stroke:none" /><path
             d="m 617.2822,411.4571 c 0,-15.094 8.544,-26.485 20.789,-26.485 11.962,0 20.933,11.248 20.933,26.77 0,11.677 -5.838,26.343 -20.647,26.343 -14.667,0 -21.075,-13.67 -21.075,-26.628 m 54.538,0.712 c 0,-25.489 -17.8,-36.596 -34.317,-36.596 -18.513,0 -33.037,13.67 -33.037,35.457 0,22.927 15.237,36.454 34.176,36.454 19.794,0 33.178,-14.383 33.178,-35.315"
             id="path3459"
             style="fill:#ffffff;fill-opacity:1;fill-rule:nonzero;stroke:none" /><path
             d="m 217.7021,380.788 -17.742,0 -29.357,44.034 -15.646,0 0,-35.002 15.324,0 0,-9.032 -38.551,0 0,9.032 13.226,0 0,77.585 -13.226,1.613 0,8.548 c 5,-1.129 9.356,-1.935 14.839,-1.935 8.226,0 16.614,1.935 24.841,1.936 15.968,0 30.808,-7.259 30.808,-25.002 0,-13.71 -8.226,-22.42 -20.97,-26.129 l 24.841,-36.616 11.613,0 0,-9.032 z m -48.23,150.276 c -59.137,0 -107.077,-47.94 -107.077,-107.077 0,-59.137 47.94,-107.078 107.077,-107.078 59.137,0 107.077,47.941 107.077,107.078 0,59.137 -47.94,107.077 -107.077,107.077"
             id="path3461"
             style="fill:#ffffff;fill-opacity:1;fill-rule:nonzero;stroke:none" /><path
             d="m 191.7328,451.4365 c 0,12.259 -8.871,17.097 -20.162,17.097 -5.323,0 -10.807,-0.483 -16.614,-1.128 l 0,-33.873 8.388,-0.162 c 20.484,-0.322 28.388,7.581 28.388,18.066"
             id="path3463"
             style="fill:#ffffff;fill-opacity:1;fill-rule:nonzero;stroke:none" /><path
             d="m 671.3254,465.1555 c 0,-3.576 -2.908,-6.484 -6.481,-6.484 -3.576,0 -6.484,2.908 -6.484,6.484 0,3.573 2.908,6.481 6.484,6.481 3.573,0 6.481,-2.908 6.481,-6.481 m -6.481,7.761 c -4.281,0 -7.764,-3.48 -7.764,-7.761 0,-4.281 3.483,-7.761 7.764,-7.761 4.281,0 7.761,3.48 7.761,7.761 0,4.281 -3.48,7.761 -7.761,7.761"
             id="path3465"
             style="fill:#ffffff;fill-opacity:1;fill-rule:nonzero;stroke:none" /><path
             d="m 666.1092,467.0212 c 0,-0.403 -0.156,-0.726 -0.459,-0.952 -0.361,-0.267 -0.92,-0.403 -1.667,-0.403 l -0.64,0.011 0,2.539 c 0.459,0.046 0.852,0.077 1.234,0.077 0.698,0 1.532,-0.223 1.532,-1.272 m 1.487,-5.045 -1.918,2.832 c 1.081,0.393 1.671,1.205 1.671,2.31 0,1.693 -1.438,2.294 -2.786,2.294 -0.362,0 -0.723,-0.042 -1.077,-0.084 -0.341,-0.038 -0.692,-0.08 -1.029,-0.08 -0.462,0 -0.827,0.073 -1.219,0.16 l -0.216,0.049 0,-1.102 1.119,-0.135 0,-6.244 -1.119,0 0,-1.122 3.621,0 0,1.122 -1.3,0 0,2.613 1.057,0 2.432,-3.655 0.055,-0.08 1.776,0 0,1.122 -1.067,0 z"
             id="path3467"
             style="fill:#ffffff;fill-opacity:1;fill-rule:nonzero;stroke:none" /><text
             transform="matrix(0.86418122,0.50318071,0.50318071,-0.86418122,369.275,42.1545)"
             id="text3469"><tspan
               x="0 18.699974 37.397446 54.822422 59.997417 68.172401 78.072388 86.347382 100.12236 114.22234 120.07233 133.19731 138.3723 149.42229 163.14728"
               y="0"
               id="tspan3471"
               style="font-size:24.99996567px;font-variant:normal;font-weight:normal;writing-mode:lr-tb;fill:#ffffff;fill-opacity:1;fill-rule:nonzero;stroke:none;font-family:Myriad Pro;-inkscape-font-specification:MyriadPro-Regular">www.rstudio.com</tspan></text>
</g></g></g></g></svg>