<?xml version="1.0" encoding="UTF-8" standalone="no"?>
<!-- Created with Inkscape (http://www.inkscape.org/) -->

<svg
   xmlns:dc="http://purl.org/dc/elements/1.1/"
   xmlns:cc="http://creativecommons.org/ns#"
   xmlns:rdf="http://www.w3.org/1999/02/22-rdf-syntax-ns#"
   xmlns:svg="http://www.w3.org/2000/svg"
   xmlns="http://www.w3.org/2000/svg"
   version="1.1"
   width="918.75"
   height="1065"
   id="svg3598"
   xml:space="preserve"><metadata
     id="metadata3604"><rdf:RDF><cc:Work
         rdf:about=""><dc:format>image/svg+xml</dc:format><dc:type
           rdf:resource="http://purl.org/dc/dcmitype/StillImage" /><dc:title></dc:title></cc:Work></rdf:RDF></metadata><defs
     id="defs3602"><clipPath
       id="clipPath3614"><path
         d="M 0,0 735,0 735,852 0,852 0,0 z"
         id="path3616" /></clipPath><clipPath
       id="clipPath3624"><path
         d="m 2.772,636.938 0,-422.155 366.714,-208.406 358.698,208.406 0,422.155 L 369.486,844.008 2.772,636.938 z"
         id="path3626" /></clipPath><clipPath
       id="clipPath3630"><path
         d="M 0,0 735,0 735,852 0,852 0,0 z"
         id="path3632" /></clipPath><clipPath
       id="clipPath3640"><path
         d="M 0,0 735,0 735,852 0,852 0,0 z"
         id="path3642" /></clipPath><clipPath
       id="clipPath3650"><path
         d="M 0,852 735,852 735,0 0,0 0,852 z"
         id="path3652" /></clipPath><clipPath
       id="clipPath3656"><path
         d="M 0,0 735,0 735,852 0,852 0,0 z"
         id="path3658" /></clipPath><clipPath
       id="clipPath3722"><path
         d="M 0,852 735,852 735,0 0,0 0,852 z"
         id="path3724" /></clipPath><clipPath
       id="clipPath3728"><path
         d="M 0,0 735,0 735,852 0,852 0,0 z"
         id="path3730" /></clipPath><clipPath
       id="clipPath3734"><path
         d="m 340,299 184,0 0,227 -184,0 0,-227 z"
         id="path3736" /></clipPath><clipPath
       id="clipPath3738"><path
         d="m 340.056,299.182 183.354,0 0,226.812 -183.354,0 0,-226.812 z"
         id="path3740" /></clipPath><clipPath
       id="clipPath3758"><path
         d="M 0,852 735,852 735,0 0,0 0,852 z"
         id="path3760" /></clipPath><clipPath
       id="clipPath3764"><path
         d="M 0,0 735,0 735,852 0,852 0,0 z"
         id="path3766" /></clipPath><clipPath
       id="clipPath3770"><path
         d="m 164,323 520,0 0,200 -520,0 0,-200 z"
         id="path3772" /></clipPath><clipPath
       id="clipPath3774"><path
         d="m 2.77176,320.523 732.1202,0 0,201.656 -732.1202,0 0,-201.656 z"
         id="path3776" /></clipPath></defs><g
     transform="matrix(1.25,0,0,-1.25,0,1065)"
     id="g3606"><g
       id="g3608" /><g
       id="g3610"><g
         clip-path="url(#clipPath3614)"
         id="g3612"><path
           d="m 369.4857,844.0081 358.698,-207.07 0,-422.155 -358.698,-208.406 -366.714,208.406 0,422.155 366.714,207.07 z"
           id="path3618"
           style="fill:#ba6f38;fill-opacity:1;fill-rule:nonzero;stroke:none" /></g></g><g
       id="g3620"><g
         clip-path="url(#clipPath3624)"
         id="g3622"><g
           clip-path="url(#clipPath3630)"
           id="g3628"><path
             d="m 807.6071,413.9557 c 0,-244.182 -197.947,-442.132 -442.129,-442.132 -244.182,0 -442.129,197.95 -442.129,442.132 0,244.182 197.947,442.129 442.129,442.129 244.182,0 442.129,-197.947 442.129,-442.129"
             id="path3634"
             style="fill:#164f86;fill-opacity:1;fill-rule:nonzero;stroke:none" /></g></g></g><g
       id="g3636"><g
         clip-path="url(#clipPath3640)"
         id="g3638"><path
           d="m 307.1637,815.5827 -277.816,-160.399 -29.284,-16.906 0,-424.254 29.284,-16.907 281.277,-162.396 56.852,-32.824 56.853,32.824 281.262,162.386 29.301,16.917 0,424.254 -29.301,16.916 -277.803,160.389 -60.312,34.821 -60.313,-34.821 z m -277.816,-585.646 0,390.431 338.12,195.215 0.001,0 338.123,-195.215 0,-390.431 -338.123,-195.216 -338.121,195.216 z"
           id="path3644"
           style="fill:#14275b;fill-opacity:1;fill-rule:nonzero;stroke:none" /></g></g><g
       id="g3646"><g
         clip-path="url(#clipPath3650)"
         id="g3648"><g
           clip-path="url(#clipPath3656)"
           id="g3654"><path
             d="m 367.0116,214.0973 c 0.287,0.285 0.605,0.588 0.933,0.888 l -0.255,0 c -0.225,-0.3 -0.451,-0.599 -0.678,-0.888"
             id="path3660"
             style="fill:#e6b35a;fill-opacity:1;fill-rule:nonzero;stroke:none" /><path
             d="m 298.1466,589.8323 c 0,27.603 0.01,55.206 -0.013,82.809 -0.003,3.055 0.789,5.761 2.9,8.015 1.49,1.59 3.319,2.505 5.484,2.855 2.024,0.327 4.052,0.292 6.084,0.293 23.796,0.002 47.591,10e-4 71.387,10e-4 0.408,0 0.816,0.003 1.224,0 2.007,-0.017 2.024,-0.017 2.025,-2.021 0.005,-12.17 0.152,-24.342 -0.054,-36.508 -0.122,-7.265 6.205,-13.336 13.334,-13.331 10.13,0.009 20.261,0.003 30.391,0.002 1.563,0 3.128,-0.027 4.691,0.009 0.846,0.02 1.285,-0.26 1.218,-1.164 -0.035,-0.473 -0.003,-0.952 -0.003,-1.428 0,-40.656 -0.002,-81.313 0.006,-121.969 0,-1.92 -0.209,-3.793 -0.991,-5.56 -1.713,-3.872 -4.822,-5.708 -8.931,-6.05 -0.338,-0.028 -0.68,-0.005 -1.02,-0.005 -38.957,0 -77.913,0.002 -116.87,-0.005 -2.002,-0.001 -3.916,0.32 -5.674,1.315 -3.382,1.914 -4.884,4.96 -5.179,8.71 -0.048,0.608 -0.009,1.223 -0.009,1.835 0,27.399 0,54.798 0,82.197"
             id="path3662"
             style="fill:#ffffff;fill-opacity:1;fill-rule:nonzero;stroke:none" /><path
             d="m 394.2982,683.4216 c 13.978,-14.698 28.223,-29.223 42.012,-44.17 -0.235,-0.699 -0.801,-0.447 -1.212,-0.448 -11.279,-0.015 -22.557,-0.016 -33.835,-0.007 -1.016,10e-4 -2.021,0.098 -3.006,0.42 -2.865,0.936 -4.478,3.049 -4.482,6.06 -0.013,11.551 -0.005,23.101 -0.005,34.651 0,0.815 -0.007,1.631 0.004,2.446 0.005,0.325 -0.07,0.688 0.524,1.048"
             id="path3664"
             style="fill:#ffffff;fill-opacity:1;fill-rule:nonzero;stroke:none" /><path
             d="m 367.6018,560.2097 c 15.229,0 30.457,0 45.686,-10e-4 0.68,0 1.36,-0.017 2.039,-0.012 1.419,0.009 2.352,-0.761 2.731,-2.02 0.655,-2.177 0.682,-4.422 0.11,-6.627 -0.406,-1.564 -1.47,-2.314 -3.13,-2.397 -0.542,-0.028 -1.087,-0.008 -1.631,-0.008 -30.661,0 -61.323,0.038 -91.984,-0.046 -4.057,-0.011 -5.049,1.547 -4.951,4.921 0.024,0.816 -0.039,1.635 0.016,2.447 0.181,2.666 1.321,3.738 4,3.739 15.229,0.008 30.458,0.004 45.686,0.004 0.476,0 0.952,0 1.428,0"
             id="path3666"
             style="fill:#14275b;fill-opacity:1;fill-rule:nonzero;stroke:none" /><path
             d="m 415.2654,534.4633 c 1.84,-0.222 2.603,-0.849 2.941,-2.459 0.422,-2.011 0.479,-4.032 -0.037,-6.031 -0.41,-1.591 -1.414,-2.355 -3.074,-2.455 -0.338,-0.02 -0.679,-0.004 -1.019,-0.004 -31.052,0 -62.104,0 -93.156,0 -0.476,0 -0.956,-0.036 -1.426,0.017 -1.427,0.16 -2.608,1.137 -2.83,2.523 -0.313,1.948 -0.374,3.93 -0.014,5.876 0.321,1.728 1.196,2.362 3.127,2.543 0.636,-0.363 1.331,-0.192 1.997,-0.193 30.497,-0.009 60.993,-0.009 91.49,0 0.667,0 1.361,-0.161 2.001,0.183"
             id="path3668"
             style="fill:#14275b;fill-opacity:1;fill-rule:nonzero;stroke:none" /><path
             d="m 319.3873,574.9214 c -1.67,0.003 -2.439,1.085 -2.716,2.502 -0.364,1.872 -0.367,3.795 -0.031,5.671 0.319,1.775 1.463,2.659 3.275,2.769 0.542,0.033 1.087,0.009 1.63,0.009 30.638,10e-4 61.276,10e-4 91.914,0 0.34,0 0.679,0.006 1.019,0 2.399,-0.044 3.576,-0.922 3.901,-3.258 0.251,-1.803 0.311,-3.654 -0.21,-5.449 -0.457,-1.574 -1.112,-2.065 -2.912,-2.256 -0.645,0.323 -1.336,0.172 -2.004,0.172 -30.619,0.008 -61.238,0.008 -91.857,10e-4 -0.67,-10e-4 -1.36,0.14 -2.009,-0.161"
             id="path3670"
             style="fill:#14275b;fill-opacity:1;fill-rule:nonzero;stroke:none" /><path
             d="m 349.1794,600.3553 c -8.97,0 -17.94,0 -26.909,0 -0.476,0 -0.952,-0.006 -1.427,0.002 -3.273,0.051 -4.346,1.14 -4.363,4.47 -0.006,1.153 -0.053,2.32 0.092,3.458 0.272,2.144 1.38,3.089 3.524,3.184 0.407,0.018 0.815,0.004 1.223,0.004 18.483,0 36.966,0 55.449,0 0.408,0 0.817,0.015 1.223,-0.004 2.257,-0.111 3.351,-1.186 3.414,-3.432 0.042,-1.493 0.055,-2.992 -0.015,-4.483 -0.087,-1.869 -1.198,-2.986 -3.061,-3.167 -0.606,-0.058 -1.222,-0.031 -1.833,-0.031 -9.106,-10e-4 -18.211,-10e-4 -27.317,-10e-4"
             id="path3672"
             style="fill:#14275b;fill-opacity:1;fill-rule:nonzero;stroke:none" /><path
             d="m 378.9646,636.8951 c 1.622,-0.236 2.313,-1.36 2.409,-2.816 0.111,-1.689 0.09,-3.396 10e-4,-5.089 -0.086,-1.628 -1.205,-2.741 -2.831,-2.958 -0.602,-0.08 -1.22,-0.043 -1.831,-0.043 -18.468,-10e-4 -36.937,-0.002 -55.405,-10e-4 -3.814,10e-4 -4.824,0.998 -4.826,4.809 0,1.286 -0.147,2.587 0.208,3.851 0.329,1.17 0.894,2.121 2.275,2.226 0.574,-0.317 1.198,-0.179 1.799,-0.179 18.804,-0.008 37.608,-0.008 56.412,10e-4 0.598,0 1.226,-0.157 1.789,0.199"
             id="path3674"
             style="fill:#14275b;fill-opacity:1;fill-rule:nonzero;stroke:none" /><path
             d="m 319.3873,574.9214 c 0.559,0.576 1.28,0.356 1.934,0.356 30.669,0.01 61.339,0.01 92.008,0 0.654,0 1.376,0.222 1.928,-0.368 -0.677,-0.03 -1.355,-0.085 -2.032,-0.086 -30.603,-0.004 -61.205,-0.004 -91.807,10e-4 -0.677,0 -1.354,0.063 -2.031,0.097"
             id="path3676"
             style="fill:#ba3224;fill-opacity:1;fill-rule:nonzero;stroke:none" /><path
             d="m 415.2654,534.4633 c -0.545,-0.6 -1.267,-0.379 -1.92,-0.38 -30.551,-0.01 -61.102,-0.01 -91.652,0 -0.653,0 -1.376,-0.219 -1.916,0.39 0.743,0.037 1.486,0.105 2.229,0.105 30.344,0.005 60.688,0.005 91.032,0 0.743,0 1.485,-0.075 2.227,-0.115"
             id="path3678"
             style="fill:#b13728;fill-opacity:1;fill-rule:nonzero;stroke:none" /><path
             d="m 378.9646,636.8951 c -0.537,-0.61 -1.26,-0.395 -1.912,-0.396 -18.722,-0.01 -37.444,-0.01 -56.166,10e-4 -0.652,0 -1.373,-0.216 -1.921,0.374 0.718,0.293 1.473,0.184 2.213,0.185 18.523,0.006 37.046,0.006 55.568,0 0.741,-10e-4 1.495,0.108 2.218,-0.164"
             id="path3680"
             style="fill:#aa3729;fill-opacity:1;fill-rule:nonzero;stroke:none" /><path
             d="m 268.1932,226.9139 c 1.742,-0.016 3.483,-0.045 5.225,-0.046 12.976,-0.004 25.952,-0.003 38.928,0 0.72,0.001 1.439,0.037 2.159,0.057 0.853,-0.231 0.828,-0.927 0.829,-1.594 0.013,-8.237 -0.005,-16.474 0.017,-24.711 0.004,-1.394 -0.614,-1.959 -1.953,-1.953 -1.443,0.006 -2.886,-0.006 -4.329,-0.006 -12.807,-0.001 -25.613,-0.005 -38.419,0.003 -2.924,10e-4 -3.106,0.178 -3.109,3.027 -0.009,7.575 -0.013,15.151 0.009,22.727 0.003,0.866 -0.246,1.84 0.643,2.496"
             id="path3682"
             style="fill:#ffffff;fill-opacity:1;fill-rule:nonzero;stroke:none" /><path
             d="m 392.5756,167.3353 c -7.033,0 -14.066,0 -21.099,0 -0.421,0 -0.842,0.009 -1.263,-0.002 -0.725,-0.018 -1.153,0.259 -1.095,1.052 0.009,0.119 0.002,0.24 0.002,0.36 0,8.296 -0.005,16.591 0.006,24.887 0.002,1.37 0.089,1.43 1.409,1.479 0.36,0.013 0.721,0.002 1.082,0.002 13.946,0 27.892,0 41.838,-0.001 0.18,0 0.361,0.001 0.541,0 1.992,-0.011 2,-0.011 2.001,-1.984 0.003,-7.995 0.004,-15.99 -10e-4,-23.985 -10e-4,-1.789 -0.012,-1.804 -1.781,-1.806 -7.213,-0.006 -14.427,-0.002 -21.64,-0.002"
             id="path3684"
             style="fill:#ffffff;fill-opacity:1;fill-rule:nonzero;stroke:none" /><path
             d="m 392.4247,199.0897 c -7.033,0 -14.065,0 -21.098,0 -0.421,0 -0.842,-0.002 -1.263,0.003 -0.675,0.008 -0.971,0.363 -0.937,1.028 0.015,0.299 10e-4,0.601 10e-4,0.901 0,7.934 0,15.869 0,23.803 0,0.241 0.021,0.483 -0.002,0.721 -0.086,0.9 0.267,1.378 1.218,1.323 0.3,-0.018 0.601,-0.003 0.902,-0.003 14.185,0 28.371,0 42.557,0 0.421,0 0.841,0 1.262,-0.016 0.666,-0.024 0.968,-0.386 0.945,-1.044 -0.01,-0.301 -0.002,-0.601 -0.002,-0.902 0,-7.874 0.008,-15.749 -0.005,-23.623 -0.003,-1.948 0.492,-2.205 -2.119,-2.198 -7.153,0.02 -14.306,0.007 -21.459,0.007"
             id="path3686"
             style="fill:#ffffff;fill-opacity:1;fill-rule:nonzero;stroke:none" /><path
             d="m 268.4789,258.7063 c 0.477,-0.029 0.955,-0.085 1.432,-0.085 14.27,-0.004 28.541,-0.004 42.811,0 0.477,0 0.954,0.054 1.431,0.083 0.857,-0.138 1.18,-0.639 1.179,-1.504 -0.006,-8.352 0.002,-16.704 -0.008,-25.056 -10e-4,-1.121 -0.547,-1.652 -1.641,-1.689 -0.541,-0.017 -1.081,-0.023 -1.622,-0.023 -13.7,-0.001 -27.4,-0.001 -41.1,0 -0.601,0 -1.202,-0.001 -1.802,0.039 -0.997,0.067 -1.536,0.582 -1.597,1.587 -0.022,0.36 -0.034,0.72 -0.034,1.081 -0.004,7.691 -0.013,15.383 0.012,23.074 0.003,0.918 -0.243,1.992 0.939,2.493"
             id="path3688"
             style="fill:#ffffff;fill-opacity:1;fill-rule:nonzero;stroke:none" /><path
             d="m 370.3127,258.7044 c 0.477,-0.029 0.954,-0.083 1.432,-0.083 14.146,-0.004 28.292,-0.004 42.437,0 0.478,0 0.955,0.054 1.432,0.083 0.854,-0.139 1.182,-0.634 1.181,-1.502 -0.006,-8.353 -0.013,-16.707 0.004,-25.06 0.003,-1.318 -0.719,-1.393 -1.736,-1.389 -6.671,0.025 -13.342,0.013 -20.013,0.013 -7.993,0 -15.986,0.037 -23.979,-0.033 -1.513,-0.013 -1.967,0.46 -1.957,1.939 0.051,7.993 0.021,15.986 0.027,23.979 0.001,0.9 -0.122,1.885 1.172,2.053"
             id="path3690"
             style="fill:#ffffff;fill-opacity:1;fill-rule:nonzero;stroke:none" /><path
             d="m 443.6574,195.1128 c 7.035,0 14.07,0 21.106,-0.001 0.42,0 0.842,0.005 1.261,-0.018 0.493,-0.027 0.763,-0.305 0.794,-0.799 0.015,-0.24 0.012,-0.481 0.012,-0.721 0,-7.997 0.012,-15.994 -0.009,-23.992 -0.006,-2.245 -0.052,-2.246 -2.251,-2.246 -14.071,0 -28.141,0 -42.211,0 -0.121,0 -0.241,-0.001 -0.361,0 -1.974,0.008 -1.979,0.008 -1.98,1.972 -0.002,7.937 0,15.874 0,23.811 0,0.361 -0.003,0.721 0.004,1.082 0.012,0.59 0.345,0.87 0.907,0.894 0.48,0.02 0.961,0.017 1.442,0.017 7.095,0.001 14.191,0.001 21.286,0.001"
             id="path3692"
             style="fill:#ffffff;fill-opacity:1;fill-rule:nonzero;stroke:none" /><path
             d="m 420.8797,226.9264 c 0.419,-0.02 0.839,-0.057 1.258,-0.057 14.482,-0.003 28.964,-0.003 43.446,0 0.419,0 0.839,0.035 1.259,0.055 0.61,-0.151 0.603,-0.563 0.59,-1.106 -0.206,-8.296 -0.054,-16.594 -0.092,-24.89 -0.009,-2.036 -0.152,-2.243 -2.248,-2.255 -6.014,-0.032 -12.027,-0.011 -18.041,-0.012 -8.058,-10e-4 -16.116,-0.007 -24.174,0.004 -2.721,0.004 -2.833,0.127 -2.834,2.854 -0.002,7.758 -0.01,15.515 0.013,23.272 0.002,0.783 -0.314,1.76 0.823,2.135"
             id="path3694"
             style="fill:#ffffff;fill-opacity:1;fill-rule:nonzero;stroke:none" /><path
             d="m 421.2016,258.7032 c 0.477,-0.028 0.954,-0.082 1.432,-0.082 14.146,-0.004 28.292,-0.004 42.438,0 0.477,0 0.954,0.055 1.432,0.084 0.809,-0.246 0.831,-0.858 0.829,-1.575 -0.031,-8.298 -0.047,-16.596 0.013,-24.893 0.01,-1.282 -0.497,-1.749 -1.659,-1.783 -0.541,-0.016 -1.082,-0.021 -1.623,-0.021 -13.589,-0.001 -27.178,-0.001 -40.767,0 -0.541,0 -1.082,0.004 -1.623,0.023 -1.083,0.039 -1.65,0.533 -1.65,1.676 -0.004,8.358 0.001,16.716 -0.006,25.074 -0.001,0.869 0.329,1.362 1.184,1.497"
             id="path3696"
             style="fill:#ffffff;fill-opacity:1;fill-rule:nonzero;stroke:none" /><path
             d="m 319.4019,258.7067 c 0.477,-0.03 0.954,-0.085 1.432,-0.085 14.147,-0.005 28.295,-0.005 42.442,0 0.477,0 0.955,0.054 1.432,0.082 1.324,-0.191 1.314,-1.201 1.319,-2.18 0.021,-3.664 0.008,-7.329 0.008,-10.993 0.001,-4.204 0.023,-8.409 -0.01,-12.614 -0.017,-2.049 -0.14,-2.149 -2.14,-2.149 -14.477,-0.003 -28.953,0.019 -43.429,-0.033 -1.43,-0.005 -1.888,0.423 -1.881,1.826 0.039,8.109 0.014,16.218 0.025,24.327 0.001,0.712 -0.086,1.487 0.802,1.819"
             id="path3698"
             style="fill:#ffffff;fill-opacity:1;fill-rule:nonzero;stroke:none" /><path
             d="m 268.0807,290.5051 c 0.112,-0.011 0.225,-0.013 0.338,-0.007 14.242,0.028 28.484,0.011 42.726,0.007 3.668,-0.001 3.668,-0.025 3.668,-3.633 0,-7.391 0,-14.783 0,-22.174 -0.001,-2.158 -0.002,-2.161 -2.09,-2.161 -14.122,0 -28.244,0.003 -42.365,-0.008 -0.649,-0.001 -1.324,0.166 -1.947,-0.172 l -0.164,0.007 -0.164,-0.006 c -0.691,0.349 -0.551,0.996 -0.551,1.579 -0.004,8.329 -0.004,16.658 0,24.987 0,0.583 -0.139,1.23 0.549,1.581"
             id="path3700"
             style="fill:#14275b;fill-opacity:1;fill-rule:nonzero;stroke:none" /><path
             d="m 392.5001,262.695 c -7.036,0 -14.071,0 -21.107,0 -0.421,0 -0.842,0.01 -1.263,0.003 -0.653,-0.01 -1.021,0.266 -1.01,0.957 0.006,0.361 -0.006,0.722 -0.006,1.082 -0.001,7.818 -0.001,15.635 0,23.452 0,0.361 0.012,0.722 0.011,1.082 -10e-4,0.598 0.309,0.876 0.89,0.883 0.421,0.006 0.842,0.012 1.262,0.012 14.192,10e-4 28.383,0.002 42.575,0 2.183,0 2.187,-0.004 2.187,-2.131 0.002,-7.758 10e-4,-15.515 0,-23.272 0,-0.421 -0.003,-0.842 -0.018,-1.262 -0.019,-0.502 -0.292,-0.768 -0.791,-0.784 -0.481,-0.016 -0.962,-0.021 -1.443,-0.021 -7.096,-0.001 -14.191,-0.001 -21.287,-0.001"
             id="path3702"
             style="fill:#14275b;fill-opacity:1;fill-rule:nonzero;stroke:none" /><path
             d="m 341.6956,290.167 c 7.038,0 14.077,0 21.115,0 0.421,0 0.843,-0.017 1.263,-10e-4 0.741,0.027 1.137,-0.278 1.096,-1.058 -0.015,-0.3 10e-4,-0.602 10e-4,-0.902 0,-7.821 0,-15.641 0,-23.462 0,-0.361 -0.012,-0.722 -0.005,-1.082 0.012,-0.687 -0.347,-0.974 -1.003,-0.963 -0.361,0.006 -0.722,-0.004 -1.083,-0.004 -14.137,0 -28.274,0 -42.411,0 -0.24,0 -0.481,-0.008 -0.722,0.002 -1.28,0.052 -1.331,0.077 -1.356,1.327 -0.03,1.504 -0.008,3.008 -0.008,4.512 -0.001,6.437 -0.001,12.874 0,19.31 0,0.482 0.011,0.963 0.012,1.444 10e-4,0.604 0.327,0.864 0.903,0.866 0.482,0.003 0.963,0.011 1.444,0.011 6.918,0 13.836,0 20.754,0"
             id="path3704"
             style="fill:#14275b;fill-opacity:1;fill-rule:nonzero;stroke:none" /><path
             d="m 466.8312,289.8913 c -0.299,-1.077 -0.231,-2.156 -0.223,-3.23 0.052,-7.694 -0.127,-15.39 0.103,-23.083 0.017,-0.547 -0.195,-0.799 -0.674,-0.849 -0.476,-0.049 -0.96,-0.033 -1.441,-0.033 -14.131,-0.002 -28.263,10e-4 -42.394,-0.003 -2.328,-0.001 -2.183,-0.062 -2.183,2.141 10e-4,7.757 10e-4,15.514 0.002,23.271 0,0.421 0.003,0.842 0.02,1.262 0.02,0.503 0.298,0.761 0.796,0.779 0.361,0.013 0.721,0.02 1.082,0.02 14.432,0.001 28.864,0.002 43.296,-0.004 0.47,0 0.961,0.102 1.616,-0.271"
             id="path3706"
             style="fill:#14275b;fill-opacity:1;fill-rule:nonzero;stroke:none" /><path
             d="m 341.7517,167.3407 c -6.916,0 -13.832,0 -20.747,0 -0.361,0 -0.722,-0.009 -1.083,0.003 -1.293,0.043 -1.326,0.046 -1.335,1.317 -0.021,3.127 -0.009,6.254 -0.009,9.381 0,5.172 -0.004,10.344 0.006,15.516 0.003,1.517 0.021,1.545 1.466,1.545 14.493,0.008 28.986,0.009 43.479,0.002 1.704,-0.001 1.744,-0.047 1.746,-1.695 0.007,-8.119 0.007,-16.237 10e-4,-24.356 -10e-4,-1.687 -0.016,-1.708 -1.694,-1.71 -7.277,-0.008 -14.553,-0.003 -21.83,-0.003"
             id="path3708"
             style="fill:#ffffff;fill-opacity:1;fill-rule:nonzero;stroke:none" /><path
             d="m 341.941,199.0991 c -7.033,0 -14.065,0 -21.098,0 -0.42,0 -0.841,0.012 -1.262,0 -0.652,-0.019 -1.031,0.232 -1.001,0.939 0.012,0.3 -0.002,0.601 -0.002,0.901 0,7.995 0,15.989 0,23.983 0,0.301 0.008,0.602 -0.002,0.902 -0.022,0.657 0.265,1.02 0.945,1.025 0.421,0.003 0.842,0.009 1.262,0.009 14.066,0.001 28.131,0.001 42.196,0.001 0.24,0 0.481,0.007 0.721,-0.001 1.482,-0.046 1.56,-0.095 1.562,-1.516 0.01,-8.234 0.01,-16.469 10e-4,-24.704 -10e-4,-1.511 -0.027,-1.533 -1.683,-1.535 -7.213,-0.009 -14.426,-0.004 -21.639,-0.004"
             id="path3710"
             style="fill:#ffffff;fill-opacity:1;fill-rule:nonzero;stroke:none" /><path
             d="m 267.6316,195.1232 c 14.79,-0.006 29.58,-0.015 44.37,-0.014 2.802,0 2.408,0.025 2.411,-2.448 0.01,-7.696 0.004,-15.392 0.003,-23.087 0,-0.421 -0.017,-0.843 0.003,-1.263 0.034,-0.701 -0.319,-0.979 -0.981,-0.965 -0.361,0.008 -0.721,-0.001 -1.082,-0.001 -14.249,0 -28.498,0 -42.747,0 -0.12,0 -0.24,-0.001 -0.361,0 -1.703,0.015 -1.715,0.015 -1.721,1.651 -0.011,2.585 -0.004,5.17 -0.004,7.755 0,5.471 -0.003,10.943 0.006,16.414 0.001,0.657 0.076,1.315 0.116,1.972 l -0.013,-0.014 z"
             id="path3712"
             style="fill:#ffffff;fill-opacity:1;fill-rule:nonzero;stroke:none" /><path
             d="m 397.0387,348.6022 c -1.372,-1.209 -2.13,-2.812 -2.13,-4.512 l 0,-44.908 -54.853,0 0,44.908 c 0,1.7 -0.757,3.303 -2.132,4.514 l -126.377,177.39 311.863,0 -126.371,-177.392 z"
             id="path3714"
             style="fill:#221819;fill-opacity:1;fill-rule:nonzero;stroke:none" /><path
             d="m 337.9233,348.6046 c 1.375,-1.211 2.133,-2.815 2.133,-4.515 l 0,-44.907 54.852,0 0,44.907 c 0,1.7 0.758,3.304 2.13,4.513 l 126.371,177.391 -311.863,0 126.377,-177.389 z"
             id="path3716"
             style="fill:#14275b;fill-opacity:1;fill-rule:nonzero;stroke:none" /></g></g></g><g
       id="g3718"><g
         clip-path="url(#clipPath3722)"
         id="g3720"><g
           clip-path="url(#clipPath3728)"
           id="g3726"><g
             id="g3732" /><g
             id="g3742"><g
               clip-path="url(#clipPath3734)"
               id="g3744"
               style="opacity:0.1"><g
                 id="g3746" /><g
                 id="g3748"><g
                   clip-path="url(#clipPath3738)"
                   id="g3750"><path
                     d="m 499.6216,525.9941 -126.371,-177.392 c -1.372,-1.209 -2.13,-2.812 -2.13,-4.512 l 0,-7.179 -31.065,-15.96 0,-21.769 54.853,0 0,44.908 c 0,1.7 0.758,3.303 2.13,4.512 l 126.371,177.392 -23.788,0 z"
                     id="path3752"
                     style="fill:#1a171b;fill-opacity:1;fill-rule:nonzero;stroke:none" /></g></g></g></g></g></g></g><g
       id="g3754"><g
         clip-path="url(#clipPath3758)"
         id="g3756"><g
           clip-path="url(#clipPath3764)"
           id="g3762"><g
             id="g3768" /><g
             id="g3778"><g
               clip-path="url(#clipPath3770)"
               id="g3780"
               style="opacity:0.93999999"><g
                 id="g3782" /><g
                 id="g3784"><g
                   clip-path="url(#clipPath3774)"
                   id="g3786"><text
                     transform="matrix(0.94339618,0,0,-1,196.5176,373.3877)"
                     id="text3788"><tspan
                       x="0"
                       y="0"
                       id="tspan3790"
                       style="font-size:177.76539612px;font-variant:normal;font-weight:normal;writing-mode:lr-tb;fill:#ffffff;fill-opacity:1;fill-rule:nonzero;stroke:none;font-family:Myriad Pro;-inkscape-font-specification:MyriadPro-Regular">r</tspan></text>
<text
                     transform="matrix(0.94339618,0,0,-1,246.3255,373.3877)"
                     id="text3792"><tspan
                       x="0 83.371971 163.36641 257.93759"
                       y="0"
                       id="tspan3794"
                       style="font-size:177.76539612px;font-variant:normal;font-weight:normal;writing-mode:lr-tb;fill:#ffffff;fill-opacity:1;fill-rule:nonzero;stroke:none;font-family:Myriad Pro;-inkscape-font-specification:MyriadPro-Regular">eadr</tspan></text>
</g></g></g></g><text
             transform="matrix(0.86418122,0.50318071,0.50318071,-0.86418122,369.2614,42.3044)"
             id="text3796"><tspan
               x="0 18.699974 37.397446 54.822422 59.997417 68.172401 78.072388 86.347382 100.12236 114.22234 120.07233 133.19731 138.3723 149.42229 163.14728"
               y="0"
               id="tspan3798"
               style="font-size:24.99996567px;font-variant:normal;font-weight:normal;writing-mode:lr-tb;fill:#ffffff;fill-opacity:1;fill-rule:nonzero;stroke:none;font-family:Myriad Pro;-inkscape-font-specification:MyriadPro-Regular">www.rstudio.com</tspan></text>
</g></g></g></g></svg>