<?xml version="1.0" encoding="UTF-8" standalone="no"?>
<!-- Created with Inkscape (http://www.inkscape.org/) -->

<svg
   xmlns:dc="http://purl.org/dc/elements/1.1/"
   xmlns:cc="http://creativecommons.org/ns#"
   xmlns:rdf="http://www.w3.org/1999/02/22-rdf-syntax-ns#"
   xmlns:svg="http://www.w3.org/2000/svg"
   xmlns="http://www.w3.org/2000/svg"
   version="1.1"
   width="918.75"
   height="1065"
   id="svg12430"
   xml:space="preserve"><metadata
     id="metadata12436"><rdf:RDF><cc:Work
         rdf:about=""><dc:format>image/svg+xml</dc:format><dc:type
           rdf:resource="http://purl.org/dc/dcmitype/StillImage" /><dc:title></dc:title></cc:Work></rdf:RDF></metadata><defs
     id="defs12434"><clipPath
       id="clipPath12446"><path
         d="m 2.794,637.535 0,-422.156 366.714,-208.405 358.698,208.405 0,422.156 L 369.508,844.604 2.794,637.535 z"
         id="path12448" /></clipPath><clipPath
       id="clipPath12452"><path
         d="M 0,0 735,0 735,852 0,852 0,0 z"
         id="path12454" /></clipPath><clipPath
       id="clipPath12462"><path
         d="m 2.794,637.535 0,-422.156 366.714,-208.405 358.698,208.405 0,422.156 L 369.508,844.604 2.794,637.535 z"
         id="path12464" /></clipPath><clipPath
       id="clipPath12468"><path
         d="M 0,0 735,0 735,852 0,852 0,0 z"
         id="path12470" /></clipPath><clipPath
       id="clipPath12474"><path
         d="m 51,511 632,0 0,334 -632,0 0,-334 z"
         id="path12476" /></clipPath><clipPath
       id="clipPath12478"><path
         d="m 682.134,746.198 c 0,-129.583 -141.137,-234.634 -315.241,-234.634 -174.104,0 -315.245,105.051 -315.245,234.634 0,129.58 141.141,234.631 315.245,234.631 174.104,0 315.241,-105.051 315.241,-234.631"
         id="path12480" /></clipPath><clipPath
       id="clipPath12482"><path
         d="m 51.6477,511.564 630.4863,0 0,333.436 -630.4863,0 0,-333.436 z"
         id="path12484" /></clipPath><clipPath
       id="clipPath12486"><path
         d="m -32768,-32768 65535,0 0,65535 -65535,0 0,-65535 z"
         id="path12488" /></clipPath><linearGradient
       x1="0"
       y1="0"
       x2="1"
       y2="0"
       id="linearGradient12490"
       gradientUnits="userSpaceOnUse"
       gradientTransform="matrix(1.298455,-463.5253,-463.5253,-1.298455,366.2518,974.3945)"
       spreadMethod="pad"><stop
         id="stop12492"
         style="stop-color:#ffffff;stop-opacity:0.83138782"
         offset="0" /><stop
         id="stop12494"
         style="stop-color:#ffffff;stop-opacity:0"
         offset="1" /></linearGradient><mask
       id="mask12496"><g
         id="g12498"><g
           clip-path="url(#clipPath12486)"
           id="g12500"><g
             id="g12502" /><g
             id="g12504"><g
               id="g12506"><path
                 d="m -32768,-32768 65535,0 0,65535 -65535,0 0,-65535 z"
                 id="path12508"
                 style="fill:url(#linearGradient12490);stroke:none" /></g></g></g></g></mask><linearGradient
       x1="0"
       y1="0"
       x2="1"
       y2="0"
       id="linearGradient12510"
       gradientUnits="userSpaceOnUse"
       gradientTransform="matrix(1.298455,-463.5253,-463.5253,-1.298455,366.2518,974.3945)"
       spreadMethod="pad"><stop
         id="stop12512"
         style="stop-color:#ffffff;stop-opacity:1"
         offset="0" /><stop
         id="stop12514"
         style="stop-color:#ffffff;stop-opacity:1"
         offset="1" /></linearGradient><clipPath
       id="clipPath12540"><path
         d="M 0,0 735,0 735,852 0,852 0,0 z"
         id="path12542" /></clipPath><clipPath
       id="clipPath12550"><path
         d="M 0,852 735,852 735,0 0,0 0,852 z"
         id="path12552" /></clipPath><clipPath
       id="clipPath12556"><path
         d="M 0,0 735,0 735,852 0,852 0,0 z"
         id="path12558" /></clipPath><clipPath
       id="clipPath12566"><path
         d="M 0,852 735,852 735,0 0,0 0,852 z"
         id="path12568" /></clipPath><clipPath
       id="clipPath12572"><path
         d="M 0,0 735,0 735,852 0,852 0,0 z"
         id="path12574" /></clipPath><clipPath
       id="clipPath12578"><path
         d="m 203,215 333,0 0,185 -333,0 0,-185 z"
         id="path12580" /></clipPath><clipPath
       id="clipPath12582"><path
         d="m 203.742,215.174 331.514,0 0,184.356 -331.514,0 0,-184.356 z"
         id="path12584" /></clipPath><clipPath
       id="clipPath12612"><path
         d="M 0,852 735,852 735,0 0,0 0,852 z"
         id="path12614" /></clipPath><clipPath
       id="clipPath12618"><path
         d="m 1173.274,844.604 358.698,-207.07 0,-422.155 L 1173.274,6.973 806.56,215.379 l 0,422.155 366.714,207.07 z"
         id="path12620" /></clipPath><clipPath
       id="clipPath12624"><path
         d="M 0,0 735,0 735,852 0,852 0,0 z"
         id="path12626" /></clipPath><clipPath
       id="clipPath12634"><path
         d="M 0,852 735,852 735,0 0,0 0,852 z"
         id="path12636" /></clipPath><clipPath
       id="clipPath12640"><path
         d="M 0,0 735,0 735,852 0,852 0,0 z"
         id="path12642" /></clipPath></defs><g
     transform="matrix(1.25,0,0,-1.25,0,1065)"
     id="g12438"><g
       id="g12440" /><g
       id="g12442"><g
         clip-path="url(#clipPath12446)"
         id="g12444"><g
           clip-path="url(#clipPath12452)"
           id="g12450"><path
             d="m 807.629,414.5521 c 0,-244.182 -197.947,-442.132 -442.129,-442.132 -244.182,0 -442.129,197.95 -442.129,442.132 0,244.182 197.947,442.129 442.129,442.129 244.182,0 442.129,-197.947 442.129,-442.129"
             id="path12456"
             style="fill:#ef7c32;fill-opacity:1;fill-rule:nonzero;stroke:none" /></g></g></g><g
       id="g12458"><g
         clip-path="url(#clipPath12462)"
         id="g12460"><g
           clip-path="url(#clipPath12468)"
           id="g12466"><g
             id="g12472" /><g
             id="g12516"><g
               clip-path="url(#clipPath12474)"
               id="g12518"
               style="opacity:0.25"><g
                 id="g12520" /><g
                 id="g12522"><g
                   clip-path="url(#clipPath12478)"
                   id="g12524"><g
                     clip-path="url(#clipPath12482)"
                     id="g12526"><g
                       id="g12528" /><g
                       mask="url(#mask12496)"
                       id="g12530"><g
                         id="g12532"><path
                           d="m 51.6477,511.564 630.4863,0 0,333.436 -630.4863,0 0,-333.436 z"
                           id="path12534"
                           style="fill:url(#linearGradient12510);stroke:none" /></g></g></g></g></g></g></g></g></g></g><g
       id="g12536"><g
         clip-path="url(#clipPath12540)"
         id="g12538"><path
           d="m 307.1862,816.1785 -277.817,-160.398 -29.283,-16.907 0,-424.253 29.283,-16.907 281.277,-162.397 56.852,-32.823 56.853,32.823 281.262,162.387 29.301,16.917 0,424.253 -29.301,16.917 -277.802,160.388 -60.313,34.822 -60.312,-34.822 z m -277.817,-585.645 0,390.431 338.121,195.214 10e-4,0 338.122,-195.214 0,-390.431 -338.123,-195.217 -338.121,195.217 z"
           id="path12544"
           style="fill:#d26e2b;fill-opacity:1;fill-rule:nonzero;stroke:none" /></g></g><g
       id="g12546"><g
         clip-path="url(#clipPath12550)"
         id="g12548"><g
           clip-path="url(#clipPath12556)"
           id="g12554"><path
             d="m 367.0335,218.1006 c 0.287,0.285 0.605,0.588 0.933,0.888 l -0.255,0 c -0.225,-0.3 -0.451,-0.599 -0.678,-0.888"
             id="path12560"
             style="fill:#e6b35a;fill-opacity:1;fill-rule:nonzero;stroke:none" /></g></g></g><g
       id="g12562"><g
         clip-path="url(#clipPath12566)"
         id="g12564"><g
           clip-path="url(#clipPath12572)"
           id="g12570"><g
             id="g12576" /><g
             id="g12586"><g
               clip-path="url(#clipPath12578)"
               id="g12588"
               style="opacity:0.93999999"><g
                 id="g12590" /><g
                 id="g12592"><g
                   clip-path="url(#clipPath12582)"
                   id="g12594"><text
                     transform="matrix(0.94339623,0,0,-1,203.7422,257.5737)"
                     id="text12596"><tspan
                       x="0"
                       y="0"
                       id="tspan12598"
                       style="font-size:169.6000061px;font-variant:normal;font-weight:normal;writing-mode:lr-tb;fill:#ffffff;fill-opacity:1;fill-rule:nonzero;stroke:none;font-family:Myriad Pro;-inkscape-font-specification:MyriadPro-Regular">d</tspan></text>
<text
                     transform="matrix(0.94339623,0,0,-1,290.7822,257.5737)"
                     id="text12600"><tspan
                       x="0 93.110397 129.744 206.2336"
                       y="0"
                       id="tspan12602"
                       style="font-size:169.6000061px;font-variant:normal;font-weight:normal;writing-mode:lr-tb;fill:#ffffff;fill-opacity:1;fill-rule:nonzero;stroke:none;font-family:Myriad Pro;-inkscape-font-specification:MyriadPro-Regular">plyr</tspan></text>
</g></g></g></g><path
             d="m 467.8755,495.062 c 8.352,-3.878 17.09,-4.003 25.947,-2.243 6.011,1.193 11.699,0.923 17.337,-2.022 6.803,-3.554 14.232,-4.577 21.609,-2.273 4.889,1.527 9.551,0.731 14.486,-0.027 -9.882,-3.217 -18.712,-9.405 -29.557,-9.725 -17.8,-0.525 -35.174,3.08 -52.684,5.383 -5.938,0.781 -11.87,1.909 -17.902,1.383 -2.106,-0.184 -3.182,0.151 -3.163,2.647 0.094,12.797 0.053,25.596 0.032,38.395 -0.003,1.619 0.192,2.607 2.31,2.543 15.896,-0.475 31.305,3.569 46.971,5.264 8.968,0.969 17.976,2.22 26.917,1.271 9.296,-0.987 17.447,-6.022 26.166,-9.414 -4.499,-1.077 -8.766,-1.892 -13.365,-0.565 -6.851,1.979 -13.925,1.607 -20.36,-1.518 -6.73,-3.267 -13.334,-3.604 -20.563,-2.137 -8.153,1.655 -16.41,1.158 -24.102,-2.47 -5.218,-2.461 -9.568,-6.115 -9.445,-12.464 0.117,-6.062 4.234,-9.646 9.366,-12.028 m 5.154,16.417 c 1.312,0.912 2.823,1.383 4.339,1.828 6.051,1.776 12.127,1.581 18.244,0.34 7.628,-1.546 14.989,-0.865 22.036,2.674 4.692,2.357 9.93,2.985 14.773,1.634 8.102,-2.262 15.948,-0.523 23.886,0.179 2.106,0.186 4.503,-0.224 6.208,1.659 1.224,0.241 2.457,0.443 3.67,0.73 1.76,0.416 4.324,-0.849 4.656,2.514 0.307,3.109 -1.889,3.533 -3.963,4.306 -10.481,3.908 -21.039,7.628 -31.389,11.857 -6.291,2.57 -12.643,3.596 -19.369,3.448 -9.486,-0.208 -18.861,-1.389 -28.252,-2.578 -11.88,-1.504 -23.631,-4.029 -35.656,-4.429 -2.942,-0.098 -5.116,0.626 -5.321,3.829 -0.241,3.754 -2.588,5.376 -5.704,6.447 -4.174,3.668 -4.174,3.668 -3.515,8.916 -0.01,4.423 0.005,8.846 -0.037,13.269 -0.035,3.658 -1.842,4.896 -5.303,3.849 -2.21,-0.669 -1.837,-2.756 -2.396,-4.225 -5.923,-15.548 -17.065,-28.127 -39.595,-19.591 -15.328,5.807 -30.768,11.33 -46.24,16.745 -39.108,13.688 -77.746,29.209 -120.093,30.156 -11.367,0.255 -22.735,1.269 -33.93,-1.388 -14.469,-3.434 -20.34,-17.941 -12.371,-30.173 2.841,-4.459 7.5,-4.135 11.844,-4.323 17.633,-0.763 35.258,0.747 52.911,0.082 12.5,-0.472 24.847,-1.814 37.118,-3.984 22.319,-3.948 43.696,-10.987 64.651,-19.568 27.345,-11.198 55.846,-17.857 85.309,-20.267 4.802,-0.393 9.228,-0.94 9.284,-7.269 0.002,-0.266 0.327,-0.524 0.518,-0.776 0.508,-7.9 0.51,-7.933 -5.773,-8.368 -31.898,-2.209 -62.554,-9.607 -92.105,-21.781 -40.99,-16.887 -83.452,-25.236 -127.95,-22.291 -9.88,0.654 -19.891,1.191 -29.759,-0.601 -5.635,-1.024 -8.421,-3.887 -8.951,-8.916 -0.712,-6.767 -0.146,-13.268 4.779,-18.616 0.587,-2.522 2.749,-3.343 4.744,-4.234 5.708,-2.553 11.755,-3.734 17.972,-3.709 9.624,0.038 19.234,0.179 28.869,0.695 16.049,0.861 31.654,3.653 47.075,7.907 29.432,8.119 57.973,18.865 86.609,29.331 10.978,4.012 21.864,8.334 33.208,11.233 10.234,2.615 18.295,-1.052 24.416,-9.335 2.408,-3.259 4.763,-6.569 6.873,-10.04 0.324,-0.7 0.838,-1.374 0.938,-2.104 0.449,-3.279 2.716,-3.215 5.187,-3.061 3.212,0.2 2.031,2.629 2.089,4.216 0.162,4.383 0.091,8.774 0.111,13.161 -0.994,4.434 0.543,7.187 5.134,8.257 2.675,0.623 4.192,2.638 4.948,5.258 0.879,3.046 3.077,4.174 6.106,4.143 3.965,-0.04 7.872,-0.691 11.762,-1.271 16.703,-2.491 33.381,-5.216 50.287,-5.867 5.189,-0.199 10.444,0.126 15.401,1.957 9.48,3.5 18.931,7.081 28.387,10.649 1.469,0.555 3.025,1.006 3.816,2.577 1.57,0.68 3.097,1.502 4.721,2.007 2.263,0.702 2.803,2.19 2.549,4.326 -0.277,2.332 -2.065,1.952 -3.561,2.106 -5.631,0.577 -11.254,1.306 -16.9,1.657 -5.56,0.345 -10.994,1.361 -16.739,-0.417 -5.75,-1.78 -11.877,-0.917 -17.414,2.045 -6.37,3.407 -13.11,3.667 -20.004,2.276 -7.839,-1.582 -15.552,-2.017 -22.915,1.918 -0.19,0.974 -0.805,1.702 -1.445,2.396 -2.551,2.758 -1.348,4.817 1.222,6.605"
             id="path12604"
             style="fill:#d26e2b;fill-opacity:1;fill-rule:nonzero;stroke:none" /><path
             d="m 462.8755,504.062 c 8.352,-3.878 17.09,-4.003 25.947,-2.243 6.011,1.193 11.699,0.923 17.337,-2.022 6.803,-3.554 14.232,-4.577 21.609,-2.273 4.889,1.527 9.551,0.731 14.486,-0.027 -9.882,-3.217 -18.712,-9.405 -29.557,-9.725 -17.8,-0.525 -35.174,3.08 -52.684,5.383 -5.938,0.781 -11.87,1.909 -17.902,1.383 -2.106,-0.184 -3.182,0.151 -3.163,2.647 0.094,12.797 0.053,25.596 0.032,38.395 -0.003,1.619 0.192,2.607 2.31,2.543 15.896,-0.475 31.305,3.569 46.971,5.264 8.968,0.969 17.976,2.22 26.917,1.271 9.296,-0.987 17.447,-6.022 26.166,-9.414 -4.499,-1.077 -8.766,-1.892 -13.365,-0.565 -6.851,1.979 -13.925,1.607 -20.36,-1.518 -6.73,-3.267 -13.334,-3.604 -20.563,-2.137 -8.153,1.655 -16.41,1.158 -24.102,-2.47 -5.218,-2.461 -9.568,-6.115 -9.445,-12.464 0.117,-6.062 4.234,-9.646 9.366,-12.028 m 5.154,16.417 c 1.312,0.912 2.823,1.383 4.339,1.828 6.051,1.776 12.127,1.581 18.244,0.34 7.628,-1.546 14.989,-0.865 22.036,2.674 4.692,2.357 9.93,2.985 14.773,1.634 8.102,-2.262 15.948,-0.523 23.886,0.179 2.106,0.186 4.503,-0.224 6.208,1.659 1.224,0.241 2.457,0.443 3.67,0.73 1.76,0.416 4.324,-0.849 4.656,2.514 0.307,3.109 -1.889,3.533 -3.963,4.306 -10.481,3.908 -21.039,7.628 -31.389,11.857 -6.291,2.57 -12.643,3.596 -19.369,3.448 -9.486,-0.208 -18.861,-1.389 -28.252,-2.578 -11.88,-1.504 -23.631,-4.029 -35.656,-4.429 -2.942,-0.098 -5.116,0.626 -5.321,3.829 -0.241,3.754 -2.588,5.376 -5.704,6.447 -4.174,3.668 -4.174,3.668 -3.515,8.916 -0.01,4.423 0.005,8.846 -0.037,13.269 -0.035,3.658 -1.842,4.896 -5.303,3.849 -2.21,-0.669 -1.837,-2.756 -2.396,-4.225 -5.923,-15.548 -17.065,-28.127 -39.595,-19.591 -15.328,5.807 -30.768,11.33 -46.24,16.745 -39.108,13.688 -77.746,29.209 -120.093,30.156 -11.367,0.255 -22.735,1.269 -33.93,-1.388 -14.469,-3.434 -20.34,-17.941 -12.371,-30.173 2.841,-4.459 7.5,-4.135 11.844,-4.323 17.633,-0.763 35.258,0.747 52.911,0.082 12.5,-0.472 24.847,-1.814 37.118,-3.984 22.319,-3.948 43.696,-10.987 64.651,-19.568 27.345,-11.198 55.846,-17.857 85.309,-20.267 4.802,-0.393 9.228,-0.94 9.284,-7.269 0.002,-0.266 0.327,-0.524 0.518,-0.776 0.508,-7.9 0.51,-7.933 -5.773,-8.368 -31.898,-2.209 -62.554,-9.607 -92.105,-21.781 -40.99,-16.887 -83.452,-25.236 -127.95,-22.291 -9.88,0.654 -19.891,1.191 -29.759,-0.601 -5.635,-1.024 -8.421,-3.887 -8.951,-8.916 -0.712,-6.767 -0.146,-13.268 4.779,-18.616 0.587,-2.522 2.749,-3.343 4.744,-4.234 5.708,-2.553 11.755,-3.734 17.972,-3.709 9.624,0.038 19.234,0.179 28.869,0.695 16.049,0.861 31.654,3.653 47.075,7.907 29.432,8.119 57.973,18.865 86.609,29.331 10.978,4.012 21.864,8.334 33.208,11.233 10.234,2.615 18.295,-1.052 24.416,-9.335 2.408,-3.259 4.763,-6.569 6.873,-10.04 0.324,-0.7 0.838,-1.374 0.938,-2.104 0.449,-3.279 2.716,-3.215 5.187,-3.061 3.212,0.2 2.031,2.629 2.089,4.216 0.162,4.383 0.091,8.774 0.111,13.161 -0.994,4.434 0.543,7.187 5.134,8.257 2.675,0.623 4.192,2.638 4.948,5.258 0.879,3.046 3.077,4.174 6.106,4.143 3.965,-0.04 7.872,-0.691 11.762,-1.271 16.703,-2.491 33.381,-5.216 50.287,-5.867 5.189,-0.199 10.444,0.126 15.401,1.957 9.48,3.5 18.931,7.081 28.387,10.649 1.469,0.555 3.025,1.006 3.816,2.577 1.57,0.68 3.097,1.502 4.721,2.007 2.263,0.702 2.803,2.19 2.549,4.326 -0.277,2.332 -2.065,1.952 -3.561,2.106 -5.631,0.577 -11.254,1.306 -16.9,1.657 -5.56,0.345 -10.994,1.361 -16.739,-0.417 -5.75,-1.78 -11.877,-0.917 -17.414,2.045 -6.37,3.407 -13.11,3.667 -20.004,2.276 -7.839,-1.582 -15.552,-2.017 -22.915,1.918 -0.19,0.974 -0.805,1.702 -1.445,2.396 -2.551,2.758 -1.348,4.817 1.222,6.605"
             id="path12606"
             style="fill:#ffffff;fill-opacity:1;fill-rule:nonzero;stroke:none" /></g></g></g><g
       id="g12608"><g
         clip-path="url(#clipPath12612)"
         id="g12610"><g
           clip-path="url(#clipPath12618)"
           id="g12616"><g
             clip-path="url(#clipPath12624)"
             id="g12622"><path
               d="m 1611.395,414.5519 c 0,-244.182 -197.947,-442.132 -442.129,-442.132 -244.1817,0 -442.1287,197.95 -442.1287,442.132 0,244.182 197.947,442.129 442.1287,442.129 244.182,0 442.129,-197.947 442.129,-442.129"
               id="path12628"
               style="fill:#f2f2f2;fill-opacity:1;fill-rule:nonzero;stroke:none" /></g></g></g></g><g
       id="g12630"><g
         clip-path="url(#clipPath12634)"
         id="g12632"><g
           clip-path="url(#clipPath12640)"
           id="g12638"><text
             transform="matrix(0.86418122,0.50318071,0.50318071,-0.86418122,369.2848,42.9006)"
             id="text12644"><tspan
               x="0 18.699974 37.397446 54.822422 59.997417 68.172401 78.072388 86.347382 100.12236 114.22234 120.07233 133.19731 138.3723 149.42229 163.14728"
               y="0"
               id="tspan12646"
               style="font-size:24.99996567px;font-variant:normal;font-weight:normal;writing-mode:lr-tb;fill:#ffffff;fill-opacity:1;fill-rule:nonzero;stroke:none;font-family:Myriad Pro;-inkscape-font-specification:MyriadPro-Regular">www.rstudio.com</tspan></text>
</g></g></g></g></svg>